<svg xmlns:dc="http://purl.org/dc/elements/1.1/" xmlns:cc="http://creativecommons.org/ns#" xmlns:rdf="http://www.w3.org/1999/02/22-rdf-syntax-ns#" xmlns:svg="http://www.w3.org/2000/svg" xmlns="http://www.w3.org/2000/svg" xmlns:sodipodi="http://sodipodi.sourceforge.net/DTD/sodipodi-0.dtd" xmlns:inkscape="http://www.inkscape.org/namespaces/inkscape" viewBox="0 0 16 16" version="1.1" x="0px" y="0px"><g transform="translate(0,-1036.3622)"><g transform="translate(0,0.0198085)"><g transform="translate(1100.5659,-21.019708)"><path d="M 12.001953 2 L 12.001953 2.5 L 12.001953 4 L 10.5 4 L 10 4 L 10 5 L 10.5 5 L 12.001953 5 L 12.001953 6.5039062 L 12.001953 7.0039062 L 13.001953 7.0039062 L 13.001953 6.5039062 L 13.001953 5 L 14.529297 5 L 15.029297 5 L 15.029297 4 L 14.529297 4 L 13.001953 4 L 13.001953 2.5 L 13.001953 2 L 12.001953 2 z M 8.4804688 4.2421875 L 8.2402344 4.3730469 L 0.98046875 8.2929688 L 8.4804688 12.34375 L 15.980469 8.2929688 L 15.419922 7.9902344 L 13.318359 8 L 13.865234 8.296875 L 8.4804688 11.205078 L 3.09375 8.296875 L 8.4804688 5.3886719 L 8.984375 5.6601562 L 8.9824219 4.5136719 L 8.4804688 4.2421875 z M 1.9785156 10.041016 L 0.93554688 10.605469 L 8.4355469 14.658203 L 15.935547 10.605469 L 14.892578 10.041016 L 8.4355469 13.529297 L 1.9785156 10.041016 z " transform="translate(-1100.5659,1057.3621)"/></g></g></g></svg>