<?xml version="1.0" encoding="utf-8"?>
<!-- Generator: Adobe Illustrator 19.2.1, SVG Export Plug-In . SVG Version: 6.00 Build 0)  -->
<svg version="1.1" id="Layer_1" xmlns="http://www.w3.org/2000/svg" xmlns:xlink="http://www.w3.org/1999/xlink" x="0px" y="0px"
	 viewBox="0 0 24 24" enable-background="new 0 0 24 24" xml:space="preserve">
<path d="M22,7c0,0.3-0.1,0.4-0.3,0.5L10.5,18.7C10.4,18.9,10.1,19,10,19c-0.3,0-0.4-0.1-0.5-0.3l-7.1-7.1C2.1,11.5,2,11.4,2,11.1
	c0-0.2,0.1-0.4,0.2-0.5l1.3-1.3C3.6,9.2,3.9,9.1,4,9.1c0.2,0,0.4,0.1,0.5,0.3l5.4,5.4l9.5-9.5C19.5,5.1,19.7,5,19.9,5
	c0.1,0,0.4,0.1,0.5,0.2l1.3,1.3C21.9,6.6,22,6.7,22,7z"/>
</svg>
