<?xml version="1.0" encoding="utf-8"?>
<!-- Generator: Adobe Illustrator 19.2.1, SVG Export Plug-In . SVG Version: 6.00 Build 0)  -->
<svg version="1.1" id="Layer_1" xmlns="http://www.w3.org/2000/svg" xmlns:xlink="http://www.w3.org/1999/xlink" x="0px" y="0px"
	 viewBox="0 0 24 24" style="enable-background:new 0 0 24 24;" xml:space="preserve">
<path d="M13.1,12l5.7-5.7C19,6,19,5.5,18.8,5.2c-0.3-0.3-0.8-0.3-1.1,0L12,10.9L6.3,5.2C6,4.9,5.5,4.9,5.2,5.2C5,5.5,5,6,5.2,6.3
	l5.7,5.7l-5.7,5.7c-0.3,0.3-0.3,0.8,0,1.1C5.3,18.9,5.5,19,5.8,19c0.3,0,0.4-0.1,0.5-0.3L12,13l5.7,5.7c0.2,0.2,0.4,0.3,0.5,0.3
	s0.4-0.1,0.5-0.3c0.3-0.3,0.3-0.8,0-1.1L13.1,12z"/>
</svg>
