<?xml version="1.0" ?><svg id="Layer_1_1_" style="enable-background:new 0 0 16 16;" version="1.1" viewBox="0 0 16 16"
  xml:space="preserve" xmlns="http://www.w3.org/2000/svg" xmlns:xlink="http://www.w3.org/1999/xlink">
  <g class="svg-icon__stroke-white svg-icon__fill" style="stroke-width: 0.5;">
    <path d="m4.16624,6.22507l5.82088,-3.71219l2.51289,6.12113l-4.25258,3.99485l-4.76804,-1.09536l0.68685,-5.30843z" />
    <path
      d="m9.9652,2.61683c0,0 -4.38144,-2.64175 -4.42397,-2.61683c0.04252,-0.02493 -5.62758,-0.02493 -5.60567,0c-0.02191,-0.02493 0.10696,5.06528 0.06443,5.02577c0.04252,0.03951 4.1018,1.1993 4.05928,1.15979c0.04252,0.03951 5.90593,-3.56874 5.90593,-3.56874z" />
    <path d="m3.45747,11.57301l-3.39304,4.2775l-0.06443,-10.56701l3.99485,0.83763l-0.53737,5.45188z" />
    <path
      d="m8.28995,12.66837c0,0 3.02835,3.35052 2.98583,3.31101c0.04252,0.03951 -10.91108,-0.02493 -10.95361,-0.06443c0.04252,0.03951 3.07087,-4.14864 3.02835,-4.18814c0.04252,0.03951 4.93943,0.94157 4.93943,0.94157z" />
    <path d="m12.60696,8.67353l3.37242,4.08421l0,3.22165l-4.70361,-0.12887l-2.77062,-3.22165l4.1018,-3.95534z" />
    <path d="m9.9652,2.74569l5.94974,-2.74569l0.06443,12.56443l-3.35052,-3.86598l-2.66366,-5.95276z" />
    <path
      d="m5.51933,0.03951c0,0 10.05155,0 10.00902,-0.03951c0.04252,0.03951 -5.30541,2.55239 -5.34794,2.51289c0.04252,0.03951 -4.66108,-2.47338 -4.66108,-2.47338z" />
  </g>
</svg>
