<!--Generator: Adobe Illustrator 19.2.1, SVG Export Plug-In . SVG Version: 6.00 Build 0)--><svg xmlns="http://www.w3.org/2000/svg" viewBox="0 0 24 24"><path d="M20.9 6.3c.3 0 .6.1.8.3.2.2.3.5.3.8V21c0 .3-.1.6-.3.8s-.5.2-.8.2H10.2c-.3 0-.6-.1-.8-.3-.2-.2-.3-.5-.3-.8v-3.2h-6c-.3 0-.6-.1-.8-.3-.2-.2-.3-.5-.3-.8V9.1c0-.3.1-.6.2-1s.3-.6.5-.8l4.6-4.6c.2-.2.5-.4.8-.5.4-.1.7-.2 1-.2h4.6c.3 0 .6.1.8.3.2.2.3.5.3.8v3.7c.5-.3 1-.4 1.4-.4h4.7zm-6 2.4L11.5 12h3.3V8.7zM7.7 4.4L4.4 7.7h3.3V4.4zm2.2 7.2l3.5-3.5V3.4H9.1V8c0 .3-.1.6-.3.8-.2.2-.4.3-.7.3H3.4v7.1h5.7v-2.9c0-.3.1-.6.2-1 .2-.2.4-.5.6-.7zm10.7 9V7.7h-4.3v4.6c0 .3-.1.6-.3.8-.2.2-.5.3-.8.3h-4.6v7.1h10z"/></svg>