<?xml version="1.0" encoding="UTF-8"?>
<svg width="16px" height="20px" viewBox="0 0 16 22" version="1.1" xmlns="http://www.w3.org/2000/svg" xmlns:xlink="http://www.w3.org/1999/xlink">
    <!-- Generator: Sketch 53.2 (72643) - https://sketchapp.com -->
    <title>DeleteOne</title>
    <desc>Created with Sketch.</desc>
    <g id="Page-1" stroke="none" stroke-width="1">
        <g id="Artboard" transform="translate(-1.000000, 0.000000)">
            <g id="DeleteOne" transform="translate(1.000000, 0.000000)">
                <path d="M5.81820465,7.91673485 L5.81820465,15.4167364 C5.81820465,15.5382642 5.78411324,15.6380912 5.71593178,15.7162158 C5.64774963,15.7943405 5.56062864,15.8334036 5.45456813,15.8334036 L4.72729509,15.8334036 C4.62123459,15.8334036 4.5341136,15.7943405 4.46593146,15.7162158 C4.39774999,15.6380912 4.36365858,15.5382642 4.36365858,15.4167364 L4.36365858,7.91673485 C4.36365858,7.79520708 4.39774999,7.69538087 4.46593146,7.61725543 C4.5341136,7.53913077 4.62123459,7.50006844 4.72729509,7.50006844 L5.45456813,7.50006844 C5.56062864,7.50006844 5.64774963,7.53913077 5.71593178,7.61725543 C5.78411324,7.69538087 5.81820465,7.79520708 5.81820465,7.91673485 Z M8.72729004,7.91673485 L8.72729004,15.4167364 C8.72729004,15.5382642 8.69319929,15.6380912 8.62501716,15.7162158 C8.55683564,15.7943405 8.46971467,15.8334036 8.36365413,15.8334036 L7.63638116,15.8334036 C7.53032062,15.8334036 7.44319964,15.7943405 7.37501751,15.7162158 C7.306836,15.6380912 7.27274533,15.5382642 7.27274533,15.4167364 L7.27274533,7.91673485 C7.27274533,7.79520708 7.306836,7.69538087 7.37501751,7.61725543 C7.44319964,7.53913077 7.53032062,7.50006844 7.63638116,7.50006844 L8.36365413,7.50006844 C8.46971467,7.50006844 8.55683564,7.53913077 8.62501716,7.61725543 C8.69319929,7.69538087 8.72729004,7.79520708 8.72729004,7.91673485 Z M11.6363754,7.91673485 L11.6363754,15.4167364 C11.6363754,15.5382642 11.6022846,15.6380912 11.5341032,15.7162158 C11.465921,15.7943405 11.3788,15.8334036 11.2727396,15.8334036 L10.5454665,15.8334036 C10.439406,15.8334036 10.352285,15.7943405 10.2841036,15.7162158 C10.2159214,15.6380912 10.1818307,15.5382642 10.1818307,15.4167364 L10.1818307,7.91673485 C10.1818307,7.79520708 10.2159214,7.69538087 10.2841036,7.61725543 C10.352285,7.53913077 10.439406,7.50006844 10.5454665,7.50006844 L11.2727396,7.50006844 C11.3788,7.50006844 11.465921,7.53913077 11.5341032,7.61725543 C11.6022846,7.69538087 11.6363754,7.79520708 11.6363754,7.91673485 Z M13.0909214,17.3437896 L13.0909412,5.00006844 L2.90911251,5.00006844 L2.90911251,17.3437896 C2.90911251,17.534762 2.93562797,17.7105429 2.98865823,17.871133 C3.04168848,18.0317231 3.09661255,18.1489108 3.15343044,18.2226955 C3.210249,18.2964802 3.25002119,18.3333725 3.27274902,18.3333725 L12.7273052,18.3333725 C12.7500324,18.3333725 12.7898053,18.2964802 12.8466232,18.2226955 C12.9034418,18.1489108 12.9583658,18.0317231 13.0113961,17.871133 C13.0644263,17.7105429 13.0909412,17.534762 13.0909412,17.3437896 L13.0909214,17.3437896 Z M5.45456474,3.33336859 L10.5454692,3.33336859 L10.0000155,1.80992762 C9.94698516,1.73180218 9.88259138,1.68405907 9.80683396,1.6666983 L6.20456425,1.6666983 C6.12880684,1.68405907 6.064413,1.73180218 6.01138276,1.80992762 L5.45456474,3.33336859 Z M16,3.750035 L16,4.58336937 C16,4.70489714 15.9659086,4.80472335 15.8977271,4.88284879 C15.829545,4.96097345 15.742424,5.00003578 15.6363635,5.00003578 L14.5454573,5.00003578 L14.5454573,17.3437569 C14.5454573,18.0642427 14.3674277,18.6870723 14.0113671,19.2122434 C13.6553073,19.7374168 13.2272796,20 12.7272781,20 L3.27272188,20 C2.77272174,20 2.34469072,19.7460945 1.98863286,19.2382818 C1.63257228,18.7304692 1.454542,18.1163219 1.454542,17.3958353 L1.454542,5.00000311 L0.36363584,5.00000311 C0.257575333,5.00000311 0.170454338,4.96094078 0.10227288,4.88281612 C0.0340907289,4.80469068 0,4.70486447 0,4.5833367 L0,3.75000233 C0,3.62847457 0.0340907289,3.52864835 0.10227288,3.45052369 C0.170454338,3.37239826 0.257575333,3.33333593 0.36363584,3.33333593 L3.87499556,3.33333593 L4.67045277,1.15885612 C4.78408923,0.83767593 4.9886343,0.56423806 5.28408868,0.33854175 C5.57954305,0.11284699 5.87878506,0 6.18181876,0 L9.81817716,0 C10.1212068,0 10.4204488,0.11284699 10.7159004,0.33854175 C11.0113548,0.56423573 11.2159006,0.83767359 11.3295364,1.15885612 L12.1249936,3.33333593 L15.6363533,3.33333593 C15.7424138,3.33333593 15.8295348,3.37239826 15.897717,3.45052369 C15.9658984,3.52864835 15.9999898,3.62847457 15.9999898,3.75000233 L16,3.750035 Z" id="Shape"></path>
            </g>
        </g>
    </g>
</svg>