<?xml version="1.0" encoding="UTF-8"?>
<svg width="16px" height="20px" viewBox="0 0 16 22" version="1.1" xmlns="http://www.w3.org/2000/svg" xmlns:xlink="http://www.w3.org/1999/xlink">
    <!-- Generator: Sketch 53.2 (72643) - https://sketchapp.com -->
    <title>DeleteAll</title>
    <desc>Created with Sketch.</desc>
    <g id="Page-1" stroke="none" stroke-width="1">
        <g id="Artboard-Copy" transform="translate(-1.000000, 0.000000)">
            <g id="DeleteAll" transform="translate(1.000000, 0.000000)">
                <path d="M5.81820465,16.2500008 L5.81820465,7.08334604 C5.81820465,6.96181827 5.78411324,6.86199128 5.71593178,6.78386662 C5.64774963,6.70574196 5.56062864,6.66667885 5.45456813,6.66667885 L4.72729509,6.66667885 C4.62123459,6.66667885 4.5341136,6.70574196 4.46593146,6.78386662 C4.39774999,6.86199128 4.36365858,6.96181827 4.36365858,7.08334604 L4.36365858,16.2500008 C4.36365858,16.3715285 4.39774999,16.4713548 4.46593146,16.5494802 C4.5341136,16.6276049 4.62123459,16.6666672 4.72729509,16.6666672 L5.45456813,16.6666672 C5.56062864,16.6666672 5.64774963,16.6276049 5.71593178,16.5494802 C5.78411324,16.4713548 5.81820465,16.3715285 5.81820465,16.2500008 L5.81820465,16.2500008 Z M8.72729004,16.2500008 L8.72729004,7.08334604 C8.72729004,6.96181827 8.69319929,6.86199128 8.62501716,6.78386662 C8.55683564,6.70574196 8.46971467,6.66667885 8.36365413,6.66667885 L7.63638116,6.66667885 C7.53032062,6.66667885 7.44319964,6.70574196 7.37501751,6.78386662 C7.306836,6.86199128 7.27274533,6.96181827 7.27274533,7.08334604 L7.27274533,16.2500008 C7.27274533,16.3715285 7.306836,16.4713548 7.37501751,16.5494802 C7.44319964,16.6276049 7.53032062,16.6666672 7.63638116,16.6666672 L8.36365413,16.6666672 C8.46971467,16.6666672 8.55683564,16.6276049 8.62501716,16.5494802 C8.69319929,16.4713548 8.72729004,16.3715285 8.72729004,16.2500008 L8.72729004,16.2500008 Z M11.6363754,16.2500008 L11.6363754,7.08334604 C11.6363754,6.96181827 11.6022846,6.86199128 11.5341032,6.78386662 C11.465921,6.70574196 11.3788,6.66667885 11.2727396,6.66667885 L10.5454665,6.66667885 C10.439406,6.66667885 10.352285,6.70574196 10.2841036,6.78386662 C10.2159214,6.86199128 10.1818307,6.96181827 10.1818307,7.08334604 L10.1818307,16.2500008 C10.1818307,16.3715285 10.2159214,16.4713548 10.2841036,16.5494802 C10.352285,16.6276049 10.439406,16.6666672 10.5454665,16.6666672 L11.2727396,16.6666672 C11.3788,16.6666672 11.465921,16.6276049 11.5341032,16.5494802 C11.6022846,16.4713548 11.6363754,16.3715285 11.6363754,16.2500008 L11.6363754,16.2500008 Z M5.45456474,3.33336859 L10.5454692,3.33336859 L10.0000155,1.80992762 C9.94698516,1.73180218 9.88259138,1.68405907 9.80683396,1.6666983 L6.20456425,1.6666983 C6.12880684,1.68405907 6.064413,1.73180218 6.01138276,1.80992762 L5.45456474,3.33336859 Z M16,3.750035 L16,4.58336937 C16,4.70489714 15.9659086,4.80472335 15.8977271,4.88284879 C15.829545,4.96097345 15.742424,5.00003578 15.6363635,5.00003578 L14.5454573,5.00003578 L14.5454573,17.3437569 C14.5454573,18.0642427 14.3674277,18.6870723 14.0113671,19.2122434 C13.6553073,19.7374168 13.2272796,20 12.7272781,20 L3.27272188,20 C2.77272174,20 2.34469072,19.7460945 1.98863286,19.2382818 C1.63257228,18.7304692 1.454542,18.1163219 1.454542,17.3958353 L1.454542,5.00000311 L0.36363584,5.00000311 C0.257575333,5.00000311 0.170454338,4.96094078 0.10227288,4.88281612 C0.0340907289,4.80469068 0,4.70486447 0,4.5833367 L0,3.75000233 C0,3.62847457 0.0340907289,3.52864835 0.10227288,3.45052369 C0.170454338,3.37239826 0.257575333,3.33333593 0.36363584,3.33333593 L3.87499556,3.33333593 L4.67045277,1.15885612 C4.78408923,0.83767593 4.9886343,0.56423806 5.28408868,0.33854175 C5.57954305,0.11284699 5.87878506,0 6.18181876,0 L9.81817716,0 C10.1212068,0 10.4204488,0.11284699 10.7159004,0.33854175 C11.0113548,0.56423573 11.2159006,0.83767359 11.3295364,1.15885612 L12.1249936,3.33333593 L15.6363533,3.33333593 C15.7424138,3.33333593 15.8295348,3.37239826 15.897717,3.45052369 C15.9658984,3.52864835 15.9999898,3.62847457 15.9999898,3.75000233 L16,3.750035 Z" id="Shape"></path>
            </g>
        </g>
    </g>
</svg>