<!--Generator: Adobe Illustrator 19.2.1, SVG Export Plug-In . SVG Version: 6.00 Build 0)--><svg xmlns="http://www.w3.org/2000/svg" viewBox="0 0 24 24"><path d="M12 15.9l1.3-1.3-1.7-1.7-1.3 1.3v.6h1.1v1.1h.6zm4.9-8c-.1-.1-.2-.1-.4 0l-3.9 3.9c-.1.1-.1.3 0 .4.1.1.2.1.4 0l3.9-3.9c.1-.2.1-.3 0-.4zm.9 6.6v2.1c0 .9-.3 1.6-.9 2.3-.6.6-1.4.9-2.3.9H5.2c-.9 0-1.6-.3-2.3-.9-.6-.6-.9-1.3-.9-2.2V7.3c0-.9.3-1.6.9-2.3s1.4-.9 2.3-.9h9.3c.5 0 .9.1 1.3.3.2 0 .2.1.3.2 0 .1 0 .2-.1.3l-.5.5c-.1.1-.2.1-.4.1s-.3-.1-.5-.1H5.2c-.5.1-.9.3-1.2.7-.4.3-.6.7-.6 1.2v9.3c0 .5.2.9.5 1.3.4.4.8.5 1.3.5h9.3c.5 0 .9-.2 1.3-.5.4-.4.5-.8.5-1.3v-1.4c0-.1 0-.2.1-.2l.7-.7c.1-.1.2-.1.4-.1.2.1.3.2.3.3zm-1.1-8.2l3.2 3.2-7.5 7.5H9.2v-3.2l7.5-7.5zm5 1.4l-1 1-3.2-3.2 1-1c.2-.2.5-.3.8-.3s.6.1.8.3l1.7 1.7c.1.2.2.5.2.8s-.1.5-.3.7z"/></svg>