<!--Generator: Adobe Illustrator 19.2.1, SVG Export Plug-In . SVG Version: 6.00 Build 0)--><svg xmlns="http://www.w3.org/2000/svg" viewBox="0 0 24 24"><path d="M21.2 12.8c0 1.3-.2 2.4-.7 3.6-.5 1.1-1.1 2.1-2 2.9-.8.8-1.8 1.5-2.9 2s-2.3.7-3.6.7-2.4-.2-3.6-.7-2.1-1.1-2.9-2c-.8-.8-1.5-1.8-2-2.9s-.7-2.4-.7-3.6c0-1.5.3-2.8 1-4.1s1.6-2.4 2.7-3.2c.3-.4.7-.5 1.1-.4.4.1.8.3 1 .6.3.3.4.7.3 1.1-.1.4-.3.8-.6 1-.8.6-1.4 1.4-1.8 2.2-.4.9-.6 1.8-.6 2.7 0 .8.2 1.6.5 2.4.3.8.8 1.4 1.3 2 .6.6 1.2 1 2 1.3.8.3 1.6.5 2.4.5s1.6-.2 2.4-.5c.8-.3 1.4-.8 2-1.3.6-.6 1-1.2 1.3-2 .3-.8.5-1.6.5-2.4 0-1-.2-1.9-.6-2.7-.4-.9-1-1.6-1.8-2.2-.3-.3-.5-.6-.6-1-.1-.4 0-.8.3-1.1.2-.3.6-.5 1-.6.4-.1.8 0 1.1.3 1.2.9 2.1 2 2.7 3.2.5 1.3.8 2.7.8 4.2zm-7.7-9.3v7.7c0 .4-.2.8-.5 1.1s-.7.5-1.1.5-.8-.2-1.1-.5-.5-.7-.5-1.1V3.5c0-.4.2-.8.5-1.1S11.6 2 12 2s.8.2 1.1.5.4.6.4 1z"/></svg>