<?xml version="1.0" encoding="UTF-8"?>
<svg width="24px" height="22px" viewBox="0 0 24 22" version="1.1" xmlns="http://www.w3.org/2000/svg" xmlns:xlink="http://www.w3.org/1999/xlink">
    <!-- Generator: Sketch 53.2 (72643) - https://sketchapp.com -->
    <title>Combined-Shape</title>
    <desc>Created with Sketch.</desc>
    <g id="Page-1" stroke="none" stroke-width="1">
        <g id="Artboard">
            <g id="Erase">
                <path d="M23.3122292,20.5357533 C23.6920032,20.5357533 23.999914,20.8635479 23.999914,21.2679072 C23.999914,21.6722054 23.6920032,22 23.3122292,22 L5.1696134,22 C4.98731962,22 4.81236113,21.9228862 4.68342023,21.7854968 L0.201491655,17.0142647 C-0.0671638851,16.7282604 -0.0671638851,16.2647847 0.201491655,15.9789024 L15.0096956,0.21438119 C15.1386365,0.07711378 15.3135377,0 15.4958888,0 C15.6782972,0 15.8531411,0.07711378 15.9821966,0.21438119 L23.7985943,8.53553146 C24.0671352,8.82141372 24.0671352,9.2848895 23.7985943,9.5708938 L13.4987375,20.5357533 L23.3122292,20.5357533 Z M11.5536209,20.5357533 L13.2733488,18.7050331 L6.42950932,11.4192452 L1.6602431,16.4964921 L5.45448685,20.5357533 L11.5536209,20.5357533 Z" id="Combined-Shape"></path>
            </g>
        </g>
    </g>
</svg>