<?xml version="1.0" encoding="UTF-8"?>
<svg width="24px" height="24px" viewBox="0 0 24 24" version="1.1" xmlns="http://www.w3.org/2000/svg" xmlns:xlink="http://www.w3.org/1999/xlink">
    <!-- Generator: Sketch 53.2 (72643) - https://sketchapp.com -->
    <title>Icon/EraseAll2</title>
    <desc>Created with Sketch.</desc>
    <g id="Icon/EraseAll2" stroke="none" stroke-width="1">
        <path d="M23.3122292,21.5357533 C23.6920032,21.5357533 23.999914,21.8635479 23.999914,22.2679072 C23.999914,22.6722054 23.6920032,23 23.3122292,23 L5.1696134,23 C4.98731962,23 4.81236113,22.9228862 4.68342023,22.7854968 L0.201491655,18.0142647 C-0.0671638851,17.7282604 -0.0671638851,17.2647847 0.201491655,16.9789024 L15.0096956,1.21438119 C15.1386365,1.07711378 15.3135377,1 15.4958888,1 C15.6782972,1 15.8531411,1.07711378 15.9821966,1.21438119 L23.7985943,9.53553146 C24.0671352,9.82141372 24.0671352,10.2848895 23.7985943,10.5708938 L13.4987375,21.5357533 L23.3122292,21.5357533 Z M11.5536209,21.5357533 L13.2733488,19.7050331 L6.42950932,12.4192452 L1.6602431,17.4964921 L5.45448685,21.5357533 L11.5536209,21.5357533 Z M16.5215874,6.82595121 L12.4327895,9.87254473 L13.9190792,11.2108059 L11.2425568,14.1833852 L18.2113411,12.3843104 L16.74363,11.0627775 L19.4941667,9.50247363 L16.5215874,6.82595121 Z" id="Combined-Shape"></path>
    </g>
</svg>