<!--Generator: Adobe Illustrator 19.2.1, SVG Export Plug-In . SVG Version: 6.00 Build 0)--><svg xmlns="http://www.w3.org/2000/svg" viewBox="0 0 24 24"><path d="M17.4 18.9c0-.2-.1-.4-.2-.5-.2-.2-.3-.2-.5-.2s-.4.1-.5.2c-.2.2-.2.3-.2.5s.1.4.2.5c.2.2.3.2.5.2s.4-.1.5-.2c.1-.1.2-.3.2-.5zm3.1 0c0-.2-.1-.4-.2-.5s-.3-.2-.5-.2-.4.1-.5.2-.2.3-.2.5.1.4.2.5c.2.2.3.2.5.2s.4-.1.5-.2c.1-.1.2-.3.2-.5zm1.5-2.7V20c0 .3-.1.6-.3.8-.2.2-.5.3-.8.3H3.2c-.3 0-.6-.1-.8-.3-.3-.1-.4-.4-.4-.7v-3.8c0-.3.1-.6.3-.8s.5-.3.8-.3h5.6l1.6 1.6c.5.4 1 .7 1.6.7s1.2-.2 1.6-.7l1.6-1.6h5.6c.3 0 .6.1.8.3.4.1.5.4.5.7zm-3.9-6.8c.1.3.1.6-.2.8l-5.4 5.4c-.1.2-.3.2-.5.2s-.4-.1-.5-.2l-5.4-5.4c-.3-.2-.3-.5-.2-.8.1-.3.4-.5.7-.5h3.1V3.5c0-.2.1-.4.2-.5.2-.2.3-.2.5-.2h3.1c.2 0 .4.1.5.2.2.2.2.3.2.5v5.4h3.1c.4 0 .7.2.8.5z"/></svg>