<?xml version="1.0" encoding="utf-8"?>
<!-- Generator: Adobe Illustrator 19.2.1, SVG Export Plug-In . SVG Version: 6.00 Build 0)  -->
<svg version="1.1" id="Layer_1" xmlns="http://www.w3.org/2000/svg" xmlns:xlink="http://www.w3.org/1999/xlink" x="0px" y="0px"
	 viewBox="0 0 24 24" enable-background="new 0 0 24 24" xml:space="preserve">
<path d="M17.9,21.5c-0.1,0-0.1,0-0.2,0l-5.7-3l-5.7,3c-0.1,0.1-0.3,0.1-0.4,0c-0.1-0.1-0.2-0.3-0.2-0.4l1.1-6.4l-4.6-4.5
	C2,10,2,9.9,2,9.7s0.2-0.3,0.3-0.3l6.4-0.9l2.9-5.8c0.1-0.1,0.2-0.2,0.4-0.2c0.2,0,0.3,0.1,0.4,0.2l2.9,5.8l6.4,0.9
	c0.2,0,0.3,0.1,0.3,0.3s0,0.3-0.1,0.4l-4.6,4.5l1.1,6.4c0,0.2,0,0.3-0.2,0.4C18.1,21.5,18,21.5,17.9,21.5z M12,17.6
	c0.1,0,0.1,0,0.2,0l5.2,2.7l-1-5.8c0-0.1,0-0.3,0.1-0.4l4.2-4.1l-5.8-0.8c-0.1,0-0.3-0.1-0.3-0.2L12,3.8L9.4,9.1
	C9.3,9.2,9.2,9.3,9.1,9.3l-5.8,0.8l4.2,4.1c0.1,0.1,0.1,0.2,0.1,0.4l-1,5.8l5.2-2.7C11.9,17.6,11.9,17.6,12,17.6z"/>
</svg>
