<?xml version="1.0" encoding="utf-8"?>
<!-- Generator: Adobe Illustrator 19.2.1, SVG Export Plug-In . SVG Version: 6.00 Build 0)  -->
<svg version="1.1" id="Layer_1" xmlns="http://www.w3.org/2000/svg" xmlns:xlink="http://www.w3.org/1999/xlink" x="0px" y="0px"
	 viewBox="0 0 24 24" enable-background="new 0 0 24 24" xml:space="preserve">
<path d="M19.9,4.5C20.1,4.8,20,5,19.8,5.3l-5.6,5.6v8.4c0,0.3-0.2,0.6-0.5,0.6C13.6,20,13.5,20,13.4,20c-0.2,0-0.4-0.1-0.5-0.2
	l-2.9-2.9c-0.2-0.2-0.2-0.3-0.2-0.5v-5.5L4.2,5.3C4,5,3.9,4.8,4.1,4.5C4.2,4.2,4.4,4,4.7,4h14.6C19.6,4,19.8,4.2,19.9,4.5z"/>
</svg>
