<?xml version="1.0" encoding="utf-8"?>
<!-- Generator: Adobe Illustrator 19.2.1, SVG Export Plug-In . SVG Version: 6.00 Build 0)  -->
<svg version="1.1" id="Layer_1" xmlns="http://www.w3.org/2000/svg" xmlns:xlink="http://www.w3.org/1999/xlink" x="0px" y="0px"
	 viewBox="0 0 24 24" enable-background="new 0 0 24 24" xml:space="preserve">
	<path d="M17.9,9.2h-2V8.2c0.9-0.7,1.7-1.7,2-2.8h-2V4.7c0-1.5-1.2-2.7-2.7-2.7h-2.5C9.3,2,8.1,3.2,8.1,4.7v0.7h-2
		c0.4,1.1,1.1,2.1,2,2.8v1.1h-2c0.4,1.1,1.1,2.1,2,2.8v1.1h-2c0.4,1.1,1.1,2.1,2,2.8v2.2c0,1.5,1.2,2.7,2.7,2.7h0.4V22h1.7v-1.3h0.4
		c1.5,0,2.7-1.2,2.7-2.7v-2.2c0.9-0.7,1.7-1.7,2-2.8h-2V12C16.9,11.3,17.6,10.4,17.9,9.2z M12,18.7c-1.1,0-1.9-0.9-1.9-1.9
		c0-1.1,0.9-1.9,1.9-1.9c1.1,0,1.9,0.9,1.9,1.9C13.9,17.8,13.1,18.7,12,18.7z M12,13.3c-1.1,0-1.9-0.9-1.9-1.9
		c0-1.1,0.9-1.9,1.9-1.9c1.1,0,1.9,0.9,1.9,1.9C13.9,12.4,13.1,13.3,12,13.3z M12,7.9c-1.1,0-1.9-0.9-1.9-1.9C10.1,4.9,10.9,4,12,4
		c1.1,0,1.9,0.9,1.9,1.9C13.9,7.1,13.1,7.9,12,7.9z"/>
</svg>
