<?xml version="1.0" encoding="utf-8"?>
<!-- Generator: Adobe Illustrator 19.2.1, SVG Export Plug-In . SVG Version: 6.00 Build 0)  -->
<svg version="1.1" id="Layer_1" xmlns:sketch="http://www.bohemiancoding.com/sketch/ns"
	 xmlns="http://www.w3.org/2000/svg" xmlns:xlink="http://www.w3.org/1999/xlink" x="0px" y="0px" viewBox="0 0 24 24"
	 style="enable-background:new 0 0 24 24;" xml:space="preserve">
<path d="M20.4,5.6H3.6C2.7,5.6,2,6.3,2,7.2v9.6c0,0.9,0.7,1.6,1.6,1.6h16.8c0.9,0,1.6-0.7,1.6-1.6V7.2C22,6.3,21.3,5.6,20.4,5.6z
	 M20,6.4l-8,7l-8-7H20z M3.1,17.4c-0.2-0.1-0.3-0.4-0.3-0.6V7.2c0-0.2,0.1-0.4,0.3-0.6L9.2,12L3.1,17.4z M4,17.6l5.8-5.1l2.2,1.9
	l2.2-1.9l5.8,5.1H4z M21.2,16.8c0,0.2-0.1,0.4-0.3,0.6L14.8,12l6.2-5.4c0.2,0.1,0.3,0.4,0.3,0.6V16.8z"/>
</svg>
