<?xml version="1.0" encoding="utf-8"?>
<!-- Generator: Adobe Illustrator 19.2.1, SVG Export Plug-In . SVG Version: 6.00 Build 0)  -->
<svg version="1.1" id="Layer_1" xmlns="http://www.w3.org/2000/svg" xmlns:xlink="http://www.w3.org/1999/xlink" x="0px" y="0px"
	 viewBox="0 0 24 24" style="enable-background:new 0 0 24 24;" xml:space="preserve">
<path d="M20,1c-1.2,0-2.2,0.7-2.7,1.7c-2.8-0.2-6.8,0-8.2,2.3C8,6.7,8.7,9.3,11.2,12.6c1.9,2.5,2.6,4.5,2,5.5
	c-0.8,1.3-3.7,1.5-6.3,1.3C6.6,18,5.4,17,4,17c-1.7,0-3,1.3-3,3s1.3,3,3,3c1.2,0,2.2-0.7,2.7-1.6c0.6,0,1.2,0.1,1.8,0.1
	c2.5,0,5.2-0.5,6.4-2.3c1.1-1.8,0.5-4.4-2.1-7.8c-1.9-2.5-2.6-4.4-2-5.4c0.8-1.3,3.7-1.5,6.2-1.3C17.4,6,18.6,7,20,7
	c1.7,0,3-1.3,3-3S21.7,1,20,1z"/>
</svg>
