<?xml version="1.0" encoding="utf-8"?>
<!-- Generator: Adobe Illustrator 19.2.1, SVG Export Plug-In . SVG Version: 6.00 Build 0)  -->
<svg version="1.1" id="Layer_1" xmlns="http://www.w3.org/2000/svg" xmlns:xlink="http://www.w3.org/1999/xlink" x="0px" y="0px"
	 viewBox="0 0 24 24" style="enable-background:new 0 0 24 24;" xml:space="preserve">
<path d="M21,9c0,3.8-7,14-7,14S7,12.8,7,9s3.1-7,7-7S21,5.1,21,9z M14,12c2.2,0,4-1.9,4-4.1S16.2,4,14,4s-4,1.8-4,3.9S11.8,12,14,12
	z"/>
<polygon points="9,20 6,20 6,23 4,23 4,20 1,20 1,18 4,18 4,15 6,15 6,18 9,18 "/>
</svg>
