<!--Generator: Adobe Illustrator 19.2.1, SVG Export Plug-In . SVG Version: 6.00 Build 0)--><svg xmlns="http://www.w3.org/2000/svg" viewBox="0 0 24 24"><path d="M15.3 18.3v-2.1c0-.1 0-.2-.1-.3s-.2-.1-.3-.1h-1.3V9.1c0-.1 0-.2-.1-.3s-.2-.1-.3-.1H9.1c-.1 0-.2 0-.3.1s-.1.2-.1.3v2.1c0 .1 0 .2.1.3s.2.1.3.1h1.3v4.2H9.1c-.1 0-.2 0-.3.1s-.1.1-.1.3v2.1c0 .1 0 .2.1.3s.2.1.3.1h5.8c.1 0 .2 0 .3-.1s.1-.2.1-.3zM13.7 6.6V4.5c0-.1 0-.2-.1-.3s-.2-.1-.3-.1h-2.5c-.1 0-.2 0-.3.1s-.1.2-.1.3v2.1c0 .1 0 .2.1.3s.1.1.3.1h2.5c.1 0 .2 0 .3-.1s.1-.2.1-.3zM22 12c0 1.8-.4 3.5-1.3 5s-2.1 2.7-3.6 3.6c-1.5.9-3.2 1.3-5 1.3s-3.5-.4-5-1.3-2.7-2.1-3.6-3.6S2 13.8 2 12s.4-3.5 1.3-5S5.4 4.2 7 3.3 10.2 2 12 2s3.5.4 5 1.3 2.7 2.1 3.6 3.6c1 1.6 1.4 3.3 1.4 5.1z"/></svg>