<!--Generator: Adobe Illustrator 19.2.1, SVG Export Plug-In . SVG Version: 6.00 Build 0)--><svg xmlns="http://www.w3.org/2000/svg" viewBox="0 0 24 24"><path d="M6.3 14.1c0-.4-.1-.7-.4-1s-.6-.4-1-.4-.7.1-1 .4-.4.6-.4 1 .1.7.4 1c.3.3.6.4 1 .4s.7-.1 1-.4c.2-.2.4-.6.4-1zm2.1-5c0-.4-.1-.7-.4-1-.3-.2-.6-.4-1-.4s-.7.2-1 .4c-.3.3-.4.6-.4 1s.1.7.4 1c.3.3.6.4 1 .4s.7-.1 1-.4c.3-.2.4-.6.4-1zm4.8 5.4l1.1-4.3c0-.2 0-.4-.1-.5s-.2-.3-.4-.3c-.2-.1-.4 0-.5.1-.2.1-.3.2-.3.4l-1.1 4.3c-.4 0-.8.2-1.2.5-.3.3-.6.7-.7 1.1-.1.6-.1 1.1.2 1.6s.7.8 1.3 1c.6.1 1.1.1 1.6-.2.5-.3.8-.7 1-1.3.1-.4.1-.9-.1-1.3-.2-.5-.4-.8-.8-1.1zm7.4-.4c0-.4-.1-.7-.4-1s-.6-.4-1-.4-.7.1-1 .4c-.3.3-.4.6-.4 1s.1.7.4 1c.3.3.6.4 1 .4s.7-.1 1-.4c.2-.2.4-.6.4-1zM13.4 7c0-.4-.1-.7-.4-1s-.6-.4-1-.4-.7.1-1 .4-.4.6-.4 1 .1.7.4 1c.3.3.6.4 1 .4s.7-.1 1-.4c.3-.3.4-.6.4-1zm5 2.1c0-.4-.1-.7-.4-1-.3-.3-.6-.4-1-.4s-.7.1-1 .4c-.3.3-.4.6-.4 1s.1.7.4 1c.3.3.6.4 1 .4s.7-.1 1-.4c.3-.2.4-.6.4-1zm3.6 5c0 1.9-.5 3.7-1.6 5.4-.1.2-.3.3-.6.3H4.2c-.3 0-.5-.1-.6-.3-1-1.6-1.6-3.4-1.6-5.4 0-1.4.3-2.6.8-3.9S4 8 4.9 7.1s2-1.6 3.2-2.1 2.5-.8 3.9-.8 2.6.3 3.9.8 2.3 1.2 3.2 2.1 1.6 2 2.1 3.2.8 2.5.8 3.8z"/></svg>