<?xml version="1.0" encoding="utf-8"?>
<!-- Generator: Adobe Illustrator 21.1.0, SVG Export Plug-In . SVG Version: 6.00 Build 0)  -->
<svg version="1.1" id="Layer_1" xmlns="http://www.w3.org/2000/svg" xmlns:xlink="http://www.w3.org/1999/xlink" x="0px" y="0px"
	 viewBox="0 0 24 24" style="enable-background:new 0 0 24 24;" xml:space="preserve">
<g>
	<g>
		<path d="M12,5.3C5.4,5.3,2,12,2,12s2.6,6.7,10,6.7c6.7,0,10-6.6,10-6.6S18.7,5.3,12,5.3z M12,16.2c-2.4,0-4.2-1.8-4.2-4.2
			c0-2.3,1.7-4.2,4.2-4.2s4.2,1.8,4.2,4.2C16.2,14.3,14.4,16.2,12,16.2z M12,9.5c-1.4,0-2.5,1.2-2.5,2.5c0,1.3,1.1,2.5,2.5,2.5
			s2.5-1.2,2.5-2.5C14.5,10.7,13.4,9.5,12,9.5z"/>
	</g>
</g>
</svg>
