<!--Generator: Adobe Illustrator 19.2.1, SVG Export Plug-In . SVG Version: 6.00 Build 0)--><svg xmlns="http://www.w3.org/2000/svg" viewBox="0 0 24 24"><path d="M15.3 12c0 .9-.3 1.7-1 2.4s-1.4 1-2.4 1-1.7-.3-2.4-1-1-1.4-1-2.4.3-1.7 1-2.4 1.4-1 2.4-1 1.7.3 2.4 1 1 1.5 1 2.4zm1.7 0c0-1.4-.5-2.6-1.5-3.5S13.4 7 12 7s-2.6.5-3.5 1.5S7 10.6 7 12s.5 2.6 1.5 3.5S10.6 17 12 17s2.6-.5 3.5-1.5S17 13.4 17 12zm1.7 0c0 1.8-.7 3.4-2 4.7s-2.9 2-4.7 2-3.4-.7-4.7-2-2-2.9-2-4.7.7-3.4 2-4.7 2.9-2 4.7-2 3.4.7 4.7 2 2 2.9 2 4.7zm1.6 0c0-1.1-.2-2.2-.7-3.2-.4-1-1-1.9-1.8-2.7s-1.6-1.3-2.7-1.8-2-.6-3.1-.6-2.2.2-3.2.6-1.9 1-2.7 1.8-1.3 1.6-1.8 2.7-.6 2.1-.6 3.2.2 2.2.7 3.2 1 1.9 1.8 2.7 1.6 1.3 2.7 1.8c1 .4 2.1.7 3.2.7s2.2-.2 3.2-.7c1-.4 1.9-1 2.7-1.8s1.3-1.6 1.8-2.7c.3-1 .5-2.1.5-3.2zm1.7 0c0 1.8-.4 3.5-1.3 5s-2.1 2.7-3.6 3.6c-1.5.9-3.2 1.3-5 1.3s-3.5-.4-5-1.3-2.7-2.1-3.6-3.6S2 13.8 2 12s.4-3.5 1.3-5S5.4 4.2 7 3.3 10.2 2 12 2s3.5.4 5 1.3 2.7 2.1 3.6 3.6c1 1.6 1.4 3.3 1.4 5.1z"/></svg>