<?xml version="1.0" encoding="utf-8"?>
<!-- Generator: Adobe Illustrator 19.2.1, SVG Export Plug-In . SVG Version: 6.00 Build 0)  -->
<svg version="1.1" id="Layer_1" xmlns="http://www.w3.org/2000/svg" xmlns:xlink="http://www.w3.org/1999/xlink" x="0px" y="0px"
	 viewBox="0 0 24 24" style="enable-background:new 0 0 24 24;" xml:space="preserve">
<path d="M9,7c0-0.6-0.2-1.1-0.6-1.4C8.1,5.2,7.6,5,7,5S6.1,5.2,5.6,5.6C5.2,6.1,5,6.5,5,7s0.2,1.1,0.6,1.4C5.9,8.8,6.4,9,7,9
	s1.1-0.2,1.4-0.6C8.8,8.1,9,7.6,9,7z M21,13.6c0,0.4-0.2,0.8-0.5,1.1l-5.8,5.8c-0.3,0.3-0.6,0.5-1.1,0.5c-0.4,0-0.8-0.2-1.1-0.5
	L4.1,12c-0.3-0.3-0.5-0.7-0.8-1.2C3.1,10.4,3,9.8,3,9.5v-5c0-0.4,0.2-0.8,0.5-1.1S4.1,3,4.5,3h4.9c0.4,0,0.9,0.1,1.4,0.3
	c0.5,0.2,0.9,0.5,1.2,0.8l8.5,8.5C20.8,12.9,21,13.3,21,13.6z"/>
</svg>
