<?xml version="1.0" encoding="utf-8"?>
<!-- Generator: Adobe Illustrator 19.2.1, SVG Export Plug-In . SVG Version: 6.00 Build 0)  -->
<svg version="1.1" id="Layer_1" xmlns="http://www.w3.org/2000/svg" xmlns:xlink="http://www.w3.org/1999/xlink" x="0px" y="0px"
	 viewBox="0 0 24 24" enable-background="new 0 0 24 24" xml:space="preserve">
<path d="M8.8,11.1h6.5V8.7c0-0.9-0.4-1.7-1-2.3c-0.6-0.6-1.4-1-2.3-1c-0.9,0-1.7,0.4-2.3,1C9,7,8.8,7.8,8.8,8.7
	C8.8,8.7,8.8,11.1,8.8,11.1z M19.3,12.4v7.3c0,0.4-0.1,0.6-0.4,0.9c-0.3,0.3-0.5,0.4-0.9,0.4H5.9c-0.4,0-0.6-0.1-0.9-0.4
	c-0.3-0.3-0.4-0.5-0.4-0.9v-7.3c0-0.4,0.1-0.6,0.4-0.9c0.3-0.3,0.5-0.4,0.9-0.4h0.4V8.7c0-1.5,0.5-2.9,1.7-4S10.5,3,12,3
	s2.9,0.5,4,1.7s1.7,2.4,1.7,4v2.4h0.4c0.4,0,0.6,0.1,0.9,0.4C19.2,11.8,19.3,12,19.3,12.4z"/>
</svg>
