<?xml version="1.0" encoding="utf-8"?>
<!-- Generator: Adobe Illustrator 21.1.0, SVG Export Plug-In . SVG Version: 6.00 Build 0)  -->
<svg version="1.1" id="Layer_1" xmlns="http://www.w3.org/2000/svg" xmlns:xlink="http://www.w3.org/1999/xlink" x="0px" y="0px"
	 viewBox="0 0 24 24" style="enable-background:new 0 0 24 24;" xml:space="preserve">
<circle cx="12" cy="12" r="8"/>
<g>
	<path class="svg-icon__fill-white" d="M10.9,6.3c0.3,1.4,0.5,2.7,0.8,4.2c0,0.1,0.2,0.2,0.3,0.3c0.1-0.1,0.3-0.2,0.3-0.3c0.3-1.3,0.5-2.7,0.8-4.1
		C12.3,6.3,11.7,6.3,10.9,6.3z"/>
	<path class="svg-icon__fill-white" d="M9,7c-0.5,0.5-1.1,1-1.6,1.5c1.2,0.9,2.2,1.8,3.2,2.5c0.1,0.1,0.3,0.1,0.5,0.1c0-0.2,0.1-0.4,0-0.5C10.4,9.4,9.7,8.3,9,7z"
		/>
	<path class="svg-icon__fill-white" d="M16.7,8.5c-0.5-0.5-1.1-1-1.6-1.5c-0.8,1.3-1.4,2.5-2.1,3.6c-0.1,0.1,0,0.3,0,0.5c0.1,0,0.3,0.1,0.5-0.1
		C14.5,10.2,15.5,9.4,16.7,8.5z"/>
	<path class="svg-icon__fill-white" d="M17.5,9.9c-1.4,0.5-2.8,1.1-4.2,1.6c0,0.1,0.1,0.2,0.1,0.3c1.4,0,2.8,0,4.5,0C17.7,11.2,17.6,10.7,17.5,9.9z"/>
	<path class="svg-icon__fill-white" d="M6.2,11.9c1.6,0,3.1,0,4.5,0c0-0.1,0.1-0.2,0.1-0.3c-1.4-0.5-2.7-1-4.2-1.6C6.4,10.7,6.2,11.2,6.2,11.9z"/>
</g>
</svg>
