<?xml version="1.0" encoding="utf-8"?>
<!-- Generator: Adobe Illustrator 21.1.0, SVG Export Plug-In . SVG Version: 6.00 Build 0)  -->
<svg version="1.1" id="Layer_1" xmlns="http://www.w3.org/2000/svg" xmlns:xlink="http://www.w3.org/1999/xlink" x="0px" y="0px"
	 viewBox="0 0 24 24" style="enable-background:new 0 0 24 24;" xml:space="preserve">
<circle cx="12" cy="12" r="8"/>
<g>
	<path class="svg-icon__fill-white" d="M14.6,16.3L14.6,16.3c-0.3-0.1-0.3-0.3-0.3-0.7l1.5-4.1c0.1-0.3,0.3-0.3,0.7-0.3l0,0c0.3,0.1,0.3,0.3,0.3,0.7l-1.5,4.2
		C15.2,16.3,15,16.5,14.6,16.3z"/>
	<path class="svg-icon__fill-white" d="M11,15.8L11,15.8c0-0.3,0.2-0.5,0.5-0.5H15c0.3,0,0.5,0.2,0.5,0.5l0,0c0,0.3-0.2,0.5-0.5,0.5h-3.4
		C11.2,16.4,11,16.2,11,15.8z"/>
	<path class="svg-icon__fill-white" d="M12.8,14.5L12.8,14.5c-0.5-0.1-1-0.8-0.8-1.3l0.8-2.7c0.1-0.5,0.8-1,1.3-0.8l0,0c0.5,0.1,1,0.8,0.8,1.3l-0.8,2.7
		C14,14.3,13.4,14.7,12.8,14.5z"/>
	<path class="svg-icon__fill-white" d="M7.3,16.2L7.3,16.2c-0.3-0.3-0.3-1,0-1.3l2.2-2.2c0.3-0.3,1-0.3,1.3,0l0,0c0.3,0.3,0.3,1,0,1.3l-2.2,2.2
		C8.3,16.5,7.7,16.5,7.3,16.2z"/>
	<path class="svg-icon__fill-white" d="M9.3,13.4L9.3,13.4c0-0.5,0.5-1.1,1.1-1.1h2.7c0.5,0,1.1,0.5,1.1,1.1l0,0c0,0.5-0.5,1.1-1.1,1.1h-2.7
		C9.7,14.5,9.3,14.1,9.3,13.4z"/>
	<circle class="svg-icon__fill-white" cx="14.3" cy="8.5" r="1"/>
</g>
</svg>
