<?xml version="1.0" encoding="utf-8"?>
<!-- Generator: Adobe Illustrator 22.1.0, SVG Export Plug-In . SVG Version: 6.00 Build 0)  -->
<svg version="1.1" id="Layer_1" xmlns="http://www.w3.org/2000/svg" xmlns:xlink="http://www.w3.org/1999/xlink" x="0px" y="0px"
	 viewBox="0 0 24 24" style="enable-background:new 0 0 24 24;" xml:space="preserve">
<path d="M18.3,6.5c-0.3-0.7-0.8-1.2-1.4-1.6c-0.6-0.4-1.2-0.6-2-0.8C14.3,4,13.6,4,12.5,4H6.8C6.6,4,6.4,4.2,6.4,4.4v15.2
	c0,0.2,0.2,0.4,0.4,0.4h2c0.2,0,0.4-0.2,0.4-0.4v-5.8h3.5c2.3,0,3.8-0.5,4.8-1.5c0.9-1,1.3-2.2,1.3-3.6C18.8,8,18.6,7.2,18.3,6.5
	L18.3,6.5z M12.7,11.2H9.2V6.6h3.5c1.1,0,1.6,0.1,1.8,0.1c0.4,0.1,0.8,0.4,1,0.7c0.3,0.4,0.4,0.8,0.4,1.4c0,0.8-0.2,1.3-0.7,1.7
	C14.7,11,13.9,11.2,12.7,11.2L12.7,11.2z"/>
</svg>
