<?xml version="1.0" encoding="utf-8"?>
<!-- Generator: Adobe Illustrator 19.2.1, SVG Export Plug-In . SVG Version: 6.00 Build 0)  -->
<svg version="1.1" id="Layer_1" xmlns="http://www.w3.org/2000/svg" xmlns:xlink="http://www.w3.org/1999/xlink" x="0px" y="0px"
	 viewBox="0 0 24 24" style="enable-background:new 0 0 24 24;" xml:space="preserve">
<path d="M11.2,16h1.6v-0.8h0.8c0.4,0,0.8-0.4,0.8-0.8V12c0-0.4-0.4-0.8-0.8-0.8h-2.4v-0.8h3.2V8.8h-1.6V8h-1.6v0.8h-0.8
	c-0.4,0-0.8,0.4-0.8,0.8V12c0,0.4,0.4,0.8,0.8,0.8h2.4v0.8H9.6v1.6h1.6V16z M18.4,5.6H5.6C4.7,5.6,4,6.3,4,7.2l0,9.6
	c0,0.9,0.7,1.6,1.6,1.6h12.8c0.9,0,1.6-0.7,1.6-1.6V7.2C20,6.3,19.3,5.6,18.4,5.6z M18.4,16.8H5.6V7.2h12.8V16.8z"/>
</svg>
