<?xml version="1.0" encoding="utf-8"?>
<!-- Generator: Adobe Illustrator 21.1.0, SVG Export Plug-In . SVG Version: 6.00 Build 0)  -->
<svg version="1.1" id="Layer_1" xmlns="http://www.w3.org/2000/svg" xmlns:xlink="http://www.w3.org/1999/xlink" x="0px" y="0px"
	 viewBox="0 0 24 24" style="enable-background:new 0 0 24 24;" xml:space="preserve">
<circle cx="12" cy="12" r="8"/>
<g>
	<path class="svg-icon__fill-white" d="M12.3,11.5c1.8,0.3,1.9,1.4,1.6,2.6c-0.1,1.1,0.2,1.6,1.2,2.1c0.4,0.1,0.9,0.4,1.3,0.8c-0.1,0.1-0.1,0.2-0.1,0.3
		c-0.3-0.1-0.5-0.1-0.9-0.3c-1.6-0.8-3.4-1.5-5.2-2.4c-0.7-0.4-1.4-0.5-2.2-0.1c-0.3,0.1-0.7,0.1-1.2,0.3c0.3-0.5,0.7-0.9,0.9-1.2
		c-0.3-0.2-0.5-0.4-0.8-0.7c0-0.1,0.1-0.1,0.1-0.2c0.4,0.1,0.8,0.2,1.1,0.3c0.3,0.1,0.8,0.2,1.2,0.1c1.2-0.1,1.1-0.2,0.9-1.3
		c-0.1-0.3,0.1-0.8,0.3-1.1s0.5-0.5,0.8-0.7c-1-0.8-1.8-1.4-2.6-2.1C9.3,7.7,9.6,7.5,10,7.4c0.2,1,1,1.8,2,1.6
		c1.1-0.1,2,0.3,2.8,0.9c0.7,0.3,1.2,0.8,1.9,1.1c-0.4,0.5-0.5,0.5-1.4,0.1c-0.5-0.3-1.1-0.5-1.6-0.9C13.4,10.5,13,10.8,12.3,11.5z
		 M12.2,12.3c-0.5,0.5-1,1-1.4,1.5c0.8,0.3,1.4,0.7,2.3,1.1C13.3,12.8,13.3,12.8,12.2,12.3z"/>
	<circle class="svg-icon__fill-white" cx="14.3" cy="7.8" r="1"/>
</g>
</svg>
