<?xml version="1.0" encoding="utf-8"?>
<!-- Generator: Adobe Illustrator 19.2.1, SVG Export Plug-In . SVG Version: 6.00 Build 0)  -->
<svg version="1.1" id="Layer_1" xmlns="http://www.w3.org/2000/svg" xmlns:xlink="http://www.w3.org/1999/xlink" x="0px" y="0px"
	 viewBox="0 0 24 24" style="enable-background:new 0 0 24 24;" xml:space="preserve">
<path d="M5.3,15.3c0,0.7,0.3,1.4,0.8,1.9v1.5c0,0.5,0.4,0.8,0.8,0.8h0.8c0.5,0,0.8-0.4,0.8-0.8v-0.8h6.7v0.8c0,0.5,0.4,0.8,0.8,0.8
	h0.8c0.5,0,0.8-0.4,0.8-0.8v-1.5c0.5-0.5,0.8-1.1,0.8-1.9V6.9c0-2.9-3-3.4-6.7-3.4S5.3,3.9,5.3,6.9V15.3z M8.2,16.1
	c-0.7,0-1.3-0.6-1.3-1.3s0.6-1.3,1.3-1.3s1.3,0.6,1.3,1.3S8.9,16.1,8.2,16.1z M15.8,16.1c-0.7,0-1.3-0.6-1.3-1.3s0.6-1.3,1.3-1.3
	s1.3,0.6,1.3,1.3S16.5,16.1,15.8,16.1z M17.1,11.1H6.9V6.9h10.1V11.1z"/>
</svg>
