<?xml version="1.0" encoding="utf-8"?>
<svg height="512" viewBox="0 0 44 60" width="512" xmlns="http://www.w3.org/2000/svg">
	<g id="Page-1">
		<g id="029---Postbox" transform="translate(-1)">
			<g id="Icons" transform="translate(2,1)">
				<path id="Shape" d="M 17 0 h 8 c 5 0 9 4 9 9 v 1 h -26 v -1 c 0 -5 4 -9 9 -9 z"
					 />
				<path id="Shape"
					d="M 25 0 h -3 c 2.4 0 4.7 0.9 6.4 2.6 s 2.6 4 2.6 6.4 v 1 h 3 v -1 c 0 -5 -4 -9 -9 -9 z"
					 />
				<rect id="Rectangle-path"  height="4" rx="2" width="30" x="6" y="10" />
				<path id="Shape"
					d="M 34 10 h -3 c 1.1 0 2 0.9 2 2 s -0.9 2 -2 2 h 3 c 1.1 0 2 -0.9 2 -2 s -0.9 -2 -2 -2 z"
					/>
				<path id="Rectangle-path" d="M 8 14 h 26 v 39 h -26 z"  />
				<path id="Rectangle-path" d="M 31 14 h 3 v 39 h -3 z"  />
				<path id="Shape"
					d="M 41 58 h -40 c -0.3 0 -0.6 -0.2 -0.8 -0.4 c -0.2 -0.3 -0.2 -0.6 -0.1 -0.9 l 0.9 -2.4 c 0.3 -0.8 1 -1.3 1.9 -1.3 h 36.2 c 0.8 0 1.6 0.5 1.9 1.3 l 0.9 2.4 c 0.1 0.3 0.1 0.7 -0.1 0.9 s -0.5 0.4 -0.8 0.4 z"
					fill="white" />
				<path id="Shape"
					d="M 41.9 56.6 l -0.9 -2.4 c -0.3 -0.8 -1 -1.3 -1.9 -1.3 h -3 c 0.8 0 1.6 0.5 1.9 1.3 l 0.9 2.4 c 0.1 0.3 0.1 0.7 -0.1 0.9 s -0.5 0.4 -0.8 0.4 h 3 c 0.3 0 0.6 -0.2 0.8 -0.4 s 0.2 -0.6 0.1 -0.9 z"
					fill="white" />
				<rect id="Rectangle-path" fill="white" height="6" rx="1" width="18" x="12" y="18" />
				<path id="Shape"
					d="M 29 18 h -3 c 0.6 0 1 0.4 1 1 v 4 c 0 0.6 -0.4 1 -1 1 h 3 c 0.6 0 1 -0.4 1 -1 v -4 c 0 -0.6 -0.4 -1 -1 -1 z"
					fill="white" />
			</g>
			<g id="Icons_copy" fill="rgba(0, 0, 0, 1)">
				<path id="Shape"
					d="M 44.9 57.3 l -0.9 -2.4 c -0.5 -1.1 -1.6 -1.9 -2.8 -1.9 h -4.1 v -37.2 c 1.2 -0.4 2 -1.6 2 -2.8 s -0.8 -2.4 -2 -2.8 v -0.2 c 0 -5.5 -4.5 -10 -10 -10 h -8 c -5.5 0 -10 4.5 -10 10 v 0.2 c -1.2 0.4 -2 1.6 -2 2.8 s 0.8 2.4 2 2.8 v 37.2 h -4.1 c -1.2 0 -2.3 0.7 -2.8 1.9 l -0.9 2.4 c -0.2 0.6 -0.2 1.3 0.2 1.9 c 0.4 0.5 1 0.9 1.7 0.9 h 40 c 0.7 0 1.3 -0.3 1.7 -0.9 c 0.4 -0.5 0.4 -1.2 0.2 -1.9 z m -25.9 -55.3 h 8 c 4.4 0 8 3.6 8 8 h -24 c 0 -4.4 3.6 -8 8 -8 z m -9 10 h 26 c 0.6 0 1 0.4 1 1 s -0.4 1 -1 1 h -26 c -0.6 0 -1 -0.4 -1 -1 s 0.4 -1 1 -1 z m 25 4 v 37 h -24 v -37 z m -32 42 l 0.9 -2.4 c 0.2 -0.4 0.5 -0.6 0.9 -0.6 h 36.2 c 0.4 0 0.8 0.2 0.9 0.6 l 0.9 2.4 z" />
				<path id="Shape"
					d="M 31 18 h -16 c -1.1 0 -2 0.9 -2 2 v 4 c 0 1.1 0.9 2 2 2 h 16 c 1.1 0 2 -0.9 2 -2 v -4 c 0 -1.1 -0.9 -2 -2 -2 z m 0 6 h -16 v -4 h 16 z" />
				<path id="Shape"
					d="M 31 28 h -16 c -1.1 0 -2 0.9 -2 2 v 18 c 0 1.1 0.9 2 2 2 h 16 c 1.1 0 2 -0.9 2 -2 v -18 c 0 -1.1 -0.9 -2 -2 -2 z m 0 20 h -16 v -18 h 16 z" />
			</g>
		</g>
	</g>
</svg>