<?xml version="1.0" encoding="utf-8"?>
<!-- Generator: Adobe Illustrator 19.2.1, SVG Export Plug-In . SVG Version: 6.00 Build 0)  -->
<svg version="1.1" id="Layer_1" xmlns="http://www.w3.org/2000/svg" xmlns:xlink="http://www.w3.org/1999/xlink" x="0px" y="0px"
	 viewBox="0 0 24 24" style="enable-background:new 0 0 24 24;" xml:space="preserve">
<path d="M18.9,7.8L18.9,7.8l-3.3-3.3l-0.9,0.9l1.9,1.9c-0.8,0.3-1.4,1.1-1.4,2.1c0,1.2,1,2.2,2.2,2.2c0.3,0,0.6-0.1,0.9-0.2v6.4
	c0,0.5-0.4,0.9-0.9,0.9s-0.9-0.4-0.9-0.9v-4c0-1-0.8-1.8-1.8-1.8h-0.9V5.8C13.8,4.8,13,4,12,4H6.7c-1,0-1.8,0.8-1.8,1.8V20h8.9v-6.7
	h1.3v4.4c0,1.2,1,2.2,2.2,2.2s2.2-1,2.2-2.2V9.3C19.6,8.7,19.3,8.2,18.9,7.8z M12,10.2H6.7V5.8H12V10.2z M17.4,10.2
	c-0.5,0-0.9-0.4-0.9-0.9c0-0.5,0.4-0.9,0.9-0.9s0.9,0.4,0.9,0.9C18.3,9.8,17.8,10.2,17.4,10.2z"/>
</svg>
