<?xml version="1.0" encoding="utf-8"?>
<!-- Generator: Adobe Illustrator 21.1.0, SVG Export Plug-In . SVG Version: 6.00 Build 0)  -->
<svg version="1.1" id="Layer_1" xmlns="http://www.w3.org/2000/svg" xmlns:xlink="http://www.w3.org/1999/xlink" x="0px" y="0px"
	 viewBox="0 0 24 24" style="enable-background:new 0 0 24 24;" xml:space="preserve">
<circle cx="12" cy="12" r="8"/>
<path class="svg-icon__fill-white" d="M14.5,7.3v0.8h-0.8V7.3h-3.6v0.8H9.5V7.3H7.9v9.5h1.4v-0.8h0.8v0.8h3.6v-0.8h0.8v0.8h1.4V7.3H14.5z M10.1,14.5H9.5v-0.8h0.8
	v0.8H10.1z M10.1,12.3H9.5v-0.8h0.8v0.8H10.1z M10.1,10.1H9.5V9.5h0.8v0.7H10.1z M14.5,14.5h-0.8v-0.8h0.8V14.5z M14.5,12.3h-0.8
	v-0.8h0.8V12.3z M14.5,10.1h-0.8V9.5h0.8V10.1z"/>
</svg>
