<?xml version="1.0" encoding="utf-8"?>
<!-- Generator: Adobe Illustrator 21.1.0, SVG Export Plug-In . SVG Version: 6.00 Build 0)  -->
<svg version="1.1" id="Layer_1" xmlns="http://www.w3.org/2000/svg" xmlns:xlink="http://www.w3.org/1999/xlink" x="0px" y="0px"
	 viewBox="0 0 24 24" style="enable-background:new 0 0 24 24;" xml:space="preserve">
<circle cx="12" cy="12" r="8"/>
<path class="svg-icon__fill-white" d="M14.5,10.6c-0.3,0.1-0.4,0.1-0.8,0.2c0.5,1.9,1,3.6,1.4,5.4c-0.5,0.2-1,0.1-1.2-0.3c-0.5-0.8-1.3-1.4-2-2.3
	c-0.8,0.8-1.3,1.5-2,2.3c-0.5,0.5-0.5,0.5-1.3,0.4c0.4-1.6,0.9-3.2,1.2-4.8c0.1-0.3,0.2-0.5-0.2-0.8c-0.1-0.1-0.1-0.7-0.1-1
	c0-1.3,0.1-1.2,1.2-1.8c1.2-0.5,2.3,0,3.4,0.3c0.1,0.1,0.3,0.3,0.3,0.5C14.5,9.4,14.5,10,14.5,10.6z M10.5,9.9c1.1,0,2.1,0,3.2,0
	c0-0.3,0-0.7,0-1c-1.1,0-2.1,0-3.2,0C10.5,9.2,10.5,9.5,10.5,9.9z M12.1,12.3c0.3-0.3,0.5-0.5,0.8-1c0.3-0.3,0.1-0.7-0.3-0.7
	c-0.5,0-1,0.1-1.5,0.2c0.3,0.3,0.5,0.8,0.8,1.2C11.9,12.2,11.9,12.2,12.1,12.3z M10.2,14.2c0.1,0,0.1,0.1,0.1,0.1
	c0.3-0.4,0.8-0.9,1.2-1.3c-0.3-0.3-0.5-0.5-0.8-0.9C10.6,12.9,10.4,13.5,10.2,14.2z M13.3,12.1c-0.3,0.3-0.5,0.7-0.8,0.9
	c0.3,0.4,0.8,0.9,1.1,1.3c0.1,0,0.1-0.1,0.1-0.1C13.6,13.5,13.4,12.9,13.3,12.1z"/>
</svg>
