<?xml version="1.0" encoding="utf-8"?>
<!-- Generator: Adobe Illustrator 19.2.1, SVG Export Plug-In . SVG Version: 6.00 Build 0)  -->
<svg version="1.1" id="Layer_1" xmlns="http://www.w3.org/2000/svg" xmlns:xlink="http://www.w3.org/1999/xlink" x="0px" y="0px"
	 viewBox="0 0 1024 1024" style="enable-background:new 0 0 24 24;" xml:space="preserve">
    <path d="M234.666667 490.666667h-153.6a25.6 25.6 0 1 0 0 51.2h153.6a25.6 25.6 0 1 0 0-51.2zM473.6 490.666667h-153.6a25.6 25.6 0 1 0 0 51.2h153.6a25.6 25.6 0 1 0 0-51.2zM934.4 490.666667h-136.533333a25.6 25.6 0 1 0 0 51.2h136.533333a25.6 25.6 0 1 0 0-51.2zM712.533333 490.666667h-153.6a25.6 25.6 0 1 0 0 51.2h153.6a25.6 25.6 0 1 0 0-51.2z"/>
</svg>