<?xml version="1.0" encoding="utf-8"?>
<!-- Generator: Adobe Illustrator 21.1.0, SVG Export Plug-In . SVG Version: 6.00 Build 0)  -->
<svg version="1.1" id="Layer_1" xmlns="http://www.w3.org/2000/svg" xmlns:xlink="http://www.w3.org/1999/xlink" x="0px" y="0px"
	 viewBox="0 0 24 24" style="enable-background:new 0 0 24 24;" xml:space="preserve">
<rect x="4" y="4" width="16" height="16"/>
<g>
	<path class="svg-icon__fill-white"  d="M10.6,13.2v2.9H8.9V8h3.2c0.6,0,1.1,0.1,1.7,0.3c0.4,0.2,0.8,0.5,1,0.9s0.4,0.8,0.4,1.4c0,0.8-0.3,1.4-0.8,1.9
		c-0.5,0.4-1.3,0.7-2.3,0.7H10.6z M10.6,11.8H12c0.4,0,0.8-0.1,1-0.3s0.3-0.5,0.3-0.9S13.2,9.8,13,9.6s-0.5-0.4-0.9-0.4h-1.5V11.8
		L10.6,11.8z"/>
</g>
</svg>
