<?xml version="1.0" encoding="utf-8"?>
<!-- Generator: Adobe Illustrator 21.1.0, SVG Export Plug-In . SVG Version: 6.00 Build 0)  -->
<svg version="1.1" id="Layer_1" xmlns="http://www.w3.org/2000/svg" xmlns:xlink="http://www.w3.org/1999/xlink" x="0px" y="0px"
	 viewBox="0 0 24 24" style="enable-background:new 0 0 24 24;" xml:space="preserve">
<circle cx="12" cy="12" r="8"/>
<g>
	<path class="svg-icon__fill-white" d="M16.7,12c0,2.5-2.1,4.7-4.7,4.7S7.3,14.6,7.3,12c0-2.5,2.1-4.7,4.7-4.7C14.6,7.3,16.7,9.5,16.7,12z M12.5,14.5
		c0-1.2,0-2.3,0-3.3c-0.4,0-0.8,0-1.2,0c0,1.1,0,2.2,0,3.3C11.8,14.5,12.1,14.5,12.5,14.5z M12.5,10.2c0-0.4,0-0.8,0-1.2
		c-0.4,0-0.8,0-1.2,0c0,0.4,0,0.8,0,1.2C11.9,10.2,12.1,10.2,12.5,10.2z"/>
	<path d="M12.5,14.5c-0.4,0-0.8,0-1.2,0c0-1.1,0-2.2,0-3.3c0.3,0,0.8,0,1.2,0C12.5,12.3,12.5,13.4,12.5,14.5z"/>
	<path d="M12.5,10.2c-0.4,0-0.8,0-1.2,0c0-0.3,0-0.8,0-1.2c0.3,0,0.8,0,1.2,0C12.5,9.5,12.5,9.8,12.5,10.2z"/>
</g>
</svg>
