<?xml version="1.0" encoding="utf-8"?>
<!-- Generator: Adobe Illustrator 21.1.0, SVG Export Plug-In . SVG Version: 6.00 Build 0)  -->
<svg version="1.1" id="Layer_1" xmlns="http://www.w3.org/2000/svg" xmlns:xlink="http://www.w3.org/1999/xlink" x="0px" y="0px"
	 viewBox="0 0 24 24" style="enable-background:new 0 0 24 24;" xml:space="preserve">
<circle cx="12" cy="12" r="8"/>
<path class="svg-icon__fill-white" d="M12,8.2c1.4,1.4,3,2.7,4.5,4.2c-0.5,0-0.9,0.1-1.4,0.1c0,1.2,0,2.3,0,3.5c-0.8,0-1.4,0-2.2,0c0-0.9,0-1.8,0-2.6
	c-0.7,0-1.2,0-1.9,0c0,0.9,0,1.8,0,2.7c-0.8,0-1.4,0-2.1,0c0-1.2,0-2.3,0-3.5c-0.4,0-0.9,0-1.5,0C9,10.8,10.6,9.5,12,8.2z"/>
</svg>
