<?xml version="1.0" encoding="utf-8"?>
<!-- Generator: Adobe Illustrator 21.1.0, SVG Export Plug-In . SVG Version: 6.00 Build 0)  -->
<svg version="1.1" id="Layer_1" xmlns="http://www.w3.org/2000/svg" xmlns:xlink="http://www.w3.org/1999/xlink" x="0px" y="0px"
	 viewBox="0 0 24 24" style="enable-background:new 0 0 24 24;" xml:space="preserve">
<circle class="svg-icon__fill-white" cx="12" cy="11.7" r="6.7"/>
<path d="M12,4c-4.4,0-8,3.6-8,8s3.6,8,8,8s8-3.6,8-8S16.4,4,12,4z M6.1,12c0-1.3,0.4-2.5,1.1-3.5l8.2,8.2c-1,0.7-2.2,1.1-3.5,1.1
	C8.8,17.9,6.1,15.2,6.1,12z M16.8,15.3L8.7,7.2c0.9-0.6,2.1-1,3.3-1c3.2,0,5.9,2.6,5.9,5.9C17.9,13.2,17.5,14.4,16.8,15.3z"/>
</svg>
