<?xml version="1.0" encoding="utf-8"?>
<!-- Generator: Adobe Illustrator 19.2.1, SVG Export Plug-In . SVG Version: 6.00 Build 0)  -->
<svg version="1.1" id="Layer_1" xmlns="http://www.w3.org/2000/svg" xmlns:xlink="http://www.w3.org/1999/xlink" x="0px" y="0px"
	 viewBox="0 0 24 24" style="enable-background:new 0 0 24 24;" xml:space="preserve">
<path d="M14.3,7.6c0.7,0,1.3-0.6,1.3-1.3s-0.6-1.3-1.3-1.3S13,5.5,13,6.3S13.6,7.6,14.3,7.6z M7.3,11.9c-1.9,0-3.3,1.5-3.3,3.3
	c0,1.9,1.5,3.3,3.3,3.3s3.3-1.5,3.3-3.3S9.2,11.9,7.3,11.9z M7.3,17.6c-1.3,0-2.3-1.1-2.3-2.3s1.1-2.3,2.3-2.3s2.3,1.1,2.3,2.3
	S8.6,17.6,7.3,17.6z M11.2,10.9l1.6-1.6l0.5,0.5c0.9,0.9,2,1.4,3.4,1.4V9.9c-1,0-1.8-0.4-2.4-1l-1.3-1.3c-0.3-0.3-0.7-0.4-1.1-0.4
	s-0.7,0.1-0.9,0.4L9.2,9.5c-0.3,0.3-0.4,0.6-0.4,0.9c0,0.4,0.1,0.7,0.4,0.9l2.1,1.9v3.3h1.3v-4.1L11.2,10.9z M16.7,11.9
	c-1.9,0-3.3,1.5-3.3,3.3c0,1.9,1.5,3.3,3.3,3.3s3.3-1.5,3.3-3.3S18.5,11.9,16.7,11.9z M16.7,17.6c-1.3,0-2.3-1.1-2.3-2.3
	s1.1-2.3,2.3-2.3S19,14,19,15.2S17.9,17.6,16.7,17.6z"/>
</svg>
