<svg width="24" height="24" xmlns="http://www.w3.org/2000/svg" enable-background="new 0 0 512 512">
 <g>
  <title>Layer 1</title>
  <g id="svg_6">
   <path stroke="null" id="svg_2" d="m18.78198,10.83011c-0.15567,0.31698 -0.32215,0.62921 -0.49651,0.93529c-0.07053,0.12383 -0.01884,0.28121 0.11069,0.34069c2.40622,1.10444 3.86557,2.72793 3.86557,4.43393c0,0.69112 -0.2358,1.3049 -0.56792,1.82677c-0.06849,0.10763 -0.04123,0.2502 0.06196,0.32516c0.276,0.20055 0.51759,0.44545 0.71458,0.72417c0.09711,0.13736 0.30175,0.13708 0.39784,-0.00107c1.97377,-2.8377 0.93792,-6.50754 -3.76524,-8.697c-0.1196,-0.05564 -0.26281,-0.00638 -0.32097,0.11206l0,-0.00001z"/>
   <path id="svg_3" d="m20.10011,19.71174c-0.75807,0 -1.38326,0.56718 -1.4755,1.30023c-0.0689,0.00869 -0.13775,0.02673 -0.20465,0.05588c-4.16076,1.81506 -10.20524,1.65607 -14.02509,-0.50767c-4.3291,-2.45388 -3.5761,-6.05132 0.80074,-8.05838c0.1239,-0.05681 0.1735,-0.20716 0.10604,-0.32557c-0.16648,-0.29228 -0.32543,-0.59038 -0.4741,-0.89307c-0.0556,-0.1132 -0.19251,-0.1602 -0.30683,-0.10693c-5.57117,2.59795 -6.11092,7.70278 -0.85899,10.67823c4.27708,2.42329 10.82877,2.55169 15.35331,0.57741c0.05132,-0.02241 0.09847,-0.05035 0.14184,-0.0821c0.95769,0.78619 2.43091,0.11441 2.43091,-1.15039c0,-0.82157 -0.66606,-1.48763 -1.48768,-1.48763l0,-0.00001z" stroke="null"/>
   <path id="svg_4" d="m7.10244,15.62109c0.05909,-0.02273 0.12013,-0.04528 0.18308,-0.06755c0.15091,-0.05342 0.2026,-0.24049 0.10172,-0.36481c-0.21664,-0.2669 -0.43487,-0.54621 -0.65132,-0.83668c-0.06304,-0.08457 -0.17503,-0.11683 -0.27304,-0.07787c-2.96169,1.17727 -2.88373,3.17675 -1.15263,4.33435c0.09066,0.06044 0.18968,0.09856 0.29056,0.1153c0.06569,0.77406 0.7251,1.37954 1.52073,1.35932c0.89242,-0.02264 1.56648,-0.84189 1.43119,-1.72427c-0.16676,-1.08777 -1.46653,-1.63012 -2.36569,-0.95072c-0.03998,-0.03291 -0.59182,-0.37508 -0.59182,-0.67178c0,-0.25802 0.46304,-0.71641 1.5072,-1.11529l0.00002,0z" stroke="null"/>
   <path id="svg_5" d="m19.72819,16.73639c0,-1.21906 -1.20349,-2.00414 -2.35509,-2.46206c-0.09823,-0.03905 -0.21013,-0.00693 -0.27327,0.07782c-0.21622,0.29014 -0.43459,0.56959 -0.65146,0.83649c-0.10167,0.12515 -0.04775,0.31204 0.10432,0.36578c1.1715,0.4139 1.68782,0.90939 1.68782,1.18196c0,0.26964 -0.49558,0.74244 -1.58298,1.14319c-1.84695,0.68001 -4.34951,0.82566 -6.35081,0.64514c-0.13161,-0.01185 -0.24575,0.08819 -0.25225,0.22018c-0.01609,0.32455 -0.0835,0.63831 -0.19949,0.93445c-0.05602,0.14296 0.04114,0.3 0.19396,0.31483c4.32636,0.41901 9.67926,-0.67759 9.67926,-3.25778l-0.00001,0z" stroke="null"/>
   <path stroke="null" id="svg_1" d="m17.25,5.9375c0,3.00268 -5.53125,11.0625 -5.53125,11.0625s-5.53125,-8.05982 -5.53125,-11.0625s2.44955,-5.53125 5.53125,-5.53125s5.53125,2.44955 5.53125,5.53125zm-5.53125,2.37054c1.73839,0 3.16071,-1.50134 3.16071,-3.23973s-1.42232,-3.0817 -3.16071,-3.0817s-3.16071,1.42232 -3.16071,3.0817s1.42232,3.23973 3.16071,3.23973z"/>
  </g>
 </g>

</svg>