<!--Generator: Adobe Illustrator 19.2.1, SVG Export Plug-In . SVG Version: 6.00 Build 0)--><svg xmlns="http://www.w3.org/2000/svg" viewBox="0 0 24 24"><path d="M11.8 14.1c0 .1 0 .2-.1.3l-4.3 4.3 1.9 1.9c.2.2.2.4.2.6s-.1.4-.2.6c-.2.1-.4.2-.6.2H2.8c-.2 0-.4-.1-.6-.2s-.2-.4-.2-.6v-5.8c0-.2.1-.4.2-.6.2-.2.4-.2.6-.2s.4.1.6.2l1.9 1.9 4.3-4.3c.1-.1.2-.1.3-.1s.2 0 .3.1l1.5 1.5c.1 0 .1.1.1.2zM22 2.8v5.8c0 .2-.1.4-.2.6-.2.2-.4.2-.6.2s-.4-.1-.6-.2l-1.9-1.9-4.3 4.3c-.1.1-.2.1-.3.1-.1 0-.2 0-.3-.1l-1.5-1.5c-.1-.1-.1-.2-.1-.3s0-.2.1-.3l4.3-4.3-1.9-1.9c-.2-.2-.2-.4-.2-.6s.1-.4.2-.6c.2 0 .4-.1.6-.1h5.8c.2 0 .4.1.6.2s.3.4.3.6z"/></svg>