<?xml version="1.0" encoding="utf-8"?>
<svg x="0px" y="0px" viewBox="0 0 28 23" role="img">
  <path d="M23.3,0.4L2.7,2.1C1.1,2.3,0,3.6,0,5.2v8c0,1.6,1,3,2.6,3.1l5.3,0.5c0,0,1,1.6,0.3,3.2
c-0.7,1.6-1.9,2.3-1.9,2.3c4.2,0,6.6-3.1,7.8-4.9l9.3,0.7c1.8,0.2,3.6-1.3,3.6-3.1V3.5C27,1.7,25.1,0.2,23.3,0.4z M14.7,14.4H12v-2
h2.7V14.4z M16.9,9c-0.3,0.5-1.2,0.9-1.8,1.4c-0.3,0.2-0.5,0.7-0.5,1.1H12v-0.6c0-0.7,0.3-1.2,0.7-1.5c0.2-0.2,0.7-0.6,1.1-1
c0.3-0.2,0.5-0.7,0.5-1.1c0-0.6-0.5-0.9-1-0.9C12.5,6.5,12,7,12,8c0,0,0,0,0,0.1L9.5,7.8c0.2-2.2,1.8-3.4,4-3.4
c1.1,0,2.1,0.3,2.7,0.9c0.7,0.6,1.1,1.4,1.1,2.3C17.3,8.1,17.2,8.5,16.9,9z"></path>
</svg>
