<?xml version="1.0" encoding="utf-8"?>
<!-- Generator: Adobe Illustrator 19.2.1, SVG Export Plug-In . SVG Version: 6.00 Build 0)  -->
<svg version="1.1" id="Layer_1" xmlns="http://www.w3.org/2000/svg" xmlns:xlink="http://www.w3.org/1999/xlink" x="0px" y="0px"
	 viewBox="0 0 24 24" style="enable-background:new 0 0 24 24;" xml:space="preserve">
<g>
	<rect x="3.2" y="11.6" transform="matrix(0.5813 -0.8137 0.8137 0.5813 -4.8644 14.8008)" width="17.4" height="1.1"/>
	<path d="M17.5,16.1c0,1.9-1.1,3.4-2.5,3.4s-2.5-1.5-2.5-3.4c0-1.9,1.1-3.4,2.5-3.4S17.5,14.2,17.5,16.1z M15,13.9
		c-0.9,0-1.6,1-1.6,2.1s0.7,2.1,1.6,2.1s1.6-1,1.6-2.1S15.8,13.9,15,13.9z"/>
	<path d="M11.6,7.7c0,1.9-1.1,3.4-2.5,3.4S6.5,9.6,6.5,7.7s1.1-3.4,2.5-3.4S11.6,5.9,11.6,7.7z M9.1,5.5c-0.9,0-1.6,1-1.6,2.1
		s0.7,2.1,1.6,2.1c0.9,0,1.6-1,1.6-2.1S10,5.5,9.1,5.5z"/>
</g>
</svg>
