<?xml version="1.0" encoding="utf-8"?>
<!-- Generator: Adobe Illustrator 19.2.1, SVG Export Plug-In . SVG Version: 6.00 Build 0)  -->
<svg version="1.1" id="Layer_1" xmlns="http://www.w3.org/2000/svg" xmlns:xlink="http://www.w3.org/1999/xlink" x="0px" y="0px"
	 viewBox="0 0 24 24" style="enable-background:new 0 0 24 24;" xml:space="preserve">
<path d="M16.7,4.3c-0.4-0.4-1-0.4-1.4,0c-0.1,0.1-0.2,0.2-0.2,0.4c-0.8,1.7-1.7,2.7-2.9,3.3C10.9,8.6,9.4,9,7,9C6.9,9,6.7,9,6.6,9.1
	C6.4,9.2,6.2,9.4,6.1,9.6C6,9.9,6,10.1,6.1,10.4c0.1,0.1,0.1,0.2,0.2,0.3L9.5,14L5,20l6.1-4.5l3.2,3.2c0.1,0.1,0.2,0.2,0.3,0.2
	C14.7,19,14.9,19,15,19s0.3,0,0.4-0.1c0.2-0.1,0.4-0.3,0.5-0.5C16,18.3,16,18.1,16,18c0-2.4,0.4-3.9,1.1-5.2
	c0.6-1.2,1.6-2.1,3.3-2.9c0.1,0,0.3-0.1,0.4-0.2c0.4-0.4,0.4-1,0-1.4L16.7,4.3z"/>
</svg>
