<?xml version="1.0" encoding="utf-8"?>
<!-- Generator: Adobe Illustrator 21.1.0, SVG Export Plug-In . SVG Version: 6.00 Build 0)  -->
<svg version="1.1" id="Layer_1" xmlns="http://www.w3.org/2000/svg" xmlns:xlink="http://www.w3.org/1999/xlink" x="0px" y="0px"
	 viewBox="0 0 24 24" style="enable-background:new 0 0 24 24;" xml:space="preserve">
<path d="M6.1,20.5h11.8v-3.4H6.1V20.5z M6.1,12h11.8V6.9h-2.1c-0.4,0-0.7-0.1-0.9-0.4c-0.2-0.2-0.4-0.5-0.4-0.9V3.5H6.1V12z
	 M21.3,12.8c0-0.2-0.1-0.4-0.3-0.6S20.7,12,20.5,12s-0.4,0.1-0.6,0.3s-0.3,0.4-0.3,0.6c0,0.2,0.1,0.4,0.3,0.6s0.4,0.3,0.6,0.3
	s0.4-0.1,0.6-0.3S21.3,13.1,21.3,12.8z M23,12.8v5.5c0,0.1,0,0.2-0.1,0.3s-0.2,0.1-0.3,0.1h-3v2.1c0,0.4-0.1,0.7-0.4,0.9
	c-0.2,0.2-0.5,0.4-0.9,0.4H5.7c-0.4,0-0.7-0.1-0.9-0.4c-0.2-0.2-0.4-0.5-0.4-0.9v-2.1h-3c-0.1,0-0.2,0-0.3-0.1S1,18.5,1,18.3v-5.5
	c0-0.7,0.2-1.3,0.7-1.8s1.1-0.7,1.8-0.7h0.8V3.1c0-0.4,0.1-0.7,0.4-0.9C5,2,5.3,1.8,5.7,1.8h8.9c0.4,0,0.7,0.1,1.2,0.3
	c0.4,0.2,0.8,0.4,1,0.6l2,2c0.2,0.2,0.5,0.6,0.6,1s0.3,0.8,0.3,1.2v3.4h0.8c0.7,0,1.3,0.2,1.8,0.7C22.8,11.6,23,12.1,23,12.8z"/>
</svg>
