<?xml version="1.0" encoding="utf-8"?>
<!-- Generator: Adobe Illustrator 19.2.1, SVG Export Plug-In . SVG Version: 6.00 Build 0)  -->
<svg version="1.1" id="Layer_1" xmlns="http://www.w3.org/2000/svg" xmlns:xlink="http://www.w3.org/1999/xlink" x="0px" y="0px"
	 viewBox="0 0 24 24" style="enable-background:new 0 0 24 24;" xml:space="preserve" width="100px" >
<path d="M19,9c0,3.8-7,14-7,14S5,12.8,5,9s3.1-7,7-7S19,5.1,19,9z M12,12c2.2,0,4-1.9,4-4.1S14.2,4,12,4S8,5.8,8,7.9S9.8,12,12,12z"
	style="
    transform: translate(-2px, 0px);
"/>
  <svg version="1.1" id="Layer_1" xmlns="http://www.w3.org/2000/svg" xmlns:xlink="http://www.w3.org/1999/xlink" x="8px" y="6px"
	 viewBox="0 0 24 24" style="enable-background:new 0 0 24 24; stroke: white;" xml:space="preserve" width="19">
<path d="M6,15.5V18h2.5l7.4-7.4l-2.5-2.5L6,15.5z M17.8,8.7c0.3-0.3,0.3-0.7,0-0.9l-1.6-1.6c-0.3-0.3-0.7-0.3-0.9,0l-1.2,1.2
	l2.5,2.5C16.6,9.9,17.8,8.7,17.8,8.7z"/>
</svg>