<!--Generator: Adobe Illustrator 19.2.1, SVG Export Plug-In . SVG Version: 6.00 Build 0)--><svg xmlns="http://www.w3.org/2000/svg" viewBox="0 0 24 24"><path d="M9.5 6.3c.1 0 .2 0 .3-.1.1-.2.1-.3.1-.4 0-.1 0-.2-.1-.3-.1-.1-.2-.2-.3-.2s-.2 0-.3.1c-.1.2-.2.3-.2.4 0 .1 0 .2.1.3.1.1.2.2.4.2zm5 0c.1 0 .2 0 .3-.1s.2-.3.2-.4c0-.1 0-.2-.1-.3s-.2-.1-.3-.1c-.1 0-.2 0-.3.1s-.1.2-.1.3c0 .1 0 .2.1.3s.1.2.2.2zM4.8 8.5c.3 0 .6.1.9.4.2.2.3.5.3.8v5.2c0 .3-.1.6-.4.9-.2.2-.5.4-.9.4-.3 0-.6-.1-.9-.4-.2-.2-.4-.5-.4-.9V9.7c0-.3.1-.6.4-.9.3-.2.6-.3 1-.3zm12.7.2v8c0 .4-.1.7-.4.9s-.5.4-.9.4h-.9v2.7c0 .3-.1.6-.4.9-.2.2-.5.4-.9.4-.3 0-.6-.1-.9-.4-.2-.2-.4-.5-.4-.9V18H11v2.7c0 .3-.1.6-.4.9-.2.2-.5.4-.9.4-.3 0-.6-.1-.9-.4-.2-.2-.4-.5-.4-.9V18h-.6c-.4 0-.7-.1-.9-.4-.3-.3-.4-.6-.4-.9v-8h11zm-2.8-4.9c.9.4 1.5 1.1 2.1 1.8.5.8.8 1.7.8 2.6H6.4c0-.9.3-1.8.8-2.6s1.2-1.4 2.1-1.8l-.9-1.5c0-.1 0-.2.1-.3.1 0 .2 0 .2.1l.9 1.6c.8-.3 1.6-.5 2.4-.5s1.7.2 2.4.5l.9-1.6c0-.1.1-.1.2-.1.1.1.1.1.1.2l-.9 1.6zm5.8 5.9v5.2c0 .3-.1.6-.4.9s-.5.4-.9.4c-.3 0-.6-.1-.9-.4s-.3-.6-.3-.9V9.7c0-.3.1-.6.4-.9s.5-.4.9-.4c.3 0 .6.1.9.4s.3.6.3.9z"/></svg>