<?xml version="1.0" encoding="utf-8"?>
<!-- Generator: Adobe Illustrator 23.0.2, SVG Export Plug-In . SVG Version: 6.00 Build 0)  -->
<svg version="1.1" id="Layer_1" xmlns="http://www.w3.org/2000/svg" xmlns:xlink="http://www.w3.org/1999/xlink" x="0px" y="0px"
	 viewBox="0 0 24 24" style="enable-background:new 0 0 24 24;" xml:space="preserve">
<g>
	<path d="M13,8.8h4.2C17,6.3,15.3,4.5,13,4.1V8.8z"/>
	<path d="M16,12.2c0.7-0.8,0.9-1.3,1.1-2.5l-3.6-0.1L16,12.2z"/>
	<path d="M11.7,9.5V4.1C9.2,4.2,7,6.4,7,9.2s2.2,5.1,5.1,5.1c1.2,0,2.4-0.5,3.2-1.2L11.7,9.5z"/>
</g>
<g>
	<rect x="6.5" y="18.4" width="3" height="3"/>
	<rect x="10.5" y="16.6" width="3" height="4.8"/>
	<rect x="14.5" y="17.2" width="3" height="4.2"/>
</g>
<path d="M16.9,0H2.5v24h19.1V4.1L16.9,0z M20.3,22.4H3.8V1.6h12.4l4.1,3.6V22.4z"/>
<rect x="16.2" y="0.6" width="1.3" height="4.8"/>
<rect x="18.7" y="2.9" transform="matrix(-1.836970e-16 1 -1 -1.836970e-16 24.0187 -14.5999)" width="1.3" height="3.6"/>
</svg>
