<?xml version="1.0" encoding="utf-8"?>
<!-- Generator: Adobe Illustrator 21.1.0, SVG Export Plug-In . SVG Version: 6.00 Build 0)  -->
<svg version="1.1" id="Layer_1" xmlns="http://www.w3.org/2000/svg" xmlns:xlink="http://www.w3.org/1999/xlink" x="0px" y="0px"
	 viewBox="0 0 24 24" style="enable-background:new 0 0 24 24;" xml:space="preserve">
<path d="M2.9,3.3c0.2,0,0.5,0.1,0.6,0.3L12,12l8.4-8.4c0.4-0.4,0.9-0.4,1.3,0s0.4,0.9,0,1.3l-8.6,8.6c-0.6,0.6-1.6,0.6-2.2,0
	L2.3,4.9C1.9,4.5,1.9,4,2.3,3.6C2.4,3.4,2.7,3.3,2.9,3.3z"/>
<path d="M2.9,10c0.2,0,0.5,0.1,0.6,0.3l8.5,8.4l8.4-8.4c0.4-0.4,0.9-0.4,1.3,0s0.4,0.9,0,1.3l-8.6,8.6c-0.6,0.6-1.6,0.6-2.2,0
	l-8.6-8.6c-0.4-0.4-0.4-0.9,0-1.3C2.4,10.1,2.7,10,2.9,10z"/>
</svg>
