<!--Generator: Adobe Illustrator 19.2.1, SVG Export Plug-In . SVG Version: 6.00 Build 0)--><svg xmlns="http://www.w3.org/2000/svg" viewBox="0 0 24 24"><path d="M16.9 9.1c.2.3.1.6-.1.9l-4.2 5.8c-.2.2-.4.4-.7.4s-.5-.1-.7-.4l-4-5.8c-.2-.3-.3-.6-.1-.9.1-.3.4-.5.7-.5h8.3c.4.1.7.2.8.5zm1.8 9.2V5.8c0-.1 0-.2-.1-.3s-.2-.1-.3-.1H5.8c-.1 0-.2 0-.3.1s-.2.1-.2.3v12.5c0 .1 0 .2.1.3s.2.1.3.1h12.5c.1 0 .2 0 .3-.1s.2-.2.2-.3zM22 5.8v12.5c0 1-.4 1.9-1.1 2.6S19.3 22 18.3 22H5.8c-1 0-1.9-.4-2.6-1.1S2 19.3 2 18.3V5.8c0-1 .4-1.9 1.1-2.6S4.7 2 5.8 2h12.5c1 0 1.9.4 2.6 1.1S22 4.7 22 5.8z"/></svg>