<?xml version="1.0" encoding="utf-8"?>
<!-- Generator: Adobe Illustrator 19.2.1, SVG Export Plug-In . SVG Version: 6.00 Build 0)  -->
<svg version="1.1" id="Layer_1" xmlns="http://www.w3.org/2000/svg" xmlns:xlink="http://www.w3.org/1999/xlink" x="0px" y="0px"
	 viewBox="0 0 24 24" enable-background="new 0 0 24 24" xml:space="preserve">
<path d="M10.4,3C6.3,3,3,6.3,3,10.4c0,4.1,3.3,7.4,7.4,7.4c1.6,0,3.1-0.5,4.4-1.5l0.3-0.2l4.9,4.9l0.9-0.9l-4.9-4.9l0.2-0.3
	c1-1.3,1.5-2.8,1.5-4.4C17.9,6.3,14.5,3,10.4,3z M10.4,16.6c-3.4,0-6.1-2.7-6.1-6.1s2.7-6.1,6.1-6.1s6.1,2.7,6.1,6.1
	S13.8,16.6,10.4,16.6z"/>
</svg>
