<?xml version="1.0" encoding="utf-8"?>
<!-- Generator: Adobe Illustrator 19.2.1, SVG Export Plug-In . SVG Version: 6.00 Build 0)  -->
<svg version="1.1" id="Layer_1" xmlns="http://www.w3.org/2000/svg" xmlns:xlink="http://www.w3.org/1999/xlink" x="0px" y="0px"
	 viewBox="0 0 24 24" style="enable-background:new 0 0 24 24;" xml:space="preserve">
<polygon points="10,2 10,18.5 14.1,14.6 17.3,22 19.5,21 16.2,13.7 22,13.2 "/>
<polygon points="6,15 4,15 4,18 1,18 1,20 4,20 4,23 6,23 6,20 9,20 9,18 6,18 "/>
<g>
	<path d="M15.3,1.5l-1.9,0.7l0.3,0.9l1.9-0.7L15.3,1.5L15.3,1.5z M12.4,2.5l-1.9,0.7l0.3,0.9l1.9-0.7L12.4,2.5L12.4,2.5z M7.7,3.2
		L7.4,4.1l1.3,0.5L9,4.7l0.3-0.1l0.6-0.2L9.6,3.5L9,3.7l0,0l0,0c0,0,0,0,0,0l0,0C9,3.7,7.7,3.2,7.7,3.2L7.7,3.2z M4.9,2.1L4.6,3
		l1.9,0.7l0.4-0.9L4.9,2.1L4.9,2.1z M1.1,0.7l0.6,1.8l0.7-0.2l1.2,0.5L4,1.8c0,0-1.2-0.5-1.7-0.6l0,0L1.1,0.7L1.1,0.7L1.1,0.7
		L1.1,0.7L1.1,0.7z M3,3.1L2,3.4l0.7,1.9L3.6,5L3,3.1L3,3.1z M4,5.9L3,6.2c0,0,0.3,0.9,0.5,1.4l0,0c0,0,0,0,0,0l0,0c0,0,0,0,0,0
		l0.2,0.4l0.9-0.3L4,5.9L4,5.9z M4.9,8.8L4,9.1c0,0,0.1,0.4,0.3,0.9l0,0c0,0,0,0,0,0l0,0c0,0,0,0,0,0l0,0c0,0,0,0,0,0l0,0
		c0,0,0,0,0,0l0,0c0,0,0,0,0,0l0,0c0,0,0,0,0,0l0.3,1l0.1,0L4.7,11L5,12l0,0l0,0l0,0l0,0l0,0l0,0l0,0l0.2-0.2h0
		c0.4-0.3,1.3-0.9,1.3-0.9L6,10.1l-0.5,0.3L4.9,8.8L4.9,8.8z M8.4,8.3L6.8,9.5l0.6,0.8L9,9.1L8.4,8.3L8.4,8.3z M11.3,6.2l-0.7,0.5
		l-1.4,1l0.6,0.8c0,0,0.9-0.6,1.2-0.9l0,0c0,0,0,0,0,0l0,0c0,0,0,0,0,0l0,0c0,0,0,0,0,0l0,0c0,0,0,0,0,0l0,0c0,0,0,0,0,0l0,0
		c0,0,0,0,0,0l0,0c0,0,0,0,0,0l0,0c0,0,0,0,0,0l0,0c0,0,0,0,0,0l0,0c0,0,0,0,0,0l0,0c0,0,0,0,0,0l0,0c0,0,0,0,0,0l0,0c0,0,0,0,0,0
		l0,0c0,0,0,0,0,0l0,0c0,0,0,0,0,0l0,0l0,0l0,0l0,0c0,0,0,0,0,0l0,0c0,0,0,0,0,0l0,0c0,0,0,0,0,0l0,0c0,0,0,0,0,0l0,0c0,0,0,0,0,0
		l0,0c0,0,0,0,0,0l0,0c0,0,0.2,0.2,0.2,0.2l0.7-0.7l-0.2-0.2L11.3,6.2L11.3,6.2z M12.8,7.8l-0.7,0.7l1.4,1.4l0.7-0.7L12.8,7.8
		L12.8,7.8z M14.9,10l-0.7,0.7l0,0c0,0,0,0,0,0l0,0c0,0,0,0,0,0l0,0c0,0,0,0,0,0l0,0c0,0,0,0,0,0l0,0c0.3,0.3,1.3,1.4,1.3,1.4
		l0.7-0.7L14.9,10L14.9,10z M17,12.2l-0.7,0.7l1.4,1.4l0.7-0.7L17,12.2L17,12.2z M19,14.3L18.3,15l0.2,0.2c0,0,0,0,0,0l0,0
		c0,0,0,0,0,0l0,0c0,0,0,0,0,0l0,0c0.4,0.4,1.2,1.2,1.2,1.2l0.7-0.7L19,14.3L19,14.3z M20.9,14.8l-0.2,2l0.2,0l-0.4,0.4l1.1,1.1l0,0
		l0,0l0,0l0,0l0,0l0,0l0,0l0.1-1.3l-0.1-0.2l0.2,0l0,0v0l0,0c0,0,0,0,0,0l0,0l0,0l0,0c0,0,0,0,0,0l0,0c0,0,0,0,0,0l0,0c0,0,0,0,0,0
		l0,0c0,0,0,0,0,0l0,0c0,0,0,0,0,0l0,0c0,0,0,0,0,0l0,0c0,0,0,0,0,0l0,0c0,0,0,0,0,0l0,0c0,0,0,0,0,0l0,0c0,0,0,0,0,0l0,0
		c0,0,0,0,0,0l0,0c0,0,0,0,0,0l0,0c0,0,0,0,0,0l0,0v0l0,0c0,0,0,0,0,0l0,0c0,0,0,0,0,0l0,0c0,0,0,0,0,0l0,0c0,0,0,0,0,0l0,0
		c0,0,0,0,0,0l0,0c0,0,0,0,0,0l0,0c0,0,0,0,0,0l0,0c0,0,0,0,0,0l0,0c0,0,0,0,0,0l0,0c0,0,0,0,0,0l0,0c0,0,0,0,0,0l0,0c0,0,0,0,0,0
		l0,0c0,0,0,0,0,0l0,0c0,0,0,0,0,0l0,0c0,0,0,0,0,0l0,0c0,0,0,0,0,0l0,0c0,0,0,0,0,0l0,0c0,0,0,0,0,0l0,0c0,0,0,0,0,0l0,0l0,0l0,0
		c0,0,0,0,0,0l0,0c0,0,0,0,0,0l0,0c0,0,0,0,0,0l0,0c0,0,0,0,0,0l0,0c0,0,0,0,0,0l0,0c0,0,0,0,0,0l0,0c0,0,0,0,0,0l0,0c0,0,0,0,0,0
		l0,0c0,0,0,0,0,0l0,0c0,0,0,0,0,0l0,0c0,0,0,0,0,0l0,0c0,0,0,0,0,0l0,0c0,0,0,0,0,0l0,0c0,0,0,0,0,0l0,0c0,0,0,0,0,0l0,0
		c0,0,0,0,0,0l0,0c0,0,0,0,0,0l0,0c0,0,0,0,0,0l0,0c0,0,0,0,0,0l0,0c0,0,0,0,0,0l0,0c0,0,0,0,0,0l0,0c0,0,0,0,0,0l0,0c0,0,0,0,0,0
		l0,0c0.1-0.6,0.2-1.7,0.2-1.7L20.9,14.8L20.9,14.8z M21.2,11.8l-0.2,2l1,0.1l0.2-2L21.2,11.8L21.2,11.8z M21.5,8.8l-0.2,2l1,0.1
		l0.2-2L21.5,8.8L21.5,8.8z M21.9,5.8l-0.2,2l1,0.1l0.2-2L21.9,5.8L21.9,5.8z M21.1,3.7l-0.7,0.7l1.4,1.5l0.7-0.7l-0.9-1
		c0,0,0,0,0,0l0,0C21.2,3.9,21.1,3.7,21.1,3.7L21.1,3.7z M19,1.5l-0.7,0.7l1.4,1.5L20.4,3L19,1.5L19,1.5z M18.1,0.5
		C18.1,0.5,18.1,0.5,18.1,0.5L18.1,0.5C18.1,0.5,18.1,0.5,18.1,0.5L18.1,0.5C18,0.5,18,0.5,18.1,0.5L18.1,0.5
		C18,0.5,18,0.5,18.1,0.5L18.1,0.5C18,0.5,18,0.5,18.1,0.5L18.1,0.5C18,0.5,18,0.5,18.1,0.5L18.1,0.5C18,0.5,18,0.5,18.1,0.5
		L18.1,0.5C18,0.5,18,0.5,18.1,0.5L18.1,0.5C18,0.5,18,0.5,18.1,0.5l-0.1,0c0,0,0,0,0,0l0,0c0,0,0,0,0,0l0,0c0,0,0,0,0,0l0,0
		c0,0,0,0,0,0l0,0c0,0,0,0,0,0l0,0c0,0,0,0,0,0l0,0c0,0,0,0,0,0l0,0c0,0,0,0,0,0l0,0c0,0,0,0,0,0l0,0c0,0,0,0,0,0l-1.7,0.6l0.3,0.9
		l1.9-0.7l-0.2-0.6l0.1-0.1L18.1,0.5L18.1,0.5L18.1,0.5z"/>
</g>
</svg>
