<?xml version="1.0" encoding="utf-8"?>
<!-- Generator: Adobe Illustrator 19.2.1, SVG Export Plug-In . SVG Version: 6.00 Build 0)  -->
<svg version="1.1" id="Layer_1" xmlns="http://www.w3.org/2000/svg" xmlns:xlink="http://www.w3.org/1999/xlink" x="0px" y="0px"
	 viewBox="0 0 24 24" style="enable-background:new 0 0 24 24;" xml:space="preserve">
<path d="M22,2v3h-1V3h-1V2H22z M19,2h-2v1h2V2z M16,2h-2v1h2V2z M7,2H5v1h2V2z M3,3h1V2H2v1v2h1V3z M3,6H2v2h1V6z M4,11H3V9H2v2v1h2
	V11z M7,11H5v1h2V11z M21,11h-1v0.3L11.1,3H13V2h-2v0.9L10,2H8v1h2v8H8v1h2v6.5l4.1-3.9l3.2,7.4l2.2-1l-3.3-7.3l5.8-0.5L20.7,12H22
	v-1V9h-1V11z M21,8h1V6h-1V8z M1,20h8v-2H1V20z"/>
</svg>
