<?xml version="1.0" encoding="utf-8"?>
<!-- Generator: Adobe Illustrator 19.2.1, SVG Export Plug-In . SVG Version: 6.00 Build 0)  -->
<svg version="1.1" id="Layer_1" xmlns="http://www.w3.org/2000/svg" xmlns:xlink="http://www.w3.org/1999/xlink" x="0px" y="0px"
	 viewBox="0 0 24 24" style="enable-background:new 0 0 24 24;" xml:space="preserve">
<path d="M12,9c0.6,0,1-0.4,1-1c0-0.6-0.4-1-1-1c-0.6,0-1,0.4-1,1C11,8.6,11.4,9,12,9z"/>
<path d="M13,17.4v-6.8c0-0.6-0.7-0.6-0.9-0.7h-0.4c0,0-0.8,0-0.8,0.5v7c0,0.2,0.1,0.4,0.6,0.4h0.7C12.6,18,13,17.9,13,17.4z"/>
<path d="M12,2C6.5,2,2,6.5,2,12c0,5.5,4.5,10,10,10c5.5,0,10-4.5,10-10C22,6.5,17.5,2,12,2z M12,20c-4.4,0-8-3.6-8-8
	c0-4.4,3.6-8,8-8c4.4,0,8,3.6,8,8C20,16.4,16.4,20,12,20z"/>
</svg>
