<?xml version="1.0" encoding="utf-8"?>
<!-- Generator: Adobe Illustrator 21.1.0, SVG Export Plug-In . SVG Version: 6.00 Build 0)  -->
<svg version="1.1" id="Layer_1" xmlns="http://www.w3.org/2000/svg" xmlns:xlink="http://www.w3.org/1999/xlink" x="0px" y="0px"
	 viewBox="0 0 24 24" style="enable-background:new 0 0 24 24;" xml:space="preserve">
<polygon points="22,2 22,5 21,5 21,3 20,3 20,2 "/>
<rect x="17" y="2" width="2" height="1"/>
<rect x="14" y="2" width="2" height="1"/>
<rect x="11" y="2" width="2" height="1"/>
<rect x="8" y="2" width="2" height="1"/>
<rect x="5" y="2" width="2" height="1"/>
<polygon points="3,3 4,3 4,2 2,2 2,3 2,5 3,5 "/>
<rect x="2" y="6" width="1" height="2"/>
<polygon points="4,11 3,11 3,9 2,9 2,11 2,12 4,12 "/>
<polygon points="20,12 22,12 22,11 22,9 21,9 21,11 20,11 "/>
<rect x="5" y="11" width="2" height="1"/>
<rect x="8" y="11" width="2" height="1"/>
<rect x="11" y="11" width="2" height="1"/>
<rect x="14" y="11" width="2" height="1"/>
<rect x="17" y="11" width="2" height="1"/>
<rect x="21" y="6" width="1" height="2"/>
<rect x="1" y="18" width="8" height="2"/>
</svg>
