<?xml version="1.0" encoding="utf-8"?>
<!-- Generator: Adobe Illustrator 19.2.1, SVG Export Plug-In . SVG Version: 6.00 Build 0)  -->
<svg version="1.1" id="Layer_1" xmlns="http://www.w3.org/2000/svg" xmlns:xlink="http://www.w3.org/1999/xlink" x="0px" y="0px"
	 viewBox="0 0 24 24" style="enable-background:new 0 0 24 24;" xml:space="preserve">
<path d="M7,12H5v-1h2V12z M3,3h1V2H2v1v2h1V3z M16,2h-2v1h2V2z M19,2h-2v1h2V2z M7,2H5v1h2V2z M4,11H3V9H2v2v1h2V11z M21,8h1V6h-1V8
	z M21,11h-1v0.3L11.1,3H13V2h-2v0.9L10,2H8v1h2v8H8v1h2v6.5l4.1-3.9l3.2,7.4l2.2-1l-3.3-7.3l5.8-0.5L20.7,12H22v-1V9h-1V11z M20,2v1
	h1v2h1V2H20z M3,6H2v2h1V6z M6,15H4v3H1v2h3v3h2v-3h3v-2H6V15z"/>
</svg>
