<?xml version="1.0" encoding="utf-8"?>
<!-- Generator: Adobe Illustrator 19.2.1, SVG Export Plug-In . SVG Version: 6.00 Build 0)  -->
<svg enable-background="new 0 0 24 24" height="24px" id="Layer_1" version="1.1" viewBox="0 0 24 24" width="24px" xml:space="preserve" xmlns="http://www.w3.org/2000/svg" xmlns:xlink="http://www.w3.org/1999/xlink"><g><path d="M12,0C5.4,0,0,5.4,0,12s5.4,12,12,12s12-5.4,12-12S18.6,0,12,0z M13,21.9V21c0-0.6-0.4-1-1-1s-1,0.4-1,1v0.9   c-4.7-0.5-8.5-4.2-8.9-8.9H3c0.6,0,1-0.4,1-1s-0.4-1-1-1H2.1C2.5,6.3,6.3,2.5,11,2.1V3c0,0.6,0.4,1,1,1s1-0.4,1-1V2.1   c4.7,0.5,8.5,4.2,8.9,8.9H21c-0.6,0-1,0.4-1,1s0.4,1,1,1h0.9C21.5,17.7,17.7,21.5,13,21.9z"/>
<path d="M9.9,14.1l1.4,4.2L17,7L5.6,12.7L9.9,14.1z"/></g></svg>
