<!--Generator: Adobe Illustrator 19.2.1, SVG Export Plug-In . SVG Version: 6.00 Build 0)--><svg xmlns="http://www.w3.org/2000/svg" viewBox="0 0 24 24"><path d="M22 8.9V12c0 .2-.1.4-.2.5-.2.2-.3.2-.5.2h-.8c-.2 0-.4-.1-.5-.2-.2-.2-.2-.3-.2-.5V8.9c0-.8-.3-1.6-.9-2.2-.6-.6-1.3-.9-2.2-.9-.8 0-1.6.3-2.2.9s-.9 1.3-.9 2.2v2.3h1.2c.3 0 .6.1.8.3.2.2.3.5.3.8v6.9c0 .3-.1.6-.3.8s-.5.3-.8.3H3.2c-.3 0-.6-.1-.8-.3s-.4-.4-.4-.7v-6.9c0-.3.1-.6.3-.8.2-.2.5-.3.8-.3h8.1V8.9c0-1.5.5-2.8 1.6-3.8s2.3-1.6 3.8-1.6 2.8.5 3.8 1.6S22 7.4 22 8.9z"/></svg>