<!--Generator: Adobe Illustrator 19.2.1, SVG Export Plug-In . SVG Version: 6.00 Build 0)--><svg xmlns="http://www.w3.org/2000/svg" viewBox="0 0 24 24"><path d="M20.6 12c-1.1-1.8-2.5-3.1-4.3-3.9.5.8.7 1.6.7 2.5 0 1.4-.5 2.6-1.5 3.5s-2.2 1.5-3.5 1.5-2.6-.5-3.5-1.5S7 11.9 7 10.6c0-.9.2-1.7.7-2.5-1.7.8-3.1 2.1-4.3 3.9 1 1.5 2.2 2.7 3.7 3.6 1.5.9 3.2 1.4 4.9 1.4s3.4-.5 4.8-1.4c1.5-.9 2.8-2.1 3.8-3.6zm-8.1-4.3c0-.1-.1-.3-.2-.4-.1-.1-.2-.2-.4-.2-.9 0-1.7.3-2.4 1s-1 1.5-1 2.4c0 .1.1.3.2.4.1.1.2.2.4.2s.3-.1.4-.2c.1-.1.2-.2.2-.4 0-.6.2-1.2.7-1.6.5-.5 1-.7 1.6-.7.1 0 .3-.1.4-.2.1 0 .1-.1.1-.3zM22 12c0 .3-.1.5-.2.8-1 1.7-2.4 3.1-4.2 4.1S14 18.4 12 18.4s-3.8-.5-5.6-1.6-3.2-2.4-4.2-4.1c-.1-.2-.2-.4-.2-.7s.1-.5.2-.8c1-1.7 2.4-3.1 4.2-4.1S10 5.6 12 5.6s3.8.5 5.6 1.6 3.2 2.4 4.2 4.1c.1.2.2.4.2.7z"/></svg>