<?xml version="1.0" encoding="utf-8"?>
<!-- Generator: Adobe Illustrator 19.2.1, SVG Export Plug-In . SVG Version: 6.00 Build 0)  -->
<svg version="1.1" id="Layer_1" xmlns:sketch="http://www.bohemiancoding.com/sketch/ns"
	 xmlns="http://www.w3.org/2000/svg" xmlns:xlink="http://www.w3.org/1999/xlink" x="0px" y="0px" viewBox="0 0 24 24"
	 enable-background="new 0 0 24 24" xml:space="preserve">
	<path id="warning" d="M10.7,3.5c0.7-1.2,1.9-1.2,2.7,0l9.2,14.9c1,1.6,0.3,2.9-1.6,2.9H3.1c-1.9,0-2.6-1.3-1.6-2.9L10.7,3.5
		L10.7,3.5z M12,7.3c-0.6,0-1.1,0.4-1.1,1V14c0,0.5,0.5,1,1.1,1c0.6,0,1.1-0.4,1.1-1V8.2C13.1,7.7,12.6,7.3,12,7.3L12,7.3z M12,19
		c0.6,0,1.1-0.5,1.1-1.1c0-0.6-0.5-1.1-1.1-1.1s-1.1,0.5-1.1,1.1C10.9,18.5,11.4,19,12,19L12,19z"/>
</svg>
