<!--Generator: Adobe Illustrator 19.2.1, SVG Export Plug-In . SVG Version: 6.00 Build 0)--><svg xmlns="http://www.w3.org/2000/svg" viewBox="0 0 24 24"><path d="M4.9 17.4v2.1c0 .1 0 .2-.1.3s-.2.1-.3.1H2.4c-.1 0-.2 0-.3-.1s-.1-.2-.1-.3v-2.1c0-.1 0-.2.1-.3.1-.1.2-.1.3-.1h2.1c.1 0 .2 0 .3.1 0 .1.1.2.1.3zm0-4.3v2.1c0 .1 0 .2-.1.3-.1.1-.2.1-.3.1H2.4c-.1 0-.2 0-.3-.1-.1-.1-.1-.2-.1-.3v-2.1c0-.1 0-.2.1-.3s.2-.1.3-.1h2.1c.1 0 .2 0 .3.1s.1.2.1.3zm0-4.3v2.1c0 .1 0 .2-.1.3s-.2.1-.3.1H2.4c-.1 0-.2 0-.3-.1S2 11 2 10.9V8.8c0-.1 0-.2.1-.3s.2-.1.3-.1h2.1c.1 0 .2 0 .3.1s.1.2.1.3zM22 17.4v2.1c0 .1 0 .2-.1.3-.1.1-.2.1-.3.1h-15c-.1 0-.2 0-.3-.1-.1-.1-.1-.2-.1-.3v-2.1c0-.1 0-.2.1-.3.2-.1.2-.1.3-.1h15c.1 0 .2 0 .3.1.1.1.1.2.1.3zM4.9 4.5v2.1c0 .1 0 .2-.1.3-.1.1-.2.1-.3.1H2.4c-.1 0-.2 0-.3-.1-.1-.1-.1-.2-.1-.3V4.5c0-.1 0-.2.1-.3.1-.1.2-.1.3-.1h2.1c.1 0 .2 0 .3.1 0 .1.1.2.1.3zM22 13.1v2.1c0 .1 0 .2-.1.3-.1.1-.2.1-.3.1h-15c-.1 0-.2 0-.3-.1-.1-.1-.1-.2-.1-.3v-2.1c0-.1 0-.2.1-.3.1-.1.2-.1.3-.1h15c.1 0 .2 0 .3.1.1.1.1.2.1.3zm0-4.3v2.1c0 .1 0 .2-.1.3-.1.1-.2.1-.3.1h-15c-.1 0-.2 0-.3-.1-.1-.1-.1-.2-.1-.3V8.8c0-.1 0-.2.1-.3.1-.1.2-.1.3-.1h15c.1 0 .2 0 .3.1.1.1.1.2.1.3zm0-4.3v2.1c0 .1 0 .2-.1.3-.1.1-.2.1-.3.1h-15c-.1 0-.1 0-.2-.1s-.1-.2-.1-.3V4.5c0-.1 0-.2.1-.3.1-.1.2-.1.3-.1h15c.1 0 .2 0 .3.1v.3z"/></svg>