<?xml version="1.0" encoding="utf-8"?><!DOCTYPE svg  PUBLIC '-//W3C//DTD SVG 1.0//EN'  'http://www.w3.org/TR/2001/REC-SVG-20010904/DTD/svg10.dtd'><svg xmlns="http://www.w3.org/2000/svg" xmlns:xlink="http://www.w3.org/1999/xlink"><defs><svg viewBox="0 0 24 24" id="account" xmlns="http://www.w3.org/2000/svg"><circle cx="12" cy="7.3" r="5.3"/><path d="M15 13.3c-.9.5-1.9.8-3 .8s-2.1-.3-3-.8C7.1 15 4.3 16.8 4.3 22H19.6c.1-5.2-2.7-7-4.6-8.7z"/></svg><svg viewBox="0 0 24 24" id="active_dot" xmlns="http://www.w3.org/2000/svg"><path d="M0 0h24v24H0z" fill="none"/><path d="M12 2C6.48 2 2 6.48 2 12s4.48 10 10 10 10-4.48 10-10S17.52 2 12 2zm0 14.5c-2.49 0-4.5-2.01-4.5-4.5S9.51 7.5 12 7.5s4.5 2.01 4.5 4.5-2.01 4.5-4.5 4.5zm0-5.5c-.55 0-1 .45-1 1s.45 1 1 1 1-.45 1-1-.45-1-1-1z"/></svg><svg viewBox="0 0 16 16" id="add-layer" xmlns="http://www.w3.org/2000/svg"><path d="M12.002 2v2H10v1h2.002v2.004h1V5h2.027V4h-2.027V2h-1zM8.48 4.242l-.24.131-7.26 3.92 7.5 4.05 7.5-4.05-.56-.303-2.102.01.547.297-5.385 2.908-5.386-2.908L8.48 5.389l.504.271-.002-1.146-.502-.272zM1.98 10.041l-1.043.564 7.5 4.053 7.5-4.053-1.043-.564-6.457 3.488-6.457-3.488z"/></svg><svg viewBox="0 0 24 24" id="calendar" xmlns="http://www.w3.org/2000/svg"><path fill="none" d="M0 0h24v24H0V0z"/><path d="M16 13h-3c-.55 0-1 .45-1 1v3c0 .55.45 1 1 1h3c.55 0 1-.45 1-1v-3c0-.55-.45-1-1-1zm0-10v1H8V3c0-.55-.45-1-1-1s-1 .45-1 1v1H5c-1.11 0-1.99.9-1.99 2L3 20a2 2 0 002 2h14c1.1 0 2-.9 2-2V6c0-1.1-.9-2-2-2h-1V3c0-.55-.45-1-1-1s-1 .45-1 1zm2 17H6c-.55 0-1-.45-1-1V9h14v10c0 .55-.45 1-1 1z"/></svg><svg viewBox="0 0 384.97 384.97" id="cancel" xmlns="http://www.w3.org/2000/svg"><path d="M192.485 0C86.173 0 0 86.173 0 192.485c0 106.3 86.173 192.485 192.485 192.485 106.3 0 192.485-86.173 192.485-192.485S298.785 0 192.485 0zm0 360.909c-93.018 0-168.424-75.406-168.424-168.424S99.467 24.061 192.485 24.061s168.424 75.406 168.424 168.424-75.406 168.424-168.424 168.424z"/><path d="M273.437 255.897l-63.376-63.388 63.015-62.497a11.931 11.931 0 000-17.011c-4.74-4.692-12.439-4.692-17.179 0l-62.931 62.413-63.869-63.881c-4.74-4.764-12.439-4.764-17.179 0-4.74 4.752-4.74 12.475 0 17.227l63.773 63.785-64.134 63.604c-4.74 4.704-4.74 12.319 0 17.011 4.74 4.704 12.439 4.704 17.191 0l64.049-63.52 63.472 63.472c4.74 4.764 12.439 4.764 17.179 0 4.729-4.74 4.729-12.451-.011-17.215z"/></svg><svg viewBox="0 0 24 24" id="caret-down" xmlns="http://www.w3.org/2000/svg"><path d="M20 8.5c0 .3-.1.5-.3.7l-7 7c-.2.2-.4.3-.7.3s-.5-.1-.7-.3l-7-7C4.1 9 4 8.8 4 8.5s.1-.5.3-.7.4-.3.7-.3h14c.3 0 .5.1.7.3.2.2.3.4.3.7z"/></svg><svg viewBox="0 0 24 24" id="caret-left" xmlns="http://www.w3.org/2000/svg"><path d="M16.5 5v14c0 .3-.1.5-.3.7s-.4.3-.7.3-.5-.1-.7-.3l-7-7c-.2-.2-.3-.4-.3-.7s.1-.5.3-.7l7-7c.2-.2.4-.3.7-.3s.5.1.7.3.3.4.3.7z"/></svg><svg viewBox="0 0 24 24" id="caret-right" xmlns="http://www.w3.org/2000/svg"><path d="M16.5 12c0 .3-.1.5-.3.7l-7 7c-.2.2-.4.3-.7.3s-.5-.1-.7-.3-.3-.4-.3-.7V5c0-.3.1-.5.3-.7s.4-.3.7-.3.5.1.7.3l7 7c.2.2.3.4.3.7z"/></svg><svg viewBox="0 0 24 24" id="caret-up" xmlns="http://www.w3.org/2000/svg"><path d="M20 15.5c0 .3-.1.5-.3.7s-.4.3-.7.3H5c-.3 0-.5-.1-.7-.3s-.3-.4-.3-.7.1-.5.3-.7l7-7c.2-.2.4-.3.7-.3s.5.1.7.3l7 7c.2.2.3.4.3.7z"/></svg><svg viewBox="0 0 24 24" id="check_box_outline" xmlns="http://www.w3.org/2000/svg"><path d="M19 5v14H5V5h14m0-2H5c-1.1 0-2 .9-2 2v14c0 1.1.9 2 2 2h14c1.1 0 2-.9 2-2V5c0-1.1-.9-2-2-2z"/><path d="M0 0h24v24H0z" fill="none"/></svg><svg viewBox="0 0 24 24" id="checkbox-checked" xmlns="http://www.w3.org/2000/svg"><path d="M22 7c0 .3-.1.4-.3.5L10.5 18.7c-.1.2-.4.3-.5.3-.3 0-.4-.1-.5-.3l-7.1-7.1c-.3-.1-.4-.2-.4-.5 0-.2.1-.4.2-.5l1.3-1.3c.1-.1.4-.2.5-.2.2 0 .4.1.5.3l5.4 5.4 9.5-9.5c.1-.2.3-.3.5-.3.1 0 .4.1.5.2l1.3 1.3c.2.1.3.2.3.5z"/></svg><svg viewBox="0 0 24 24" id="checkbox-partial" xmlns="http://www.w3.org/2000/svg"><path d="M3.8 10h16.4c.4 0 .8.4.8.9v2.2c0 .5-.4.9-.8.9H3.8c-.4 0-.8-.4-.8-.9v-2.2c0-.5.4-.9.8-.9z"/></svg><svg viewBox="0 0 24 24" id="checkbox-partial-square" xmlns="http://www.w3.org/2000/svg"><path d="M3 3h18v18H3z"/></svg><svg viewBox="0 0 24 24" id="checkbox-unchecked" xmlns="http://www.w3.org/2000/svg"/><svg viewBox="0 0 24 24" id="chevron_right" xmlns="http://www.w3.org/2000/svg"><path d="M10 6L8.59 7.41 13.17 12l-4.58 4.59L10 18l6-6z"/><path d="M0 0h24v24H0z" fill="none"/></svg><svg viewBox="0 0 24 24" id="close" xmlns="http://www.w3.org/2000/svg"><path d="M13.1 12l5.7-5.7c.2-.3.2-.8 0-1.1-.3-.3-.8-.3-1.1 0L12 10.9 6.3 5.2c-.3-.3-.8-.3-1.1 0-.2.3-.2.8 0 1.1l5.7 5.7-5.7 5.7c-.3.3-.3.8 0 1.1.1.1.3.2.6.2s.4-.1.5-.3L12 13l5.7 5.7c.2.2.4.3.5.3s.4-.1.5-.3c.3-.3.3-.8 0-1.1L13.1 12z"/></svg><svg viewBox="0 0 16 16" id="cluster_area" xmlns="http://www.w3.org/2000/svg"><g class="svg-icon__stroke-white svg-icon__fill" stroke-width=".5"><path d="M4.166 6.225l5.821-3.712L12.5 8.634l-4.253 3.995-4.768-1.095.687-5.309z"/><path d="M9.965 2.617S5.584-.025 5.541 0C5.584-.025-.086-.025-.064 0-.086-.025.043 5.065 0 5.026c.043.04 4.102 1.2 4.06 1.16.042.04 5.905-3.57 5.905-3.57z"/><path d="M3.457 11.573L.064 15.851 0 5.283l3.995.838-.538 5.452zM8.29 12.668s3.028 3.35 2.986 3.311c.042.04-10.911-.025-10.954-.064.043.04 3.071-4.149 3.029-4.188.042.04 4.939.941 4.939.941zM12.607 8.674l3.372 4.084v3.221l-4.703-.128-2.77-3.222 4.101-3.955zM9.965 2.746L15.915 0l.064 12.564-3.35-3.866-2.664-5.952zM5.52.04S15.57.04 15.527 0c.043.04-5.305 2.552-5.348 2.513.043.04-4.66-2.473-4.66-2.473z"/></g></svg><svg viewBox="0 0 16 16" id="cluster_points" xmlns="http://www.w3.org/2000/svg"><g class="svg-icon__stroke-white svg-icon__fill" stroke-width=".5"><circle cy="8.835" cx="8.394" r="3.966"/><circle cy="12.875" cx="12.877" r="2.537"/><circle cy="13.219" cx="2.778" r="2.192"/><circle cy="3.835" cx="12.163" r="3.251"/><circle cy="3.786" cx="3.837" r="3.251"/></g></svg><svg viewBox="0 0 24 24" id="columns" xmlns="http://www.w3.org/2000/svg"><path d="M3.9 19.7h7.3V5.8H3.5v13.5c0 .1 0 .2.1.3s.2.1.3.1zm16.6-.4V5.8h-7.7v13.8h7.3c.1 0 .2 0 .3-.1s.1-.1.1-.2zM22 4.7v14.6c0 .5-.2 1-.6 1.4-.4.4-.8.6-1.4.6H3.9c-.5 0-1-.2-1.4-.6-.3-.4-.5-.9-.5-1.4V4.7c0-.5.2-1 .6-1.4s.8-.6 1.4-.6h16.2c.5 0 1 .2 1.4.6.2.4.4.9.4 1.4z"/></svg><svg viewBox="0 0 24 24" id="copy" xmlns="http://www.w3.org/2000/svg"><path d="M20.9 6.3c.3 0 .6.1.8.3.2.2.3.5.3.8V21c0 .3-.1.6-.3.8s-.5.2-.8.2H10.2c-.3 0-.6-.1-.8-.3-.2-.2-.3-.5-.3-.8v-3.2h-6c-.3 0-.6-.1-.8-.3-.2-.2-.3-.5-.3-.8V9.1c0-.3.1-.6.2-1s.3-.6.5-.8l4.6-4.6c.2-.2.5-.4.8-.5.4-.1.7-.2 1-.2h4.6c.3 0 .6.1.8.3.2.2.3.5.3.8v3.7c.5-.3 1-.4 1.4-.4h4.7zm-6 2.4L11.5 12h3.3V8.7zM7.7 4.4L4.4 7.7h3.3V4.4zm2.2 7.2l3.5-3.5V3.4H9.1V8c0 .3-.1.6-.3.8-.2.2-.4.3-.7.3H3.4v7.1h5.7v-2.9c0-.3.1-.6.2-1 .2-.2.4-.5.6-.7zm10.7 9V7.7h-4.3v4.6c0 .3-.1.6-.3.8-.2.2-.5.3-.8.3h-4.6v7.1h10z"/></svg><svg viewBox="0 0 24 24" id="delete" xmlns="http://www.w3.org/2000/svg"><path d="M18.5 5L12 11.6 5.4 5l-.4.4 6.5 6.6L5 18.6l.4.4 6.6-6.6 6.5 6.6.5-.4-6.6-6.6L19 5.4z"/></svg><svg viewBox="0 0 16 22" id="delete-all" xmlns="http://www.w3.org/2000/svg"><path d="M5.818 16.25V7.083a.439.439 0 00-.102-.3.331.331 0 00-.261-.116h-.728a.331.331 0 00-.261.117.439.439 0 00-.102.3v9.166c0 .122.034.221.102.3a.331.331 0 00.261.117h.728c.106 0 .193-.04.26-.118a.439.439 0 00.103-.299zm2.91 0V7.083a.439.439 0 00-.103-.3.331.331 0 00-.261-.116h-.728a.331.331 0 00-.261.117.439.439 0 00-.102.3v9.166c0 .122.034.221.102.3a.331.331 0 00.261.117h.728c.106 0 .193-.04.261-.118a.439.439 0 00.102-.299zm2.908 0V7.083a.439.439 0 00-.102-.3.331.331 0 00-.261-.116h-.728a.331.331 0 00-.26.117.439.439 0 00-.103.3v9.166c0 .122.034.221.102.3a.331.331 0 00.261.117h.728c.106 0 .193-.04.261-.118a.439.439 0 00.102-.299zM5.455 3.333h5.09L10 1.81a.32.32 0 00-.193-.143H6.205a.32.32 0 00-.194.143l-.556 1.523zM16 3.75v.833a.439.439 0 01-.102.3.331.331 0 01-.262.117h-1.09v12.344c0 .72-.179 1.343-.535 1.868-.356.525-.784.788-1.284.788H3.273c-.5 0-.928-.254-1.284-.762s-.534-1.122-.534-1.842V5H.364a.331.331 0 01-.262-.117.439.439 0 01-.102-.3V3.75c0-.122.034-.221.102-.3a.331.331 0 01.262-.117h3.511L4.67 1.16c.114-.321.319-.595.614-.82C5.58.113 5.88 0 6.182 0h3.636c.303 0 .602.113.898.339.295.225.5.499.614.82l.795 2.174h3.511c.106 0 .194.04.262.118A.439.439 0 0116 3.75z"/></svg><svg viewBox="0 0 16 22" id="delete-one" xmlns="http://www.w3.org/2000/svg"><path d="M5.818 7.917v7.5a.439.439 0 01-.102.3.331.331 0 01-.261.116h-.728a.331.331 0 01-.261-.117.439.439 0 01-.102-.3v-7.5c0-.12.034-.22.102-.299a.331.331 0 01.261-.117h.728c.106 0 .193.04.26.117a.439.439 0 01.103.3zm2.91 0v7.5a.439.439 0 01-.103.3.331.331 0 01-.261.116h-.728a.331.331 0 01-.261-.117.439.439 0 01-.102-.3v-7.5c0-.12.034-.22.102-.299a.331.331 0 01.261-.117h.728c.106 0 .193.04.261.117a.439.439 0 01.102.3zm2.908 0v7.5a.439.439 0 01-.102.3.331.331 0 01-.261.116h-.728a.331.331 0 01-.26-.117.439.439 0 01-.103-.3v-7.5c0-.12.034-.22.102-.299a.331.331 0 01.261-.117h.728c.106 0 .193.04.261.117a.439.439 0 01.102.3zm1.455 9.427V5H2.909v12.344c0 .19.027.367.08.527.053.16.108.278.164.352.057.073.097.11.12.11h9.454c.023 0 .063-.037.12-.11.056-.074.111-.191.164-.352.053-.16.08-.336.08-.527zM5.455 3.334h5.09L10 1.81a.32.32 0 00-.193-.143H6.205a.32.32 0 00-.194.143l-.556 1.523zM16 3.75v.833a.439.439 0 01-.102.3.331.331 0 01-.262.117h-1.09v12.344c0 .72-.179 1.343-.535 1.868-.356.525-.784.788-1.284.788H3.273c-.5 0-.928-.254-1.284-.762s-.534-1.122-.534-1.842V5H.364a.331.331 0 01-.262-.117.439.439 0 01-.102-.3V3.75c0-.122.034-.221.102-.3a.331.331 0 01.262-.117h3.511L4.67 1.16c.114-.321.319-.595.614-.82C5.58.113 5.88 0 6.182 0h3.636c.303 0 .602.113.898.339.295.225.5.499.614.82l.795 2.174h3.511c.106 0 .194.04.262.118A.439.439 0 0116 3.75z"/></svg><svg viewBox="0 0 24 24" id="description-layer" xmlns="http://www.w3.org/2000/svg"><path d="M0 0h24v24H0z" fill="none"/><path d="M14 2H6c-1.1 0-1.99.9-1.99 2L4 20c0 1.1.89 2 1.99 2H18c1.1 0 2-.9 2-2V8l-6-6zm2 16H8v-2h8v2zm0-4H8v-2h8v2zm-3-5V3.5L18.5 9H13z"/></svg><svg viewBox="0 0 24 24" id="directions" xmlns="http://www.w3.org/2000/svg"><path d="M21.71 11.29l-9-9a.996.996 0 00-1.41 0l-9 9a.996.996 0 000 1.41l9 9c.39.39 1.02.39 1.41 0l9-9a.996.996 0 000-1.41zM14 14.5V12h-4v3H8v-4c0-.55.45-1 1-1h5V7.5l3.5 3.5-3.5 3.5z"/></svg><svg viewBox="0 0 24 24" id="document" xmlns="http://www.w3.org/2000/svg"><path d="M14 8V2l6 6h-6zm-1 1h7v12c0 .3 0 .6-.2.8-.2.2-.4.2-.7.2h-15c-.3 0-.6-.1-.8-.3-.2-.2-.3-.4-.3-.7V3.1c0-.3.1-.6.3-.8s.5-.3.8-.3H13v7z"/></svg><svg viewBox="0 0 24 24" id="edit" xmlns="http://www.w3.org/2000/svg"><path d="M12 15.9l1.3-1.3-1.7-1.7-1.3 1.3v.6h1.1v1.1h.6zm4.9-8c-.1-.1-.2-.1-.4 0l-3.9 3.9c-.1.1-.1.3 0 .4.1.1.2.1.4 0l3.9-3.9c.1-.2.1-.3 0-.4zm.9 6.6v2.1c0 .9-.3 1.6-.9 2.3-.6.6-1.4.9-2.3.9H5.2c-.9 0-1.6-.3-2.3-.9-.6-.6-.9-1.3-.9-2.2V7.3c0-.9.3-1.6.9-2.3s1.4-.9 2.3-.9h9.3c.5 0 .9.1 1.3.3.2 0 .2.1.3.2 0 .1 0 .2-.1.3l-.5.5c-.1.1-.2.1-.4.1s-.3-.1-.5-.1H5.2c-.5.1-.9.3-1.2.7-.4.3-.6.7-.6 1.2v9.3c0 .5.2.9.5 1.3.4.4.8.5 1.3.5h9.3c.5 0 .9-.2 1.3-.5.4-.4.5-.8.5-1.3v-1.4c0-.1 0-.2.1-.2l.7-.7c.1-.1.2-.1.4-.1.2.1.3.2.3.3zm-1.1-8.2l3.2 3.2-7.5 7.5H9.2v-3.2l7.5-7.5zm5 1.4l-1 1-3.2-3.2 1-1c.2-.2.5-.3.8-.3s.6.1.8.3l1.7 1.7c.1.2.2.5.2.8s-.1.5-.3.7z"/></svg><svg viewBox="0 0 24 24" id="enable" xmlns="http://www.w3.org/2000/svg"><path d="M21.2 12.8c0 1.3-.2 2.4-.7 3.6-.5 1.1-1.1 2.1-2 2.9-.8.8-1.8 1.5-2.9 2s-2.3.7-3.6.7-2.4-.2-3.6-.7-2.1-1.1-2.9-2c-.8-.8-1.5-1.8-2-2.9s-.7-2.4-.7-3.6c0-1.5.3-2.8 1-4.1s1.6-2.4 2.7-3.2c.3-.4.7-.5 1.1-.4.4.1.8.3 1 .6.3.3.4.7.3 1.1-.1.4-.3.8-.6 1-.8.6-1.4 1.4-1.8 2.2-.4.9-.6 1.8-.6 2.7 0 .8.2 1.6.5 2.4.3.8.8 1.4 1.3 2 .6.6 1.2 1 2 1.3.8.3 1.6.5 2.4.5s1.6-.2 2.4-.5c.8-.3 1.4-.8 2-1.3.6-.6 1-1.2 1.3-2 .3-.8.5-1.6.5-2.4 0-1-.2-1.9-.6-2.7-.4-.9-1-1.6-1.8-2.2-.3-.3-.5-.6-.6-1-.1-.4 0-.8.3-1.1.2-.3.6-.5 1-.6.4-.1.8 0 1.1.3 1.2.9 2.1 2 2.7 3.2.5 1.3.8 2.7.8 4.2zm-7.7-9.3v7.7c0 .4-.2.8-.5 1.1s-.7.5-1.1.5-.8-.2-1.1-.5-.5-.7-.5-1.1V3.5c0-.4.2-.8.5-1.1S11.6 2 12 2s.8.2 1.1.5.4.6.4 1z"/></svg><svg viewBox="0 0 24 24" id="enabled-dot" xmlns="http://www.w3.org/2000/svg"><circle cx="12" cy="12" r="4"/></svg><svg viewBox="0 0 24 22" id="eraser" xmlns="http://www.w3.org/2000/svg"><path d="M23.312 20.536c.38 0 .688.328.688.732 0 .404-.308.732-.688.732H5.17a.667.667 0 01-.487-.215l-4.482-4.77a.766.766 0 010-1.036L15.01.214A.667.667 0 0115.496 0c.182 0 .357.077.486.214L23.8 8.536a.766.766 0 010 1.035l-10.3 10.965h9.813zm-11.758 0l1.72-1.831-6.844-7.286-4.77 5.077 3.794 4.04h6.1z"/></svg><svg viewBox="0 0 24 24" id="eraser-all" xmlns="http://www.w3.org/2000/svg"><path d="M23.312 21.536c.38 0 .688.328.688.732 0 .404-.308.732-.688.732H5.17a.667.667 0 01-.487-.215l-4.482-4.77a.766.766 0 010-1.036L15.01 1.214A.667.667 0 0115.496 1c.182 0 .357.077.486.214L23.8 9.536a.766.766 0 010 1.035l-10.3 10.965h9.813zm-11.758 0l1.72-1.831-6.844-7.286-4.77 5.077 3.794 4.04h6.1zm4.968-14.71l-4.09 3.047 1.487 1.338-2.676 2.972 6.968-1.799-1.467-1.321 2.75-1.56-2.972-2.677z"/></svg><svg viewBox="0 0 24 24" class="style-scope iron-icon" id="expand-down"><path d="M16.59 8.59L12 13.17 7.41 8.59 6 10l6 6 6-6z"/></svg><svg viewBox="0 0 24 24" id="expand-left" xmlns="http://www.w3.org/2000/svg"><path d="M8.3 11.7l6 6 1.4-1.4-4.6-4.6 4.6-4.6-1.4-1.4-6 6z"/></svg><svg viewBox="0 0 24 24" id="expand-right" xmlns="http://www.w3.org/2000/svg"><path d="M15.7 11.7l-6-6-1.4 1.4 4.6 4.6-4.6 4.6 1.4 1.4 6-6z"/></svg><svg viewBox="0 0 24 24" id="expand-up"><path d="M12 8l-6 6 1.41 1.41L12 10.83l4.59 4.58L18 14z"/></svg><svg viewBox="0 0 24 24" id="expand_more" xmlns="http://www.w3.org/2000/svg"><path d="M16.59 8.59L12 13.17 7.41 8.59 6 10l6 6 6-6z"/><path d="M0 0h24v24H0z" fill="none"/></svg><svg viewBox="0 0 24 24" id="export" xmlns="http://www.w3.org/2000/svg"><path d="M17.4 18.9c0-.2-.1-.4-.2-.5-.2-.2-.3-.2-.5-.2s-.4.1-.5.2c-.2.2-.2.3-.2.5s.1.4.2.5c.2.2.3.2.5.2s.4-.1.5-.2c.1-.1.2-.3.2-.5zm3.1 0c0-.2-.1-.4-.2-.5s-.3-.2-.5-.2-.4.1-.5.2-.2.3-.2.5.1.4.2.5c.2.2.3.2.5.2s.4-.1.5-.2c.1-.1.2-.3.2-.5zm1.5-2.7V20c0 .3-.1.6-.3.8-.2.2-.5.3-.8.3H3.2c-.3 0-.6-.1-.8-.3-.3-.1-.4-.4-.4-.7v-3.8c0-.3.1-.6.3-.8s.5-.3.8-.3h5.6l1.6 1.6c.5.4 1 .7 1.6.7s1.2-.2 1.6-.7l1.6-1.6h5.6c.3 0 .6.1.8.3.4.1.5.4.5.7zm-3.9-6.8c.1.3.1.6-.2.8l-5.4 5.4c-.1.2-.3.2-.5.2s-.4-.1-.5-.2l-5.4-5.4c-.3-.2-.3-.5-.2-.8.1-.3.4-.5.7-.5h3.1V3.5c0-.2.1-.4.2-.5.2-.2.3-.2.5-.2h3.1c.2 0 .4.1.5.2.2.2.2.3.2.5v5.4h3.1c.4 0 .7.2.8.5z"/></svg><svg viewBox="0 0 24 24" id="eye" xmlns="http://www.w3.org/2000/svg"><path d="M0 0h24v24H0z" fill="none"/><path d="M12 4.5C7 4.5 2.73 7.61 1 12c1.73 4.39 6 7.5 11 7.5s9.27-3.11 11-7.5c-1.73-4.39-6-7.5-11-7.5zM12 17c-2.76 0-5-2.24-5-5s2.24-5 5-5 5 2.24 5 5-2.24 5-5 5zm0-8c-1.66 0-3 1.34-3 3s1.34 3 3 3 3-1.34 3-3-1.34-3-3-3z"/></svg><svg viewBox="0 0 24 24" id="favorite" xmlns="http://www.w3.org/2000/svg"><path d="M17.9 21.5h-.2l-5.7-3-5.7 3c-.1.1-.3.1-.4 0-.1-.1-.2-.3-.2-.4l1.1-6.4-4.6-4.5C2 10 2 9.9 2 9.7s.2-.3.3-.3l6.4-.9 2.9-5.8c.1-.1.2-.2.4-.2s.3.1.4.2l2.9 5.8 6.4.9c.2 0 .3.1.3.3s0 .3-.1.4l-4.6 4.5 1.1 6.4c0 .2 0 .3-.2.4-.1.1-.2.1-.3.1zM12 17.6h.2l5.2 2.7-1-5.8c0-.1 0-.3.1-.4l4.2-4.1-5.8-.8c-.1 0-.3-.1-.3-.2L12 3.8 9.4 9.1c-.1.1-.2.2-.3.2l-5.8.8 4.2 4.1c.1.1.1.2.1.4l-1 5.8 5.2-2.7c.1-.1.1-.1.2-.1z"/></svg><svg viewBox="0 0 24 24" id="filter" xmlns="http://www.w3.org/2000/svg"><path d="M19.9 4.5c.2.3.1.5-.1.8l-5.6 5.6v8.4c0 .3-.2.6-.5.6-.1.1-.2.1-.3.1-.2 0-.4-.1-.5-.2L10 16.9c-.2-.2-.2-.3-.2-.5v-5.5L4.2 5.3c-.2-.3-.3-.5-.1-.8.1-.3.3-.5.6-.5h14.6c.3 0 .5.2.6.5z"/></svg><svg viewBox="0 0 24 24" id="flip_to_front" xmlns="http://www.w3.org/2000/svg"><path fill="none" d="M0 0h24v24H0V0z"/><path d="M3 13h2v-2H3v2zm0 4h2v-2H3v2zm2 4v-2H3a2 2 0 002 2zM3 9h2V7H3v2zm12 12h2v-2h-2v2zm4-18H9a2 2 0 00-2 2v10a2 2 0 002 2h10c1.1 0 2-.9 2-2V5c0-1.1-.9-2-2-2zm-1 12h-8c-.55 0-1-.45-1-1V6c0-.55.45-1 1-1h8c.55 0 1 .45 1 1v8c0 .55-.45 1-1 1zm-7 6h2v-2h-2v2zm-4 0h2v-2H7v2z"/></svg><svg viewBox="0 0 24 24" id="format_bold" xmlns="http://www.w3.org/2000/svg"><path d="M15.6 10.79c.97-.67 1.65-1.77 1.65-2.79 0-2.26-1.75-4-4-4H7v14h7.04c2.09 0 3.71-1.7 3.71-3.79 0-1.52-.86-2.82-2.15-3.42zM10 6.5h3c.83 0 1.5.67 1.5 1.5s-.67 1.5-1.5 1.5h-3v-3zm3.5 9H10v-3h3.5c.83 0 1.5.67 1.5 1.5s-.67 1.5-1.5 1.5z"/><path d="M0 0h24v24H0z" fill="none"/></svg><svg viewBox="0 0 24 24" id="format_italic" xmlns="http://www.w3.org/2000/svg"><path d="M0 0h24v24H0z" fill="none"/><path d="M10 4v3h2.21l-3.42 8H6v3h8v-3h-2.21l3.42-8H18V4z"/></svg><svg viewBox="0 0 24 24" id="format_list" xmlns="http://www.w3.org/2000/svg"><path d="M0 0h24v24H0V0z" fill="none"/><path d="M4 10.5c-.83 0-1.5.67-1.5 1.5s.67 1.5 1.5 1.5 1.5-.67 1.5-1.5-.67-1.5-1.5-1.5zm0-6c-.83 0-1.5.67-1.5 1.5S3.17 7.5 4 7.5 5.5 6.83 5.5 6 4.83 4.5 4 4.5zm0 12c-.83 0-1.5.68-1.5 1.5s.68 1.5 1.5 1.5 1.5-.68 1.5-1.5-.67-1.5-1.5-1.5zM7 19h14v-2H7v2zm0-6h14v-2H7v2zm0-8v2h14V5H7z"/></svg><svg viewBox="0 0 24 24" id="format_underlined" xmlns="http://www.w3.org/2000/svg"><path d="M0 0h24v24H0z" fill="none"/><path d="M12 17c3.31 0 6-2.69 6-6V3h-2.5v8c0 1.93-1.57 3.5-3.5 3.5S8.5 12.93 8.5 11V3H6v8c0 3.31 2.69 6 6 6zm-7 2v2h14v-2H5z"/></svg><svg viewBox="0 0 24 24" id="fullscreen" xmlns="http://www.w3.org/2000/svg"><path d="M0 0h24v24H0z" fill="none"/><path d="M7 14H5v5h5v-2H7v-3zm-2-4h2V7h3V5H5v5zm12 7h-3v2h5v-5h-2v3zM14 5v2h3v3h2V5h-5z"/></svg><svg viewBox="0 0 24 24" id="fullscreen_exit" xmlns="http://www.w3.org/2000/svg"><path d="M0 0h24v24H0z" fill="none"/><path d="M5 16h3v3h2v-5H5v2zm3-8H5v2h5V5H8v3zm6 11h2v-3h3v-2h-5v5zm2-11V5h-2v5h5V8h-3z"/></svg><svg viewBox="0 0 24 24" id="geo-aerial" xmlns="http://www.w3.org/2000/svg"><path d="M1 1h3.4c0 1.9-1.5 3.4-3.4 3.4V1zm0 8V6.7c3.2 0 5.7-2.6 5.7-5.7H9c0 4.4-3.6 8-8 8zm13-3l-3.8 5 2.9 3.8-1.6 1.2C9.8 13.8 7 10 7 10l-6 8h22L14 6z"/></svg><svg viewBox="0 0 24 24" id="geo-circle" xmlns="http://www.w3.org/2000/svg"><circle cx="12" cy="12" r="9"/></svg><svg viewBox="0 0 24 24" id="geo-delete" xmlns="http://www.w3.org/2000/svg"><path d="M6 19c0 1.1.9 2 2 2h8c1.1 0 2-.9 2-2V7H6v12zM19 4h-3.5l-1-1h-5l-1 1H5v2h14V4z"/></svg><svg viewBox="0 0 24 24" id="geo-delete-all" xmlns="http://www.w3.org/2000/svg"><path class="st0" d="M13.4 12l5.7-5.7c.4-.4.4-1 0-1.4s-1-.4-1.4 0L12 10.6 6.3 4.9c-.4-.4-1-.4-1.4 0s-.4 1 0 1.4l5.7 5.7-5.7 5.7c-.4.4-.4 1 0 1.4.2.2.5.3.7.3s.5-.1.7-.3l5.7-5.7 5.7 5.7c.2.2.5.3.7.3s.5-.1.7-.3c.4-.4.4-1 0-1.4L13.4 12z"/></svg><svg viewBox="0 0 24 24" id="geo-edit" xmlns="http://www.w3.org/2000/svg"><path d="M3 17.25V21h3.75L17.81 9.94l-3.75-3.75L3 17.25zM20.71 7.04a.996.996 0 000-1.41l-2.34-2.34a.996.996 0 00-1.41 0l-1.83 1.83 3.75 3.75 1.83-1.83z"/></svg><svg viewBox="0 0 24 24" id="geo-label" xmlns="http://www.w3.org/2000/svg"><path d="M21.41 11.58l-9-9C12.05 2.22 11.55 2 11 2H4c-1.1 0-2 .9-2 2v7c0 .55.22 1.05.59 1.42l9 9c.36.36.86.58 1.41.58.55 0 1.05-.22 1.41-.59l7-7c.37-.36.59-.86.59-1.41 0-.55-.23-1.06-.59-1.42zM5.5 7C4.67 7 4 6.33 4 5.5S4.67 4 5.5 4 7 4.67 7 5.5 6.33 7 5.5 7z"/></svg><svg viewBox="0 0 24 24" id="geo-mixed" xmlns="http://www.w3.org/2000/svg"><path d="M2.3 6.3h9.3V22H2.3z"/><path d="M18.9 2H2.3v2.5h14.8v4.2h2.5V2z"/><circle cx="17.6" cy="16.9" r="4.2"/></svg><svg viewBox="0 0 24 24" id="geo-place" xmlns="http://www.w3.org/2000/svg"><path d="M18.7 8.7C18.7 12.3 12 22 12 22S5.3 12.3 5.3 8.7 8.3 2 12 2s6.7 3 6.7 6.7zM12 11.5c2 0 3.7-1.7 3.7-3.7S14 4.2 12 4.2 8.3 5.8 8.3 7.8s1.7 3.7 3.7 3.7z"/></svg><svg viewBox="0 0 24 24" id="geo-poi" xmlns="http://www.w3.org/2000/svg"><circle cx="12" cy="12" r="3.2"/><path d="M9 2L7.17 4H4c-1.1 0-2 .9-2 2v12c0 1.1.9 2 2 2h16c1.1 0 2-.9 2-2V6c0-1.1-.9-2-2-2h-3.17L15 2H9zm3 15c-2.76 0-5-2.24-5-5s2.24-5 5-5 5 2.24 5 5-2.24 5-5 5z"/><path d="M0 0h24v24H0z" fill="none"/></svg><svg viewBox="0 0 24 24" id="geo-point" xmlns="http://www.w3.org/2000/svg"><path d="M19 9c0 3.8-7 14-7 14S5 12.8 5 9s3.1-7 7-7 7 3.1 7 7zm-7 3c2.2 0 4-1.9 4-4.1S14.2 4 12 4 8 5.8 8 7.9 9.8 12 12 12z"/></svg><svg viewBox="0 0 24 24" id="geo-polygon" xmlns="http://www.w3.org/2000/svg"><path d="M19.8 16.2L5.4 20 2 4l10.5 6.3L22 5.7z"/></svg><svg viewBox="0 0 24 24" id="geo-polyline" xmlns="http://www.w3.org/2000/svg"><path d="M3.4 19.8c-.2 0-.4 0-.5-.1-.7-.3-1.1-1.1-.8-1.9L7 6.1l7.2 7 5.2-8.2c.4-.7 1.3-.9 2-.5s.9 1.3.5 2l-7 11.2L8 11.1 4.7 19c-.2.5-.7.8-1.3.8z"/></svg><svg viewBox="0 0 24 24" id="geo-postcode" xmlns="http://www.w3.org/2000/svg"><path d="M20.4 5.6H3.6c-.9 0-1.6.7-1.6 1.6v9.6c0 .9.7 1.6 1.6 1.6h16.8c.9 0 1.6-.7 1.6-1.6V7.2c0-.9-.7-1.6-1.6-1.6zm-.4.8l-8 7-8-7h16zm-16.9 11c-.2-.1-.3-.4-.3-.6V7.2c0-.2.1-.4.3-.6L9.2 12l-6.1 5.4zm.9.2l5.8-5.1 2.2 1.9 2.2-1.9 5.8 5.1H4zm17.2-.8c0 .2-.1.4-.3.6L14.8 12 21 6.6c.2.1.3.4.3.6v9.6z"/></svg><svg viewBox="0 0 24 24" id="geo-rectangle" xmlns="http://www.w3.org/2000/svg"><path d="M2 6h20v12H2z"/></svg><svg viewBox="0 0 24 24" id="geo-road" xmlns="http://www.w3.org/2000/svg"><path d="M23 20L19 6h-6v2h-2V6H5L1 20h10v-2h2v2h10zm-12-5v-4h2v4h-2z"/></svg><svg viewBox="0 0 24 24" id="geo-road-bw" xmlns="http://www.w3.org/2000/svg"><path d="M13 15h-2v-4h2v4zm10 5H1L5 6h14l4 14zm-10-2v1h8.7L18.2 7H13v1h-2V7H5.8L2.3 19H11v-1h2z"/></svg><svg viewBox="0 0 24 24" id="geo-rotate"><path d="M21 3L3 10.53v.98l6.84 2.65L12.48 21h.98L21 3z" class="style-scope iron-icon"/></svg><svg viewBox="0 0 24 24" id="geo-split"><path d="M9.64 7.64c.23-.5.36-1.05.36-1.64 0-2.21-1.79-4-4-4S2 3.79 2 6s1.79 4 4 4c.59 0 1.14-.13 1.64-.36L10 12l-2.36 2.36C7.14 14.13 6.59 14 6 14c-2.21 0-4 1.79-4 4s1.79 4 4 4 4-1.79 4-4c0-.59-.13-1.14-.36-1.64L12 14l7 7h3v-1L9.64 7.64zM6 8c-1.1 0-2-.89-2-2s.9-2 2-2 2 .89 2 2-.9 2-2 2zm0 12c-1.1 0-2-.89-2-2s.9-2 2-2 2 .89 2 2-.9 2-2 2zm6-7.5c-.28 0-.5-.22-.5-.5s.22-.5.5-.5.5.22.5.5-.22.5-.5.5zM19 3l-6 6 2 2 7-7V3z"/></svg><svg viewBox="0 0 24 24" id="geo-street" xmlns="http://www.w3.org/2000/svg"><path d="M20.4 5.6H3.6c-.9 0-1.6.7-1.6 1.6v9.6c0 .9.7 1.6 1.6 1.6h16.8c.9 0 1.6-.7 1.6-1.6V7.2c0-.9-.7-1.6-1.6-1.6zm-.4.8l-8 7-8-7h16zm-16.9 11c-.2-.1-.3-.4-.3-.6V7.2c0-.2.1-.4.3-.6L9.2 12l-6.1 5.4zm.9.2l5.8-5.1 2.2 1.9 2.2-1.9 5.8 5.1H4zm17.2-.8c0 .2-.1.4-.3.6L14.8 12 21 6.6c.2.1.3.4.3.6v9.6z"/></svg><svg viewBox="0 0 24 24" id="geo-terrain"><path d="M14 6l-3.75 5 2.85 3.8-1.6 1.2C9.81 13.75 7 10 7 10l-6 8h22L14 6z"/></svg><svg version="1.1" id="geo-terrain-bw" x="0" y="0" viewBox="0 0 24 24" xml:space="preserve" xmlns="http://www.w3.org/2000/svg"><style>.st0{fill:none;stroke:#000;stroke-miterlimit:10}</style><path class="st0" d="M14 6l-5 6.7 1.3 1.8 1.2 1.6C9.8 13.8 7 10 7 10l-6 8h22L14 6z"/></svg><svg version="1.1" id="geo-terrain-os" x="0" y="0" viewBox="0 0 24 24" xml:space="preserve" xmlns="http://www.w3.org/2000/svg"><style>.st0{fill:none;stroke:#000;stroke-miterlimit:10}</style><path class="st0" d="M14 6l-5 6.7 1.3 1.8 1.2 1.6C9.8 13.8 7 10 7 10l-6 8h22L14 6z"/><text class="st0" transform="matrix(.58101 0 0 .58101 8.884 3.574)" xml:space="preserve" text-anchor="start" font-family="Helvetica, Arial, sans-serif" font-size="13" id="cqsvg_2" y="7" x="-15">OS</text></svg><svg viewBox="0 0 24 24" id="geo-tilt" xmlns="http://www.w3.org/2000/svg"><path d="M11.1 11H4.7l.8-2.1h5.6zM11.1 17.2h-9l2-4.7h7zM18.2 8.9h-5.5V11H19M19.6 12.5h-6.9v4.7h8.8"/></svg><svg viewBox="0 0 24 24" id="geo-traffic" xmlns="http://www.w3.org/2000/svg"><path d="M17.9 9.2h-2v-1c.9-.7 1.7-1.7 2-2.8h-2v-.7c0-1.5-1.2-2.7-2.7-2.7h-2.5C9.3 2 8.1 3.2 8.1 4.7v.7h-2c.4 1.1 1.1 2.1 2 2.8v1.1h-2c.4 1.1 1.1 2.1 2 2.8v1.1h-2c.4 1.1 1.1 2.1 2 2.8v2.2c0 1.5 1.2 2.7 2.7 2.7h.4V22h1.7v-1.3h.4c1.5 0 2.7-1.2 2.7-2.7v-2.2c.9-.7 1.7-1.7 2-2.8h-2v-1c.9-.7 1.6-1.6 1.9-2.8zM12 18.7c-1.1 0-1.9-.9-1.9-1.9 0-1.1.9-1.9 1.9-1.9 1.1 0 1.9.9 1.9 1.9 0 1-.8 1.9-1.9 1.9zm0-5.4c-1.1 0-1.9-.9-1.9-1.9 0-1.1.9-1.9 1.9-1.9 1.1 0 1.9.9 1.9 1.9 0 1-.8 1.9-1.9 1.9zm0-5.4c-1.1 0-1.9-.9-1.9-1.9 0-1.1.8-2 1.9-2 1.1 0 1.9.9 1.9 1.9 0 1.2-.8 2-1.9 2z"/></svg><svg viewBox="0 0 24 24" id="geo-travel" xmlns="http://www.w3.org/2000/svg"><path d="M20 1c-1.2 0-2.2.7-2.7 1.7-2.8-.2-6.8 0-8.2 2.3-1.1 1.7-.4 4.3 2.1 7.6 1.9 2.5 2.6 4.5 2 5.5-.8 1.3-3.7 1.5-6.3 1.3C6.6 18 5.4 17 4 17c-1.7 0-3 1.3-3 3s1.3 3 3 3c1.2 0 2.2-.7 2.7-1.6.6 0 1.2.1 1.8.1 2.5 0 5.2-.5 6.4-2.3 1.1-1.8.5-4.4-2.1-7.8-1.9-2.5-2.6-4.4-2-5.4.8-1.3 3.7-1.5 6.2-1.3C17.4 6 18.6 7 20 7c1.7 0 3-1.3 3-3s-1.3-3-3-3z"/></svg><svg viewBox="0 0 24 24" id="group_show" xmlns="http://www.w3.org/2000/svg"><path fill="none" d="M0 0h24v24H0z"/><path d="M3 19h6v-7H3v7zm7 0h12v-7H10v7zM3 5v6h19V5H3z"/></svg><svg viewBox="0 0 24 24" id="help" xmlns="http://www.w3.org/2000/svg"><path fill="none" d="M0 0h24v24H0z"/><path d="M11 18h2v-2h-2v2zm1-16C6.48 2 2 6.48 2 12s4.48 10 10 10 10-4.48 10-10S17.52 2 12 2zm0 18c-4.41 0-8-3.59-8-8s3.59-8 8-8 8 3.59 8 8-3.59 8-8 8zm0-14c-2.21 0-4 1.79-4 4h2c0-1.1.9-2 2-2s2 .9 2 2c0 2-3 1.75-3 5h2c0-2.25 3-2.5 3-5 0-2.21-1.79-4-4-4z"/></svg><svg viewBox="0 0 24 24" id="home" xmlns="http://www.w3.org/2000/svg"><path d="M10 20v-6h4v6h5v-8h3L12 3 2 12h3v8h5z"/></svg><svg viewBox="0 0 24 24" id="home-add" xmlns="http://www.w3.org/2000/svg"><path d="M21 9c0 3.8-7 14-7 14S7 12.8 7 9s3.1-7 7-7 7 3.1 7 7zm-7 3c2.2 0 4-1.9 4-4.1S16.2 4 14 4s-4 1.8-4 3.9 1.8 4.1 4 4.1zM9 20H6v3H4v-3H1v-2h3v-3h2v3h3z"/></svg><svg viewBox="0 0 24 24" id="info" xmlns="http://www.w3.org/2000/svg"><path d="M15.3 18.3v-2.1c0-.1 0-.2-.1-.3s-.2-.1-.3-.1h-1.3V9.1c0-.1 0-.2-.1-.3s-.2-.1-.3-.1H9.1c-.1 0-.2 0-.3.1s-.1.2-.1.3v2.1c0 .1 0 .2.1.3s.2.1.3.1h1.3v4.2H9.1c-.1 0-.2 0-.3.1s-.1.1-.1.3v2.1c0 .1 0 .2.1.3s.2.1.3.1h5.8c.1 0 .2 0 .3-.1s.1-.2.1-.3zM13.7 6.6V4.5c0-.1 0-.2-.1-.3s-.2-.1-.3-.1h-2.5c-.1 0-.2 0-.3.1s-.1.2-.1.3v2.1c0 .1 0 .2.1.3s.1.1.3.1h2.5c.1 0 .2 0 .3-.1s.1-.2.1-.3zM22 12c0 1.8-.4 3.5-1.3 5s-2.1 2.7-3.6 3.6c-1.5.9-3.2 1.3-5 1.3s-3.5-.4-5-1.3-2.7-2.1-3.6-3.6S2 13.8 2 12s.4-3.5 1.3-5S5.4 4.2 7 3.3 10.2 2 12 2s3.5.4 5 1.3 2.7 2.1 3.6 3.6c1 1.6 1.4 3.3 1.4 5.1z"/></svg><svg viewBox="0 0 24 24" id="insight" xmlns="http://www.w3.org/2000/svg"><path d="M6.3 14.1c0-.4-.1-.7-.4-1s-.6-.4-1-.4-.7.1-1 .4-.4.6-.4 1 .1.7.4 1c.3.3.6.4 1 .4s.7-.1 1-.4c.2-.2.4-.6.4-1zm2.1-5c0-.4-.1-.7-.4-1-.3-.2-.6-.4-1-.4s-.7.2-1 .4c-.3.3-.4.6-.4 1s.1.7.4 1c.3.3.6.4 1 .4s.7-.1 1-.4c.3-.2.4-.6.4-1zm4.8 5.4l1.1-4.3c0-.2 0-.4-.1-.5s-.2-.3-.4-.3c-.2-.1-.4 0-.5.1-.2.1-.3.2-.3.4l-1.1 4.3c-.4 0-.8.2-1.2.5-.3.3-.6.7-.7 1.1-.1.6-.1 1.1.2 1.6s.7.8 1.3 1c.6.1 1.1.1 1.6-.2.5-.3.8-.7 1-1.3.1-.4.1-.9-.1-1.3-.2-.5-.4-.8-.8-1.1zm7.4-.4c0-.4-.1-.7-.4-1s-.6-.4-1-.4-.7.1-1 .4c-.3.3-.4.6-.4 1s.1.7.4 1c.3.3.6.4 1 .4s.7-.1 1-.4c.2-.2.4-.6.4-1zM13.4 7c0-.4-.1-.7-.4-1s-.6-.4-1-.4-.7.1-1 .4-.4.6-.4 1 .1.7.4 1c.3.3.6.4 1 .4s.7-.1 1-.4c.3-.3.4-.6.4-1zm5 2.1c0-.4-.1-.7-.4-1-.3-.3-.6-.4-1-.4s-.7.1-1 .4c-.3.3-.4.6-.4 1s.1.7.4 1c.3.3.6.4 1 .4s.7-.1 1-.4c.3-.2.4-.6.4-1zm3.6 5c0 1.9-.5 3.7-1.6 5.4-.1.2-.3.3-.6.3H4.2c-.3 0-.5-.1-.6-.3-1-1.6-1.6-3.4-1.6-5.4 0-1.4.3-2.6.8-3.9S4 8 4.9 7.1s2-1.6 3.2-2.1 2.5-.8 3.9-.8 2.6.3 3.9.8 2.3 1.2 3.2 2.1 1.6 2 2.1 3.2.8 2.5.8 3.8z"/></svg><svg viewBox="0 0 24 24" id="insights" xmlns="http://www.w3.org/2000/svg"><path d="M12 5.3C5.4 5.3 2 12 2 12s2.6 6.7 10 6.7c6.7 0 10-6.6 10-6.6s-3.3-6.8-10-6.8zm0 10.9c-2.4 0-4.2-1.8-4.2-4.2 0-2.3 1.7-4.2 4.2-4.2s4.2 1.8 4.2 4.2c0 2.3-1.8 4.2-4.2 4.2zm0-6.7c-1.4 0-2.5 1.2-2.5 2.5s1.1 2.5 2.5 2.5 2.5-1.2 2.5-2.5-1.1-2.5-2.5-2.5z"/></svg><svg viewBox="0 0 24 24" id="intersection" xmlns="http://www.w3.org/2000/svg"><g fill="transparent" class="svg-icon__stroke"><circle cx="12" cy="9" r="6"/><circle cx="9" cy="15" r="6"/><circle cx="15" cy="15" r="6"/></g><path class="svg-icon__fill" d="M12 10l-2 2-1 1v2h6v-2l-1-1z"/></svg><svg viewBox="0 0 24 24" id="isogram" xmlns="http://www.w3.org/2000/svg"><path d="M15.3 12c0 .9-.3 1.7-1 2.4s-1.4 1-2.4 1-1.7-.3-2.4-1-1-1.4-1-2.4.3-1.7 1-2.4 1.4-1 2.4-1 1.7.3 2.4 1 1 1.5 1 2.4zm1.7 0c0-1.4-.5-2.6-1.5-3.5S13.4 7 12 7s-2.6.5-3.5 1.5S7 10.6 7 12s.5 2.6 1.5 3.5S10.6 17 12 17s2.6-.5 3.5-1.5S17 13.4 17 12zm1.7 0c0 1.8-.7 3.4-2 4.7s-2.9 2-4.7 2-3.4-.7-4.7-2-2-2.9-2-4.7.7-3.4 2-4.7 2.9-2 4.7-2 3.4.7 4.7 2 2 2.9 2 4.7zm1.6 0c0-1.1-.2-2.2-.7-3.2-.4-1-1-1.9-1.8-2.7s-1.6-1.3-2.7-1.8-2-.6-3.1-.6-2.2.2-3.2.6-1.9 1-2.7 1.8-1.3 1.6-1.8 2.7-.6 2.1-.6 3.2.2 2.2.7 3.2 1 1.9 1.8 2.7 1.6 1.3 2.7 1.8c1 .4 2.1.7 3.2.7s2.2-.2 3.2-.7c1-.4 1.9-1 2.7-1.8s1.3-1.6 1.8-2.7c.3-1 .5-2.1.5-3.2zm1.7 0c0 1.8-.4 3.5-1.3 5s-2.1 2.7-3.6 3.6c-1.5.9-3.2 1.3-5 1.3s-3.5-.4-5-1.3-2.7-2.1-3.6-3.6S2 13.8 2 12s.4-3.5 1.3-5S5.4 4.2 7 3.3 10.2 2 12 2s3.5.4 5 1.3 2.7 2.1 3.6 3.6c1 1.6 1.4 3.3 1.4 5.1z"/></svg><svg viewBox="0 0 24 24" id="label" xmlns="http://www.w3.org/2000/svg"><path d="M9 7c0-.6-.2-1.1-.6-1.4C8.1 5.2 7.6 5 7 5s-.9.2-1.4.6c-.4.5-.6.9-.6 1.4s.2 1.1.6 1.4c.3.4.8.6 1.4.6s1.1-.2 1.4-.6c.4-.3.6-.8.6-1.4zm12 6.6c0 .4-.2.8-.5 1.1l-5.8 5.8c-.3.3-.6.5-1.1.5-.4 0-.8-.2-1.1-.5L4.1 12c-.3-.3-.5-.7-.8-1.2-.2-.4-.3-1-.3-1.3v-5c0-.4.2-.8.5-1.1s.6-.4 1-.4h4.9c.4 0 .9.1 1.4.3.5.2.9.5 1.2.8l8.5 8.5c.3.3.5.7.5 1z"/></svg><svg viewBox="0 0 24 24" id="layer-share" xmlns="http://www.w3.org/2000/svg"><path d="M14.3 20v-5.1c-6.5 0-10.5 2-13.7 6.2C2 14.9 5.4 8.9 14.3 7.7V2.9l9.1 8.5-9.1 8.6z"/></svg><svg viewBox="0 0 24 24" id="layers" xmlns="http://www.w3.org/2000/svg"><path d="M20.1 14.6L12 18.7l-8.1-4.1-1.9.9 10 5 10-5-1.9-.9zm0-3.5l-8.1 4L3.9 11 2 12l10 5 10-5-1.9-.9zM12 3.5l-10 5 10 5 10-5-10-5z"/></svg><svg viewBox="0 0 24 24" id="locate" xmlns="http://www.w3.org/2000/svg"><path d="M12 8c-2.21 0-4 1.79-4 4s1.79 4 4 4 4-1.79 4-4-1.79-4-4-4zm8.94 3A8.994 8.994 0 0013 3.06V1h-2v2.06A8.994 8.994 0 003.06 11H1v2h2.06A8.994 8.994 0 0011 20.94V23h2v-2.06A8.994 8.994 0 0020.94 13H23v-2h-2.06zM12 19c-3.87 0-7-3.13-7-7s3.13-7 7-7 7 3.13 7 7-3.13 7-7 7z"/></svg><svg viewBox="0 0 24 24" id="location_off" xmlns="http://www.w3.org/2000/svg"><path d="M0 0h24v24H0zm11.75 11.47l-.11-.11z" fill="none"/><path d="M12 6.5A2.5 2.5 0 0114.5 9c0 .74-.33 1.39-.83 1.85l3.63 3.63c.98-1.86 1.7-3.8 1.7-5.48 0-3.87-3.13-7-7-7a7 7 0 00-5.04 2.15l3.19 3.19c.46-.52 1.11-.84 1.85-.84zm4.37 9.6l-4.63-4.63-.11-.11L3.27 3 2 4.27l3.18 3.18C5.07 7.95 5 8.47 5 9c0 5.25 7 13 7 13s1.67-1.85 3.38-4.35L18.73 21 20 19.73l-3.63-3.63z"/></svg><svg viewBox="0 0 24 24" id="location_on" xmlns="http://www.w3.org/2000/svg"><path d="M0 0h24v24H0z" fill="none"/><path d="M12 2C8.13 2 5 5.13 5 9c0 5.25 7 13 7 13s7-7.75 7-13c0-3.87-3.13-7-7-7zm0 9.5a2.5 2.5 0 010-5 2.5 2.5 0 010 5z"/></svg><svg viewBox="0 0 24 24" id="lock" xmlns="http://www.w3.org/2000/svg"><path d="M8.8 11.1h6.5V8.7c0-.9-.4-1.7-1-2.3-.6-.6-1.4-1-2.3-1-.9 0-1.7.4-2.3 1-.7.6-.9 1.4-.9 2.3v2.4zm10.5 1.3v7.3c0 .4-.1.6-.4.9-.3.3-.5.4-.9.4H5.9c-.4 0-.6-.1-.9-.4-.3-.3-.4-.5-.4-.9v-7.3c0-.4.1-.6.4-.9.3-.3.5-.4.9-.4h.4V8.7c0-1.5.5-2.9 1.7-4S10.5 3 12 3s2.9.5 4 1.7 1.7 2.4 1.7 4v2.4h.4c.4 0 .6.1.9.4.2.3.3.5.3.9z"/></svg><svg viewBox="0 0 24 24" id="m-add" xmlns="http://www.w3.org/2000/svg"><path d="M0 0h24v24H0V0z" fill="none"/><path d="M19 13h-6v6h-2v-6H5v-2h6V5h2v6h6v2z"/></svg><svg viewBox="0 0 24 24" id="m-remove" xmlns="http://www.w3.org/2000/svg"><path d="M0 0h24v24H0V0z" fill="none"/><path d="M19 13H5v-2h14v2z"/></svg><svg viewBox="0 0 24 24" id="map-atm" xmlns="http://www.w3.org/2000/svg"><path d="M11.2 16h1.6v-.8h.8c.4 0 .8-.4.8-.8V12c0-.4-.4-.8-.8-.8h-2.4v-.8h3.2V8.8h-1.6V8h-1.6v.8h-.8c-.4 0-.8.4-.8.8V12c0 .4.4.8.8.8h2.4v.8H9.6v1.6h1.6v.8zm7.2-10.4H5.6c-.9 0-1.6.7-1.6 1.6v9.6c0 .9.7 1.6 1.6 1.6h12.8c.9 0 1.6-.7 1.6-1.6V7.2c0-.9-.7-1.6-1.6-1.6zm0 11.2H5.6V7.2h12.8v9.6z"/></svg><svg viewBox="0 0 47.001 47.001" id="map-bank" xmlns="http://www.w3.org/2000/svg"><path d="M44.845 42.718H2.136a2.136 2.136 0 100 4.272h42.708a2.135 2.135 0 10.001-4.272zM4.805 37.165a2.136 2.136 0 100 4.273h37.37a2.136 2.136 0 000-4.273h-.533v-19.22h.533a1.066 1.066 0 100-2.134H4.805a1.067 1.067 0 100 2.134h.534v19.219h-.534zm32.565-19.22v19.219h-6.406V17.945h6.406zm-10.678 0v19.219h-6.406V17.945h6.406zm-17.083 0h6.406v19.219H9.609V17.945zM2.136 13.891h42.729a2.135 2.135 0 00.693-4.157L24.368.199a2.14 2.14 0 00-1.752 0L1.26 9.808a2.135 2.135 0 00.876 4.083z"/></svg><svg viewBox="0 0 24 24" id="map-bike" xmlns="http://www.w3.org/2000/svg"><path d="M14.3 7.6c.7 0 1.3-.6 1.3-1.3S15 5 14.3 5 13 5.5 13 6.3s.6 1.3 1.3 1.3zm-7 4.3c-1.9 0-3.3 1.5-3.3 3.3 0 1.9 1.5 3.3 3.3 3.3s3.3-1.5 3.3-3.3-1.4-3.3-3.3-3.3zm0 5.7C6 17.6 5 16.5 5 15.3S6.1 13 7.3 13s2.3 1.1 2.3 2.3-1 2.3-2.3 2.3zm3.9-6.7l1.6-1.6.5.5c.9.9 2 1.4 3.4 1.4V9.9c-1 0-1.8-.4-2.4-1L13 7.6c-.3-.3-.7-.4-1.1-.4s-.7.1-.9.4L9.2 9.5c-.3.3-.4.6-.4.9 0 .4.1.7.4.9l2.1 1.9v3.3h1.3v-4.1l-1.4-1.5zm5.5 1c-1.9 0-3.3 1.5-3.3 3.3 0 1.9 1.5 3.3 3.3 3.3S20 17 20 15.2s-1.5-3.3-3.3-3.3zm0 5.7c-1.3 0-2.3-1.1-2.3-2.3s1.1-2.3 2.3-2.3 2.3 1 2.3 2.2-1.1 2.4-2.3 2.4z"/></svg><svg viewBox="0 0 24 24" id="map-bridge" xmlns="http://www.w3.org/2000/svg"><circle cx="12" cy="12" r="8"/><path class="svg-icon__fill-white" d="M8.4 7.9h1.4v8H8.4zM14.2 7.9h1.4v8h-1.4z"/><path class="svg-icon__fill-white" d="M7.6 11.7h8.8v1.4H7.6zM7.6 14.5h3v1.4h-3zM13.4 14.5h3v1.4h-3zM10.6 7.9h.8v3.6h-.8zM12.8 7.9h.8v3.6h-.8z"/><path class="svg-icon__fill-none svg-icon__stroke-white" d="M8.9 8.4c.4 1.2 1.6 2.2 3.1 2.2s2.6-1 3.1-2.2"/></svg><svg viewBox="0 0 24 24" id="map-bus" xmlns="http://www.w3.org/2000/svg"><path d="M5.3 15.3c0 .7.3 1.4.8 1.9v1.5c0 .5.4.8.8.8h.8c.5 0 .8-.4.8-.8v-.8h6.7v.8c0 .5.4.8.8.8h.8c.5 0 .8-.4.8-.8v-1.5c.5-.5.8-1.1.8-1.9V6.9c0-2.9-3-3.4-6.7-3.4s-6.4.4-6.4 3.4v8.4zm2.9.8c-.7 0-1.3-.6-1.3-1.3s.6-1.3 1.3-1.3 1.3.6 1.3 1.3-.6 1.3-1.3 1.3zm7.6 0c-.7 0-1.3-.6-1.3-1.3s.6-1.3 1.3-1.3 1.3.6 1.3 1.3-.6 1.3-1.3 1.3zm1.3-5H6.9V6.9H17v4.2z"/></svg><svg viewBox="0 0 24 24" id="map-circle" xmlns="http://www.w3.org/2000/svg"><path d="M20 12c0 4.4-3.6 8-8 8s-8-3.6-8-8 3.6-8 8-8 8 3.6 8 8z"/></svg><svg viewBox="0 0 24 24" id="map-circle_empty" xmlns="http://www.w3.org/2000/svg"><path d="M20 12c0 4.4-3.6 8-8 8s-8-3.6-8-8 3.6-8 8-8 8 3.6 8 8zm-8-5c-2.8 0-5 2.2-5 5s2.2 5 5 5 5-2.2 5-5-2.2-5-5-5z"/></svg><svg viewBox="0 0 24 24" id="map-envelope_square" xmlns="http://www.w3.org/2000/svg"><path class="svg-icon__fill-white" d="M4 7.4h16v9.1H4z"/><path d="M13.8 11.7l-.8.5c-.6.4-1.4.4-2 0l-.7-.5-5.7 4.8h15l-5.8-4.8zM14.3 11.5l5.7 4.8V7.6z"/><path d="M4.6 7.4l5.7 3.7.9.6c.4.3.9.3 1.4 0l.9-.6 5.7-3.7H4.6zM4 7.6v8.7l5.7-4.8z"/></svg><svg viewBox="0 0 24 24" id="map-envelope_square_1" xmlns="http://www.w3.org/2000/svg"><path class="svg-icon__fill-white" d="M4 7.4h16v9.1H4z"/><path class="svg-icon__fill" d="M13.8 11.7l-.8.5c-.6.4-1.4.4-2 0l-.7-.5-5.7 4.8h15l-5.8-4.8zM14.3 11.5l5.7 4.8V7.6z"/><path d="M4.6 7.4l5.7 3.7.9.6c.4.3.9.3 1.4 0l.9-.6 5.7-3.7H4.6z"/><path class="svg-icon__fill" d="M4 7.6v8.7l5.7-4.8z"/></svg><svg viewBox="0 0 24 24" id="map-excluded_square" xmlns="http://www.w3.org/2000/svg"><path d="M4 3.9h16v16H4z"/><path class="svg-icon__fill-white" d="M5.4 5.4h13.2v13.2H5.4z"/><path d="M12 14.4l4.2 4.2h2.4v-2.4L14.4 12l4.2-4.2V5.4h-2.4L12 9.6 7.8 5.4H5.4v2.4L9.6 12l-4.2 4.2v2.4h2.4z"/></svg><svg viewBox="0 0 24 24" id="map-fencing" xmlns="http://www.w3.org/2000/svg"><circle cx="12" cy="12" r="8"/><path class="svg-icon__fill-white" d="M15.2 7.8L12 11 8.7 7.7v1.1l2.8 2.9-1.8 1.7H7.8l2.4 2.7v-2.3l5-5z"/><path class="svg-icon__fill-white" d="M16.3 13.4h-1.9l-1.6-1.5-.5.4 1.6 1.6v1.9zM14.983 15.07l.354-.354 1.13 1.132-.353.353zM7.472 15.85l1.131-1.132.354.353-1.131 1.132z"/></svg><svg viewBox="0 0 24 24" id="map-fish" xmlns="http://www.w3.org/2000/svg"><circle cx="12" cy="12" r="8"/><path class="svg-icon__fill-white" d="M14.5 11.9c-1.5-1.9-2.9-2.6-4.9-2-1.1.3-2.6 1.7-2.7 2.3-.1.7 1.6 2 2.7 2.4 1.9.4 3.4-.1 4.7-2 .3.9.8 1.6 1.9 1.7v-3.7c-.8-.3-1.4.4-1.7 1.3z"/><circle cx="7.9" cy="12.1" r=".3"/></svg><svg viewBox="0 0 24 24" id="map-hexagon" xmlns="http://www.w3.org/2000/svg"><path d="M16 5.1H8L4 12l4 6.9h8l4-6.9z"/></svg><svg viewBox="0 0 24 24" id="map-hexagon_empty" xmlns="http://www.w3.org/2000/svg"><path d="M16 5.1H8L4 12l4 6.9h8l4-6.9-4-6.9zm-1 12.1H9L6 12l3-5.2h6l3 5.2-3 5.2z"/></svg><svg viewBox="0 0 24 24" id="map-house" xmlns="http://www.w3.org/2000/svg"><circle cx="12" cy="12" r="8"/><path class="svg-icon__fill-white" d="M12 8.2c1.4 1.4 3 2.7 4.5 4.2-.5 0-.9.1-1.4.1V16h-2.2v-2.6H11v2.7H8.9v-3.5H7.4C9 10.8 10.6 9.5 12 8.2z"/></svg><svg viewBox="0 0 24 24" id="map-info" xmlns="http://www.w3.org/2000/svg"><circle cx="12" cy="12" r="8"/><path class="svg-icon__fill-white" d="M16.7 12c0 2.5-2.1 4.7-4.7 4.7S7.3 14.6 7.3 12c0-2.5 2.1-4.7 4.7-4.7s4.7 2.2 4.7 4.7zm-4.2 2.5v-3.3h-1.2v3.3h1.2zm0-4.3V9h-1.2v1.2h1.2z"/><path d="M12.5 14.5h-1.2v-3.3h1.2v3.3zM12.5 10.2h-1.2V9h1.2v1.2z"/></svg><svg viewBox="0 0 24 24" id="map-lightning" xmlns="http://www.w3.org/2000/svg"><circle cx="12" cy="12" r="8"/><path class="svg-icon__fill-white" d="M16.4 10.9h-4.1l3.3-3.3h-4.1l-3.9 5.2H11.2l-2.8 3.6z"/></svg><svg viewBox="0 0 1024 1024" id="map-line_dashed" xmlns="http://www.w3.org/2000/svg"><path d="M234.667 490.667h-153.6a25.6 25.6 0 100 51.2h153.6a25.6 25.6 0 100-51.2zm238.933 0H320a25.6 25.6 0 100 51.2h153.6a25.6 25.6 0 100-51.2zm460.8 0H797.867a25.6 25.6 0 100 51.2H934.4a25.6 25.6 0 100-51.2zm-221.867 0h-153.6a25.6 25.6 0 100 51.2h153.6a25.6 25.6 0 100-51.2z"/></svg><svg viewBox="0 0 1024 1024" id="map-line_solid" xmlns="http://www.w3.org/2000/svg"><path d="M992 544H32c-17.664 0-32-14.304-32-32 0-17.664 14.336-32 32-32h960c17.696 0 32 14.336 32 32 0 17.696-14.304 32-32 32z"/></svg><svg viewBox="0 0 24 24" id="map-locate" xmlns="http://www.w3.org/2000/svg"><path d="M21 3L3 10.53v.98l6.84 2.65L12.48 21h.98L21 3z"/></svg><svg viewBox="0 0 24 24" id="map-location" xmlns="http://www.w3.org/2000/svg"><path d="M20 12c0 4.4-3.6 8-8 8s-8-3.6-8-8 3.6-8 8-8 8 3.6 8 8zm-8-6c-3.3 0-6 2.7-6 6s2.7 6 6 6 6-2.7 6-6-2.7-6-6-6zm4 6c0 2.2-1.8 4-4 4s-4-1.8-4-4 1.8-4 4-4 4 1.8 4 4z"/></svg><svg viewBox="0 0 24 24" id="map-movie" xmlns="http://www.w3.org/2000/svg"><circle cx="12" cy="12" r="8"/><path class="svg-icon__fill-white" d="M14.5 7.3v.8h-.8v-.8h-3.6v.8h-.6v-.8H7.9v9.5h1.4V16h.8v.8h3.6V16h.8v.8h1.4V7.3h-1.4zm-4.4 7.2h-.6v-.8h.8v.8h-.2zm0-2.2h-.6v-.8h.8v.8h-.2zm0-2.2h-.6v-.6h.8v.7h-.2zm4.4 4.4h-.8v-.8h.8v.8zm0-2.2h-.8v-.8h.8v.8zm0-2.2h-.8v-.6h.8v.6z"/></svg><svg viewBox="0 0 24 24" id="map-open_square" xmlns="http://www.w3.org/2000/svg"><path d="M4 4v16h16V4H4zm14.6 14.6H5.4V5.4h13.3l-.1 13.2z"/><path class="svg-icon__fill-white" d="M5.4 5.4h13.3v13.3H5.4z"/><path d="M16.4 9.6l-1-.8-4.3 5-2.6-2-.8 1.1 3.7 2.9z"/></svg><svg viewBox="0 0 24 24" id="map-outreach_square" xmlns="http://www.w3.org/2000/svg"><path class="svg-icon__fill-none svg-icon__stroke-miterlimit-10" d="M4 4h16v16H4z"/><path d="M19.7 19.7H4.3v-8.4L12 5.7l7.7 5.7v8.3zm-14.4-.9h13.5v-6.9l-6.8-5-6.7 5v6.9z"/></svg><svg viewBox="0 0 24 24" id="map-parking" xmlns="http://www.w3.org/2000/svg"><path d="M18.3 6.5c-.3-.7-.8-1.2-1.4-1.6-.6-.4-1.2-.6-2-.8-.6-.1-1.3-.1-2.4-.1H6.8c-.2 0-.4.2-.4.4v15.2c0 .2.2.4.4.4h2c.2 0 .4-.2.4-.4v-5.8h3.5c2.3 0 3.8-.5 4.8-1.5.9-1 1.3-2.2 1.3-3.6 0-.7-.2-1.5-.5-2.2zm-5.6 4.7H9.2V6.6h3.5c1.1 0 1.6.1 1.8.1.4.1.8.4 1 .7.3.4.4.8.4 1.4 0 .8-.2 1.3-.7 1.7-.5.5-1.3.7-2.5.7z"/></svg><svg viewBox="0 0 24 24" id="map-parking_square" xmlns="http://www.w3.org/2000/svg"><path d="M4 4h16v16H4z"/><path class="svg-icon__fill-white" d="M10.6 13.2v2.9H8.9V8h3.2c.6 0 1.1.1 1.7.3.4.2.8.5 1 .9s.4.8.4 1.4c0 .8-.3 1.4-.8 1.9-.5.4-1.3.7-2.3.7h-1.5zm0-1.4H12c.4 0 .8-.1 1-.3s.3-.5.3-.9-.1-.8-.3-1-.5-.4-.9-.4h-1.5v2.6z"/></svg><svg viewBox="0 0 24 24" id="map-petrol" xmlns="http://www.w3.org/2000/svg"><path d="M18.9 7.8l-3.3-3.3-.9.9 1.9 1.9c-.8.3-1.4 1.1-1.4 2.1 0 1.2 1 2.2 2.2 2.2.3 0 .6-.1.9-.2v6.4c0 .5-.4.9-.9.9s-.9-.4-.9-.9v-4c0-1-.8-1.8-1.8-1.8h-.9V5.8c0-1-.8-1.8-1.8-1.8H6.7c-1 0-1.8.8-1.8 1.8V20h8.9v-6.7h1.3v4.4c0 1.2 1 2.2 2.2 2.2s2.2-1 2.2-2.2V9.3c.1-.6-.2-1.1-.6-1.5zM12 10.2H6.7V5.8H12v4.4zm5.4 0c-.5 0-.9-.4-.9-.9s.4-.9.9-.9.9.4.9.9-.5.9-.9.9z"/></svg><svg viewBox="0 0 24 24" id="map-plus" xmlns="http://www.w3.org/2000/svg"><path d="M14 4h-4v6H4v4h6v6h4v-6h6v-4h-6z"/></svg><svg viewBox="0 0 44 60" id="map-postbox" xmlns="http://www.w3.org/2000/svg"><g transform="translate(1 1)"><path d="M17 0h8c5 0 9 4 9 9v1H8V9c0-5 4-9 9-9z"/><path d="M25 0h-3c2.4 0 4.7.9 6.4 2.6S31 6.6 31 9v1h3V9c0-5-4-9-9-9z"/><rect height="4" rx="2" width="30" x="6" y="10"/><path d="M34 10h-3c1.1 0 2 .9 2 2s-.9 2-2 2h3c1.1 0 2-.9 2-2s-.9-2-2-2zM8 14h26v39H8z"/><path d="M31 14h3v39h-3z"/><path d="M41 58H1c-.3 0-.6-.2-.8-.4-.2-.3-.2-.6-.1-.9l.9-2.4c.3-.8 1-1.3 1.9-1.3h36.2c.8 0 1.6.5 1.9 1.3l.9 2.4c.1.3.1.7-.1.9s-.5.4-.8.4z" fill="#fff"/><path d="M41.9 56.6l-.9-2.4c-.3-.8-1-1.3-1.9-1.3h-3c.8 0 1.6.5 1.9 1.3l.9 2.4c.1.3.1.7-.1.9s-.5.4-.8.4h3c.3 0 .6-.2.8-.4s.2-.6.1-.9z" fill="#fff"/><rect fill="#fff" height="6" rx="1" width="18" x="12" y="18"/><path d="M29 18h-3c.6 0 1 .4 1 1v4c0 .6-.4 1-1 1h3c.6 0 1-.4 1-1v-4c0-.6-.4-1-1-1z" fill="#fff"/></g><g fill="rgba(0, 0, 0, 1)"><path d="M43.9 57.3l-.9-2.4c-.5-1.1-1.6-1.9-2.8-1.9h-4.1V15.8c1.2-.4 2-1.6 2-2.8s-.8-2.4-2-2.8V10c0-5.5-4.5-10-10-10h-8c-5.5 0-10 4.5-10 10v.2c-1.2.4-2 1.6-2 2.8s.8 2.4 2 2.8V53H4c-1.2 0-2.3.7-2.8 1.9l-.9 2.4c-.2.6-.2 1.3.2 1.9.4.5 1 .9 1.7.9h40c.7 0 1.3-.3 1.7-.9.4-.5.4-1.2.2-1.9zM18 2h8c4.4 0 8 3.6 8 8H10c0-4.4 3.6-8 8-8zM9 12h26c.6 0 1 .4 1 1s-.4 1-1 1H9c-.6 0-1-.4-1-1s.4-1 1-1zm25 4v37H10V16zM2 58l.9-2.4c.2-.4.5-.6.9-.6H40c.4 0 .8.2.9.6l.9 2.4z"/><path d="M30 18H14c-1.1 0-2 .9-2 2v4c0 1.1.9 2 2 2h16c1.1 0 2-.9 2-2v-4c0-1.1-.9-2-2-2zm0 6H14v-4h16zM30 28H14c-1.1 0-2 .9-2 2v18c0 1.1.9 2 2 2h16c1.1 0 2-.9 2-2V30c0-1.1-.9-2-2-2zm0 20H14V30h16z"/></g></svg><svg viewBox="0 0 24 24" id="map-rejected_circle" xmlns="http://www.w3.org/2000/svg"><circle class="svg-icon__fill-white" cx="12" cy="11.7" r="6.7"/><path d="M12 4c-4.4 0-8 3.6-8 8s3.6 8 8 8 8-3.6 8-8-3.6-8-8-8zm-5.9 8c0-1.3.4-2.5 1.1-3.5l8.2 8.2c-1 .7-2.2 1.1-3.5 1.1-3.1.1-5.8-2.6-5.8-5.8zm10.7 3.3L8.7 7.2c.9-.6 2.1-1 3.3-1 3.2 0 5.9 2.6 5.9 5.9 0 1.1-.4 2.3-1.1 3.2z"/></svg><svg viewBox="0 0 24 24" id="map-square" xmlns="http://www.w3.org/2000/svg"><path d="M20 4H4v16h16V4z"/></svg><svg viewBox="0 0 24 24" id="map-square_empty" xmlns="http://www.w3.org/2000/svg"><path d="M17 7v10H7V7h10m3-3H4v16h16V4z"/></svg><svg viewBox="0 0 24 24" id="map-star" xmlns="http://www.w3.org/2000/svg"><circle cx="12" cy="12" r="8"/><path class="svg-icon__fill-white" d="M12 7.9l1.3 2.7 2.9.4-2.1 2.1.4 3-2.5-1.5-2.5 1.5.4-3L7.8 11l2.9-.4z"/></svg><svg viewBox="0 0 24 24" id="map-surfing" xmlns="http://www.w3.org/2000/svg"><circle cx="12" cy="12" r="8"/><path class="svg-icon__fill-white" d="M12.3 11.5c1.8.3 1.9 1.4 1.6 2.6-.1 1.1.2 1.6 1.2 2.1.4.1.9.4 1.3.8-.1.1-.1.2-.1.3-.3-.1-.5-.1-.9-.3-1.6-.8-3.4-1.5-5.2-2.4-.7-.4-1.4-.5-2.2-.1-.3.1-.7.1-1.2.3.3-.5.7-.9.9-1.2-.3-.2-.5-.4-.8-.7 0-.1.1-.1.1-.2.4.1.8.2 1.1.3.3.1.8.2 1.2.1 1.2-.1 1.1-.2.9-1.3-.1-.3.1-.8.3-1.1s.5-.5.8-.7c-1-.8-1.8-1.4-2.6-2.1.6-.2.9-.4 1.3-.5.2 1 1 1.8 2 1.6 1.1-.1 2 .3 2.8.9.7.3 1.2.8 1.9 1.1-.4.5-.5.5-1.4.1-.5-.3-1.1-.5-1.6-.9-.3.3-.7.6-1.4 1.3zm-.1.8c-.5.5-1 1-1.4 1.5.8.3 1.4.7 2.3 1.1.2-2.1.2-2.1-.9-2.6z"/><circle class="svg-icon__fill-white" cx="14.3" cy="7.8" r="1"/></svg><svg viewBox="0 0 24 24" id="map-tower" xmlns="http://www.w3.org/2000/svg"><circle cx="12" cy="12" r="8"/><path class="svg-icon__fill-white" d="M14.5 10.6c-.3.1-.4.1-.8.2.5 1.9 1 3.6 1.4 5.4-.5.2-1 .1-1.2-.3-.5-.8-1.3-1.4-2-2.3-.8.8-1.3 1.5-2 2.3-.5.5-.5.5-1.3.4.4-1.6.9-3.2 1.2-4.8.1-.3.2-.5-.2-.8-.1-.1-.1-.7-.1-1 0-1.3.1-1.2 1.2-1.8 1.2-.5 2.3 0 3.4.3.1.1.3.3.3.5.1.7.1 1.3.1 1.9zm-4-.7h3.2v-1h-3.2v1zm1.6 2.4c.3-.3.5-.5.8-1 .3-.3.1-.7-.3-.7-.5 0-1 .1-1.5.2.3.3.5.8.8 1.2 0 .2 0 .2.2.3zm-1.9 1.9c.1 0 .1.1.1.1.3-.4.8-.9 1.2-1.3-.3-.3-.5-.5-.8-.9-.1.8-.3 1.4-.5 2.1zm3.1-2.1c-.3.3-.5.7-.8.9.3.4.8.9 1.1 1.3.1 0 .1-.1.1-.1-.1-.7-.3-1.3-.4-2.1z"/></svg><svg viewBox="0 0 22 22" id="map-triangle" xmlns="http://www.w3.org/2000/svg"><path d="M11 4.5l-8 13h16l-8-13z"/></svg><svg viewBox="0 0 22 22" id="map-triangle_empty" xmlns="http://www.w3.org/2000/svg"><path d="M11 8.3l4.4 7.2H6.6L11 8.3m0-3.8l-8 13h16l-8-13z"/></svg><svg viewBox="0 0 24 24" id="map-vistahalf" xmlns="http://www.w3.org/2000/svg"><circle cx="12" cy="12" r="8"/><path class="svg-icon__fill-white" d="M10.9 6.3c.3 1.4.5 2.7.8 4.2 0 .1.2.2.3.3.1-.1.3-.2.3-.3.3-1.3.5-2.7.8-4.1-.8-.1-1.4-.1-2.2-.1zM9 7c-.5.5-1.1 1-1.6 1.5 1.2.9 2.2 1.8 3.2 2.5.1.1.3.1.5.1 0-.2.1-.4 0-.5C10.4 9.4 9.7 8.3 9 7zM16.7 8.5c-.5-.5-1.1-1-1.6-1.5-.8 1.3-1.4 2.5-2.1 3.6-.1.1 0 .3 0 .5.1 0 .3.1.5-.1 1-.8 2-1.6 3.2-2.5zM17.5 9.9c-1.4.5-2.8 1.1-4.2 1.6 0 .1.1.2.1.3h4.5c-.2-.6-.3-1.1-.4-1.9zM6.2 11.9h4.5c0-.1.1-.2.1-.3-1.4-.5-2.7-1-4.2-1.6-.2.7-.4 1.2-.4 1.9z"/></svg><svg viewBox="0 0 24 24" id="map-waitingroom" xmlns="http://www.w3.org/2000/svg"><circle cx="12" cy="12" r="8"/><path class="svg-icon__fill-white" d="M14.6 16.3c-.3-.1-.3-.3-.3-.7l1.5-4.1c.1-.3.3-.3.7-.3.3.1.3.3.3.7l-1.5 4.2c-.1.2-.3.4-.7.2z"/><path class="svg-icon__fill-white" d="M11 15.8c0-.3.2-.5.5-.5H15c.3 0 .5.2.5.5s-.2.5-.5.5h-3.4c-.4.1-.6-.1-.6-.5zM12.8 14.5c-.5-.1-1-.8-.8-1.3l.8-2.7c.1-.5.8-1 1.3-.8.5.1 1 .8.8 1.3l-.8 2.7c-.1.6-.7 1-1.3.8zM7.3 16.2c-.3-.3-.3-1 0-1.3l2.2-2.2c.3-.3 1-.3 1.3 0 .3.3.3 1 0 1.3l-2.2 2.2c-.3.3-.9.3-1.3 0z"/><path class="svg-icon__fill-white" d="M9.3 13.4c0-.5.5-1.1 1.1-1.1h2.7c.5 0 1.1.5 1.1 1.1 0 .5-.5 1.1-1.1 1.1h-2.7c-.7 0-1.1-.4-1.1-1.1z"/><circle class="svg-icon__fill-white" cx="14.3" cy="8.5" r="1"/></svg><svg viewBox="0 0 24 24" id="map-walking" xmlns="http://www.w3.org/2000/svg"><circle cx="12" cy="12" r="8"/><path class="svg-icon__fill-white" d="M15 11.5c0 .2 0 .4.1.9-1-.4-1.8-.8-2.5-1.1-.3.5-.3 1.2.3 1.8.1.1.3.3.3.5v3.2h-.9c-.4-1.1.5-2.6-1.1-3.6-.3 1.2-.5 2.3-.8 3.5h-1c.4-2.1.8-4.2 1.2-6.2-1.4.1-.7 1.1-1 1.6h-.8v-1.6c0-.2.2-.4.3-.5.4-.3.7-.4.9-.5 1.9-.8 1.9-.7 3.1.8.4.4 1.1.8 1.6 1.1"/><circle class="svg-icon__fill-white" cx="13" cy="8.4" r="1.1"/></svg><svg viewBox="0 0 24 24" id="measure" xmlns="http://www.w3.org/2000/svg"><path d="M24 17H0V9h24v8zM3 11H1v6h2v-6zm12 0h-2v6h2v-6zm8 0h-2v6h2v-6zM7 14H5v3h2v-3zm4 0H9v3h2v-3zm8 0h-2v3h2v-3z"/></svg><svg viewBox="0 0 100 100" id="measure-tool" xmlns="http://www.w3.org/2000/svg"><path d="M5 82.135V46.112h90v36.023H5m44.104-32.44h-6.48v16.583h-1.792V49.695h-6.48v8.272h-1.83v-8.272h-6.48v16.583H24.25V49.695h-6.48v8.272h-1.792v-8.272h-6.48v28.819h81.004V49.695h-6.48v8.272H82.23v-8.272h-6.48v16.583h-1.792V49.695h-6.48v8.272h-1.791v-8.272h-6.519v16.583h-1.792V49.695h-6.48v8.272h-1.792v-8.272M5 17.865h2.249v17.993H5V17.865M95 17.865h-2.249v17.993H95V17.865M82.649 28.005v7.853l8.997-8.996-8.997-8.997v7.891H17.351v-7.891l-8.997 8.997 8.997 8.996v-7.853h65.298"/></svg><svg version="1.0" viewBox="0 0 24 24" id="menu" xmlns="http://www.w3.org/2000/svg"><circle cx="12" cy="12" r="2"/><circle cx="12" cy="5" r="2"/><circle cx="12" cy="19" r="2"/></svg><svg viewBox="0 0 24 24" id="move-bike" xmlns="http://www.w3.org/2000/svg"><path d="M15.5 5.5c1.1 0 2-.9 2-2s-.9-2-2-2-2 .9-2 2 .9 2 2 2zM5 12c-2.8 0-5 2.2-5 5s2.2 5 5 5 5-2.2 5-5-2.2-5-5-5zm0 8.5c-1.9 0-3.5-1.6-3.5-3.5s1.6-3.5 3.5-3.5 3.5 1.6 3.5 3.5-1.6 3.5-3.5 3.5zm5.8-10l2.4-2.4.8.8c1.3 1.3 3 2.1 5.1 2.1V9c-1.5 0-2.7-.6-3.6-1.5l-1.9-1.9c-.5-.4-1-.6-1.6-.6s-1.1.2-1.4.6L7.8 8.4c-.4.4-.6.9-.6 1.4 0 .6.2 1.1.6 1.4L11 14v5h2v-6.2l-2.2-2.3zM19 12c-2.8 0-5 2.2-5 5s2.2 5 5 5 5-2.2 5-5-2.2-5-5-5zm0 8.5c-1.9 0-3.5-1.6-3.5-3.5s1.6-3.5 3.5-3.5 3.5 1.6 3.5 3.5-1.6 3.5-3.5 3.5z"/></svg><svg viewBox="0 0 24 24" id="move-car" xmlns="http://www.w3.org/2000/svg"><path d="M18.9 5c-.2-.6-.8-1-1.4-1h-11c-.7 0-1.2.4-1.4 1L3 11v8c0 .5.5 1 1 1h1c.6 0 1-.5 1-1v-1h12v1c0 .5.5 1 1 1h1c.5 0 1-.5 1-1v-8l-2.1-6zM6.5 15c-.8 0-1.5-.7-1.5-1.5S5.7 12 6.5 12s1.5.7 1.5 1.5S7.3 15 6.5 15zm11 0c-.8 0-1.5-.7-1.5-1.5s.7-1.5 1.5-1.5 1.5.7 1.5 1.5-.7 1.5-1.5 1.5zM5 10l1.5-4.5h11L19 10H5z"/></svg><svg viewBox="0 0 24 24" id="move-time" xmlns="http://www.w3.org/2000/svg"><path d="M11.99 2C6.47 2 2 6.48 2 12s4.47 10 9.99 10C17.52 22 22 17.52 22 12S17.52 2 11.99 2zM12 20c-4.42 0-8-3.58-8-8s3.58-8 8-8 8 3.58 8 8-3.58 8-8 8zm.5-13H11v6l5.25 3.15.75-1.23-4.5-2.67z"/></svg><svg viewBox="0 0 24 24" id="move-transport" xmlns="http://www.w3.org/2000/svg"><path d="M12 2c-4.42 0-8 .5-8 4v9.5C4 17.43 5.57 19 7.5 19L6 20.5v.5h12v-.5L16.5 19c1.93 0 3.5-1.57 3.5-3.5V6c0-3.5-3.58-4-8-4zM7.5 17c-.83 0-1.5-.67-1.5-1.5S6.67 14 7.5 14s1.5.67 1.5 1.5S8.33 17 7.5 17zm3.5-6H6V6h5v5zm5.5 6c-.83 0-1.5-.67-1.5-1.5s.67-1.5 1.5-1.5 1.5.67 1.5 1.5-.67 1.5-1.5 1.5zm1.5-6h-5V6h5v5z"/></svg><svg viewBox="0 0 24 24" id="move-walk" xmlns="http://www.w3.org/2000/svg"><path d="M13.5 5.5c1.1 0 2-.9 2-2s-.9-2-2-2-2 .9-2 2 .9 2 2 2zM9.8 8.9L7 23h2.1l1.8-8 2.1 2v6h2v-7.5l-2.1-2 .6-3C14.8 12 16.8 13 19 13v-2c-1.9 0-3.5-1-4.3-2.4l-1-1.6c-.4-.6-1-1-1.7-1-.3 0-.5.1-.8.1L6 8.3V13h2V9.6l1.8-.7"/></svg><svg viewBox="0 0 24 24" class="style-scope iron-icon" style="width:100%;height:100%" pointer-events="none" display="block" id="navicon"><path d="M3 18h18v-2H3v2zm0-5h18v-2H3v2zm0-7v2h18V6H3z" class="style-scope iron-icon"/></svg><svg viewBox="0 0 24 24" id="nearest" xmlns="http://www.w3.org/2000/svg"><path d="M11.8 14.1c0 .1 0 .2-.1.3l-4.3 4.3 1.9 1.9c.2.2.2.4.2.6s-.1.4-.2.6c-.2.1-.4.2-.6.2H2.8c-.2 0-.4-.1-.6-.2s-.2-.4-.2-.6v-5.8c0-.2.1-.4.2-.6.2-.2.4-.2.6-.2s.4.1.6.2l1.9 1.9 4.3-4.3c.1-.1.2-.1.3-.1s.2 0 .3.1l1.5 1.5c.1 0 .1.1.1.2zM22 2.8v5.8c0 .2-.1.4-.2.6-.2.2-.4.2-.6.2s-.4-.1-.6-.2l-1.9-1.9-4.3 4.3c-.1.1-.2.1-.3.1-.1 0-.2 0-.3-.1l-1.5-1.5c-.1-.1-.1-.2-.1-.3s0-.2.1-.3l4.3-4.3-1.9-1.9c-.2-.2-.2-.4-.2-.6s.1-.4.2-.6c.2 0 .4-.1.6-.1h5.8c.2 0 .4.1.6.2s.3.4.3.6z"/></svg><svg viewBox="0 0 24 24" id="nearest-tool" xmlns="http://www.w3.org/2000/svg"><g stroke="null"><path d="M18.782 10.83c-.156.317-.322.63-.497.935a.243.243 0 00.111.341c2.406 1.105 3.866 2.728 3.866 4.434 0 .691-.236 1.305-.568 1.827a.242.242 0 00.062.325c.276.2.517.445.714.724a.243.243 0 00.398-.001c1.974-2.838.938-6.507-3.765-8.697a.243.243 0 00-.321.112h0zM20.1 19.712c-.758 0-1.383.567-1.475 1.3a.744.744 0 00-.205.056c-4.16 1.815-10.205 1.656-14.025-.508-4.33-2.454-3.576-6.051.8-8.058a.232.232 0 00.107-.326c-.167-.292-.326-.59-.474-.893a.232.232 0 00-.307-.107c-5.571 2.598-6.111 7.703-.86 10.678 4.278 2.424 10.83 2.552 15.354.578a.744.744 0 00.142-.082c.958.786 2.43.114 2.43-1.15 0-.822-.665-1.488-1.487-1.488h0z"/><path d="M7.102 15.621c.06-.023.12-.045.184-.067a.232.232 0 00.101-.365 25.616 25.616 0 01-.651-.837.233.233 0 00-.273-.078C3.5 15.451 3.579 17.451 5.31 18.61c.09.06.19.098.29.115.067.774.726 1.38 1.522 1.36.892-.023 1.566-.843 1.43-1.725-.166-1.088-1.466-1.63-2.365-.95-.04-.034-.592-.376-.592-.673 0-.258.463-.716 1.507-1.115h0zM19.728 16.736c0-1.219-1.203-2.004-2.355-2.462a.233.233 0 00-.273.078c-.216.29-.435.57-.652.837a.232.232 0 00.105.365c1.171.414 1.688.91 1.688 1.182 0 .27-.496.743-1.583 1.144-1.847.68-4.35.825-6.351.645a.232.232 0 00-.253.22 2.956 2.956 0 01-.199.934c-.056.143.041.3.194.315 4.326.42 9.68-.677 9.68-3.258h0zM17.25 5.938C17.25 8.94 11.719 17 11.719 17S6.188 8.94 6.188 5.937s2.449-5.53 5.53-5.53 5.532 2.449 5.532 5.53zm-5.531 2.37c1.738 0 3.16-1.501 3.16-3.24s-1.422-3.081-3.16-3.081-3.161 1.422-3.161 3.081 1.422 3.24 3.16 3.24z"/></g></svg><svg viewBox="0 0 24 24" id="new" xmlns="http://www.w3.org/2000/svg"><path d="M20 11h-7V4c0-.6-.4-1-1-1s-1 .4-1 1v7H4c-.6 0-1 .4-1 1s.4 1 1 1h7v7c0 .6.4 1 1 1s1-.4 1-1v-7h7c.6 0 1-.4 1-1s-.4-1-1-1z"/></svg><svg viewBox="0 0 24 24" id="notifications" xmlns="http://www.w3.org/2000/svg"><path d="M0 0h24v24H0V0z" fill="none"/><path d="M12 22c1.1 0 2-.9 2-2h-4c0 1.1.9 2 2 2zm6-6v-5c0-3.07-1.63-5.64-4.5-6.32V4c0-.83-.67-1.5-1.5-1.5s-1.5.67-1.5 1.5v.68C7.64 5.36 6 7.92 6 11v5l-2 2v1h16v-1l-2-2zm-2 1H8v-6c0-2.48 1.51-4.5 4-4.5s4 2.02 4 4.5v6z"/></svg><svg viewBox="0 0 24 24" id="notifications-active" xmlns="http://www.w3.org/2000/svg"><path d="M0 0h24v24H0V0z" fill="none"/><path d="M12 22c1.1 0 2-.9 2-2h-4c0 1.1.9 2 2 2zm6-6v-5c0-3.07-1.63-5.64-4.5-6.32V4c0-.83-.67-1.5-1.5-1.5s-1.5.67-1.5 1.5v.68C7.64 5.36 6 7.92 6 11v5l-2 2v1h16v-1l-2-2zm-2 1H8v-6c0-2.48 1.51-4.5 4-4.5s4 2.02 4 4.5v6zM7.58 4.08L6.15 2.65C3.75 4.48 2.17 7.3 2.03 10.5h2a8.445 8.445 0 013.55-6.42zm12.39 6.42h2c-.15-3.2-1.73-6.02-4.12-7.85l-1.42 1.43a8.495 8.495 0 013.54 6.42z"/></svg><svg viewBox="0 0 28 23" id="olark"><path d="M23.3.4L2.7 2.1C1.1 2.3 0 3.6 0 5.2v8c0 1.6 1 3 2.6 3.1l5.3.5s1 1.6.3 3.2-1.9 2.3-1.9 2.3c4.2 0 6.6-3.1 7.8-4.9l9.3.7c1.8.2 3.6-1.3 3.6-3.1V3.5C27 1.7 25.1.2 23.3.4zm-8.6 14H12v-2h2.7v2zM16.9 9c-.3.5-1.2.9-1.8 1.4-.3.2-.5.7-.5 1.1H12v-.6c0-.7.3-1.2.7-1.5.2-.2.7-.6 1.1-1 .3-.2.5-.7.5-1.1 0-.6-.5-.9-1-.9-.8.1-1.3.6-1.3 1.6v.1l-2.5-.3c.2-2.2 1.8-3.4 4-3.4 1.1 0 2.1.3 2.7.9.7.6 1.1 1.4 1.1 2.3 0 .5-.1.9-.4 1.4z"/></svg><svg viewBox="0 0 24 24" id="percent" xmlns="http://www.w3.org/2000/svg"><path d="M6.435 18.94L16.549 4.782l.895.64L7.33 19.578zM17.5 16.1c0 1.9-1.1 3.4-2.5 3.4s-2.5-1.5-2.5-3.4 1.1-3.4 2.5-3.4 2.5 1.5 2.5 3.4zM15 13.9c-.9 0-1.6 1-1.6 2.1s.7 2.1 1.6 2.1 1.6-1 1.6-2.1-.8-2.1-1.6-2.1zM11.6 7.7c0 1.9-1.1 3.4-2.5 3.4S6.5 9.6 6.5 7.7 7.6 4.3 9 4.3s2.6 1.6 2.6 3.4zM9.1 5.5c-.9 0-1.6 1-1.6 2.1s.7 2.1 1.6 2.1c.9 0 1.6-1 1.6-2.1S10 5.5 9.1 5.5z"/></svg><svg viewBox="0 0 24 24" id="pin" xmlns="http://www.w3.org/2000/svg"><path d="M16.7 4.3c-.4-.4-1-.4-1.4 0-.1.1-.2.2-.2.4-.8 1.7-1.7 2.7-2.9 3.3-1.3.6-2.8 1-5.2 1-.1 0-.3 0-.4.1-.2.1-.4.3-.5.5-.1.3-.1.5 0 .8.1.1.1.2.2.3L9.5 14 5 20l6.1-4.5 3.2 3.2c.1.1.2.2.3.2.1.1.3.1.4.1s.3 0 .4-.1c.2-.1.4-.3.5-.5.1-.1.1-.3.1-.4 0-2.4.4-3.9 1.1-5.2.6-1.2 1.6-2.1 3.3-2.9.1 0 .3-.1.4-.2.4-.4.4-1 0-1.4l-4.1-4z"/></svg><svg viewBox="0 0 60 60" id="playrun" xmlns="http://www.w3.org/2000/svg"><path d="M45.563 29.174l-22-15A1 1 0 0022 15v30a.999.999 0 001.563.826l22-15a1 1 0 000-1.652zM24 43.107V16.893L43.225 30 24 43.107z"/><path d="M30 0C13.458 0 0 13.458 0 30s13.458 30 30 30 30-13.458 30-30S46.542 0 30 0zm0 58C14.561 58 2 45.439 2 30S14.561 2 30 2s28 12.561 28 28-12.561 28-28 28z"/></svg><svg version="1.0" viewBox="0 0 24 24" id="pointer" xmlns="http://www.w3.org/2000/svg"><path d="M7 2l12 11.2-5.8.5 3.3 7.3-2.2 1-3.2-7.4L7 18.5V2"/></svg><svg viewBox="0 0 24 24" id="preview" xmlns="http://www.w3.org/2000/svg"><path fill="none" d="M0 0h24v24H0z"/><path d="M19 3H5a2 2 0 00-2 2v14a2 2 0 002 2h14c1.1 0 2-.9 2-2V5a2 2 0 00-2-2zm0 16H5V7h14v12zm-5.5-6c0 .83-.67 1.5-1.5 1.5s-1.5-.67-1.5-1.5.67-1.5 1.5-1.5 1.5.67 1.5 1.5zM12 9c-2.73 0-5.06 1.66-6 4 .94 2.34 3.27 4 6 4s5.06-1.66 6-4c-.94-2.34-3.27-4-6-4zm0 6.5a2.5 2.5 0 010-5 2.5 2.5 0 010 5z"/></svg><svg viewBox="0 0 24 24" id="print" xmlns="http://www.w3.org/2000/svg"><path d="M6.1 20.5h11.8v-3.4H6.1v3.4zm0-8.5h11.8V6.9h-2.1c-.4 0-.7-.1-.9-.4-.2-.2-.4-.5-.4-.9V3.5H6.1V12zm15.2.8c0-.2-.1-.4-.3-.6s-.3-.2-.5-.2-.4.1-.6.3-.3.4-.3.6c0 .2.1.4.3.6s.4.3.6.3.4-.1.6-.3.2-.4.2-.7zm1.7 0v5.5c0 .1 0 .2-.1.3s-.2.1-.3.1h-3v2.1c0 .4-.1.7-.4.9-.2.2-.5.4-.9.4H5.7c-.4 0-.7-.1-.9-.4-.2-.2-.4-.5-.4-.9v-2.1h-3c-.1 0-.2 0-.3-.1s-.1-.1-.1-.3v-5.5c0-.7.2-1.3.7-1.8s1.1-.7 1.8-.7h.8V3.1c0-.4.1-.7.4-.9.3-.2.6-.4 1-.4h8.9c.4 0 .7.1 1.2.3.4.2.8.4 1 .6l2 2c.2.2.5.6.6 1s.3.8.3 1.2v3.4h.8c.7 0 1.3.2 1.8.7.5.6.7 1.1.7 1.8z"/></svg><svg viewBox="0 0 24 24" id="quick-edit" xmlns="http://www.w3.org/2000/svg"><path d="M17 9c0 3.8-7 14-7 14S3 12.8 3 9s3.1-7 7-7 7 3.1 7 7zm-7 3c2.2 0 4-1.9 4-4.1S12.2 4 10 4 6 5.8 6 7.9 7.8 12 10 12z"/><svg x="8" y="6" viewBox="0 0 24 24" width="19" stroke="#fff"><path d="M6 15.5V18h2.5l7.4-7.4-2.5-2.5L6 15.5zm11.8-6.8c.3-.3.3-.7 0-.9l-1.6-1.6c-.3-.3-.7-.3-.9 0l-1.2 1.2 2.5 2.5 1.2-1.2z"/></svg></svg><svg viewBox="0 0 24 24" id="radius" xmlns="http://www.w3.org/2000/svg"><path d="M12 3c5 0 9 4 9 9s-4 9-9 9-9-4-9-9 4-9 9-9m0-1C6.5 2 2 6.5 2 12s4.5 10 10 10 10-4.5 10-10S17.5 2 12 2z"/><circle cx="12" cy="12" r="2"/><circle cx="21.5" cy="12" r="2"/><path d="M12 11.5h9v1h-9z"/></svg><svg viewBox="0 0 24 24" id="recognise" xmlns="http://www.w3.org/2000/svg"><path d="M9.5 6.3c.1 0 .2 0 .3-.1.1-.2.1-.3.1-.4 0-.1 0-.2-.1-.3-.1-.1-.2-.2-.3-.2s-.2 0-.3.1c-.1.2-.2.3-.2.4 0 .1 0 .2.1.3.1.1.2.2.4.2zm5 0c.1 0 .2 0 .3-.1s.2-.3.2-.4c0-.1 0-.2-.1-.3s-.2-.1-.3-.1c-.1 0-.2 0-.3.1s-.1.2-.1.3c0 .1 0 .2.1.3s.1.2.2.2zM4.8 8.5c.3 0 .6.1.9.4.2.2.3.5.3.8v5.2c0 .3-.1.6-.4.9-.2.2-.5.4-.9.4-.3 0-.6-.1-.9-.4-.2-.2-.4-.5-.4-.9V9.7c0-.3.1-.6.4-.9.3-.2.6-.3 1-.3zm12.7.2v8c0 .4-.1.7-.4.9s-.5.4-.9.4h-.9v2.7c0 .3-.1.6-.4.9-.2.2-.5.4-.9.4-.3 0-.6-.1-.9-.4-.2-.2-.4-.5-.4-.9V18H11v2.7c0 .3-.1.6-.4.9-.2.2-.5.4-.9.4-.3 0-.6-.1-.9-.4-.2-.2-.4-.5-.4-.9V18h-.6c-.4 0-.7-.1-.9-.4-.3-.3-.4-.6-.4-.9v-8h11zm-2.8-4.9c.9.4 1.5 1.1 2.1 1.8.5.8.8 1.7.8 2.6H6.4c0-.9.3-1.8.8-2.6s1.2-1.4 2.1-1.8l-.9-1.5c0-.1 0-.2.1-.3.1 0 .2 0 .2.1l.9 1.6c.8-.3 1.6-.5 2.4-.5s1.7.2 2.4.5l.9-1.6c0-.1.1-.1.2-.1.1.1.1.1.1.2l-.9 1.6zm5.8 5.9v5.2c0 .3-.1.6-.4.9s-.5.4-.9.4c-.3 0-.6-.1-.9-.4s-.3-.6-.3-.9V9.7c0-.3.1-.6.4-.9s.5-.4.9-.4c.3 0 .6.1.9.4s.3.6.3.9z"/></svg><svg viewBox="0 0 24 24" id="refresh" xmlns="http://www.w3.org/2000/svg"><path d="M17.65 6.35A7.958 7.958 0 0012 4c-4.42 0-7.99 3.58-7.99 8s3.57 8 7.99 8c3.73 0 6.84-2.55 7.73-6h-2.08A5.99 5.99 0 0112 18c-3.31 0-6-2.69-6-6s2.69-6 6-6c1.66 0 3.14.69 4.22 1.78L13 11h7V4l-2.35 2.35z"/></svg><svg viewBox="0 0 24 24" id="report" xmlns="http://www.w3.org/2000/svg"><path d="M13 8.8h4.2C17 6.3 15.3 4.5 13 4.1v4.7zM16 12.2c.7-.8.9-1.3 1.1-2.5l-3.6-.1 2.5 2.6z"/><path d="M11.7 9.5V4.1C9.2 4.2 7 6.4 7 9.2s2.2 5.1 5.1 5.1c1.2 0 2.4-.5 3.2-1.2l-3.6-3.6zM6.5 18.4h3v3h-3zM10.5 16.6h3v4.8h-3zM14.5 17.2h3v4.2h-3z"/><path d="M16.9 0H2.5v24h19.1V4.1L16.9 0zm3.4 22.4H3.8V1.6h12.4l4.1 3.6v17.2z"/><path d="M16.2.6h1.3v4.8h-1.3zM21.119 4.1v1.3h-3.6V4.1z"/></svg><svg viewBox="0 0 333333 333333" shape-rendering="geometricPrecision" text-rendering="geometricPrecision" image-rendering="optimizeQuality" fill-rule="evenodd" clip-rule="evenodd" id="road-route-map" xmlns="http://www.w3.org/2000/svg"><path d="M292993 100503c-5285 5796-11441 10986-18354 15191-852 625-2007 701-2955 94-10209-6496-18789-14300-25532-22786-9300-11668-15153-24604-17161-37068-2046-12634-133-24794 6156-34681 2481-3902 5644-7463 9508-10531C253520 3657 263653-74 273749 1c9717 76 19320 3694 27616 11270 2917 2652 5360 5682 7368 8978 6762 11137 8220 25343 5247 39739-2936 14225-10209 28677-20987 40496v19zM82677 249739c-5285 5796-11441 10986-18354 15191-852 625-2008 701-2955 94-10209-6497-18789-14300-25532-22786-9300-11667-15153-24604-17161-37068-2045-12633-132-24794 6156-34681 2481-3902 5644-7463 9509-10531 8865-7065 18998-10796 29093-10720 9717 76 19320 3694 27616 11270 2917 2652 5361 5682 7368 8978 6762 11137 8220 25343 5247 39739-2936 14225-10209 28677-20987 40496v19zm-18475 29780c12244 0 22576 8179 25835 19371h162689c8039 0 15352-3295 20660-8602 5307-5307 8602-12621 8602-20660 0-8038-3295-15352-8602-20659s-12621-8602-20660-8602h-56946v2c-12772 0-24378-5219-32786-13627-8407-8408-13627-20014-13627-32786s5220-24378 13627-32786c8408-8408 20014-13627 32786-13627h51469c3530-10744 13642-18502 25567-18502 14860 0 26907 12047 26907 26907s-12047 26907-26907 26907c-11798 0-21821-7594-25452-18160h-51583c-8038 0-15352 3294-20659 8602-5307 5307-8602 12621-8602 20659s3294 15352 8602 20659c5268 5268 12513 8553 20481 8601v-1h57125c12773 0 24378 5220 32786 13627 8408 8408 13627 20014 13627 32786s-5219 24378-13627 32786-20013 13627-32786 13627H89339c-3870 10111-13664 17292-25136 17292-14860 0-26907-12047-26907-26907s12047-26907 26907-26907zm-2702-107818c11990 0 21706 9717 21706 21707s-9717 21707-21706 21707c-11990 0-21707-9717-21707-21707s9717-21707 21707-21707zM271816 22465c11990 0 21706 9717 21706 21707s-9717 21707-21706 21707c-11990 0-21707-9717-21707-21707s9717-21707 21707-21707z"/></svg><svg viewBox="0 0 24 24" id="screen" xmlns="http://www.w3.org/2000/svg"><path d="M2 5v12h20V5H2zm1.5 1.5h17v9h-17v-9zM7 18l-1 1v1h12v-1l-1-1H7z"/></svg><svg viewBox="0 0 24 24" id="screenfull" xmlns="http://www.w3.org/2000/svg"><path d="M21.1 17.3c-.2 0-.5-.1-.6-.3L12 8.6 3.6 17c-.4.4-.9.4-1.3 0s-.4-.9 0-1.3l8.6-8.6c.6-.6 1.6-.6 2.2 0l8.6 8.6c.4.4.4.9 0 1.3-.1.2-.4.3-.6.3z"/></svg><svg viewBox="0 0 24 24" id="screenfull-double" xmlns="http://www.w3.org/2000/svg"><path d="M2.9 3.3c.2 0 .5.1.6.3L12 12l8.4-8.4c.4-.4.9-.4 1.3 0s.4.9 0 1.3l-8.6 8.6c-.6.6-1.6.6-2.2 0L2.3 4.9c-.4-.4-.4-.9 0-1.3.1-.2.4-.3.6-.3z"/><path d="M2.9 10c.2 0 .5.1.6.3l8.5 8.4 8.4-8.4c.4-.4.9-.4 1.3 0s.4.9 0 1.3l-8.6 8.6c-.6.6-1.6.6-2.2 0l-8.6-8.6c-.4-.4-.4-.9 0-1.3.1-.2.4-.3.6-.3z"/></svg><svg viewBox="0 0 24 24" id="screenhalf" xmlns="http://www.w3.org/2000/svg"><path d="M16.9 9.1c.2.3.1.6-.1.9l-4.2 5.8c-.2.2-.4.4-.7.4s-.5-.1-.7-.4l-4-5.8c-.2-.3-.3-.6-.1-.9.1-.3.4-.5.7-.5h8.3c.4.1.7.2.8.5zm1.8 9.2V5.8c0-.1 0-.2-.1-.3s-.2-.1-.3-.1H5.8c-.1 0-.2 0-.3.1s-.2.1-.2.3v12.5c0 .1 0 .2.1.3s.2.1.3.1h12.5c.1 0 .2 0 .3-.1s.2-.2.2-.3zM22 5.8v12.5c0 1-.4 1.9-1.1 2.6S19.3 22 18.3 22H5.8c-1 0-1.9-.4-2.6-1.1S2 19.3 2 18.3V5.8c0-1 .4-1.9 1.1-2.6S4.7 2 5.8 2h12.5c1 0 1.9.4 2.6 1.1S22 4.7 22 5.8z"/></svg><svg viewBox="0 0 24 24" id="search" xmlns="http://www.w3.org/2000/svg"><path d="M10.4 3C6.3 3 3 6.3 3 10.4c0 4.1 3.3 7.4 7.4 7.4 1.6 0 3.1-.5 4.4-1.5l.3-.2L20 21l.9-.9-4.9-4.9.2-.3c1-1.3 1.5-2.8 1.5-4.4.2-4.2-3.2-7.5-7.3-7.5zm0 13.6c-3.4 0-6.1-2.7-6.1-6.1S7 4.4 10.4 4.4s6.1 2.7 6.1 6.1-2.7 6.1-6.1 6.1z"/></svg><svg viewBox="0 0 24 24" id="selection-add" xmlns="http://www.w3.org/2000/svg"><path d="M7 12H5v-1h2v1zM3 3h1V2H2v3h1V3zm13-1h-2v1h2V2zm3 0h-2v1h2V2zM7 2H5v1h2V2zm-3 9H3V9H2v3h2v-1zm17-3h1V6h-1v2zm0 3h-1v.3L11.1 3H13V2h-2v.9L10 2H8v1h2v8H8v1h2v6.5l4.1-3.9 3.2 7.4 2.2-1-3.3-7.3 5.8-.5-1.3-1.2H22V9h-1v2zm-1-9v1h1v2h1V2h-2zM3 6H2v2h1V6zm3 9H4v3H1v2h3v3h2v-3h3v-2H6v-3z"/></svg><svg viewBox="0 0 24 24" id="selection-info" xmlns="http://www.w3.org/2000/svg"><path d="M12 9c.6 0 1-.4 1-1s-.4-1-1-1-1 .4-1 1 .4 1 1 1zM13 17.4v-6.8c0-.6-.7-.6-.9-.7h-.4s-.8 0-.8.5v7c0 .2.1.4.6.4h.7c.4.2.8.1.8-.4z"/><path d="M12 2C6.5 2 2 6.5 2 12s4.5 10 10 10 10-4.5 10-10S17.5 2 12 2zm0 18c-4.4 0-8-3.6-8-8s3.6-8 8-8 8 3.6 8 8-3.6 8-8 8z"/></svg><svg viewBox="0 0 24 24" id="selection-map" xmlns="http://www.w3.org/2000/svg"><path d="M10 2v16.5l4.1-3.9 3.2 7.4 2.2-1-3.3-7.3 5.8-.5zM6 15H4v3H1v2h3v3h2v-3h3v-2H6z"/></svg><svg viewBox="0 0 24 24" id="selection-polygon" xmlns="http://www.w3.org/2000/svg"><path d="M10 2v16.5l4.1-3.9 3.2 7.4 2.2-1-3.3-7.3 5.8-.5zM6 15H4v3H1v2h3v3h2v-3h3v-2H6z"/><path d="M15.3 1.5l-1.9.7.3.9 1.9-.7-.3-.9zm-2.9 1l-1.9.7.3.9 1.9-.7-.3-.9zm-4.7.7l-.3.9 1.3.5.3.1.3-.1.6-.2-.3-.9-.6.2-1.3-.5zM4.9 2.1l-.3.9 1.9.7.4-.9-2-.7zM1.1.7l.6 1.8.7-.2 1.2.5.4-1s-1.2-.5-1.7-.6L1.1.7zM3 3.1l-1 .3.7 1.9.9-.3L3 3.1zm1 2.8l-1 .3s.3.9.5 1.4l.2.4.9-.3L4 5.9zm.9 2.9l-.9.3s.1.4.3.9l.3 1h.1l.3 1 .2-.2c.4-.3 1.3-.9 1.3-.9l-.5-.8-.5.3-.6-1.6zm3.5-.5L6.8 9.5l.6.8L9 9.1l-.6-.8zm2.9-2.1l-.7.5-1.4 1 .6.8s.9-.6 1.2-.9l.2.2.7-.7-.2-.2-.4-.7zm1.5 1.6l-.7.7 1.4 1.4.7-.7-1.4-1.4zm2.1 2.2l-.7.7c.3.3 1.3 1.4 1.3 1.4l.7-.7-1.3-1.4zm2.1 2.2l-.7.7 1.4 1.4.7-.7-1.4-1.4zm2 2.1l-.7.7.2.2 1.2 1.2.7-.7-1.4-1.4zm1.9.5l-.2 2h.2l-.4.4 1.1 1.1.1-1.3-.1-.2h.2c.1-.6.2-1.7.2-1.7l-1.1-.3zm.3-3l-.2 2 1 .1.2-2-1-.1zm.3-3l-.2 2 1 .1.2-2-1-.1zm.4-3l-.2 2 1 .1.2-2-1-.1zm-.8-2.1l-.7.7 1.4 1.5.7-.7-.9-1c-.4-.3-.5-.5-.5-.5zM19 1.5l-.7.7 1.4 1.5.7-.7L19 1.5zm-.9-1c-.1 0-.1 0 0 0-.1 0-.1 0 0 0-.1 0-.1 0 0 0-.1 0-.1 0 0 0-.1 0-.1 0 0 0-.1 0-.1 0 0 0-.1 0-.1 0 0 0H18l-1.7.6.3.9 1.9-.7-.2-.6.1-.1-.3-.1z"/></svg><svg viewBox="0 0 24 24" id="selection-remove" xmlns="http://www.w3.org/2000/svg"><path d="M22 2v3h-1V3h-1V2h2zm-3 0h-2v1h2V2zm-3 0h-2v1h2V2zM7 2H5v1h2V2zM3 3h1V2H2v3h1V3zm0 3H2v2h1V6zm1 5H3V9H2v3h2v-1zm3 0H5v1h2v-1zm14 0h-1v.3L11.1 3H13V2h-2v.9L10 2H8v1h2v8H8v1h2v6.5l4.1-3.9 3.2 7.4 2.2-1-3.3-7.3 5.8-.5-1.3-1.2H22V9h-1v2zm0-3h1V6h-1v2zM1 20h8v-2H1v2z"/></svg><svg viewBox="0 0 24 24" id="selection-remove-all" xmlns="http://www.w3.org/2000/svg"><path d="M22 2v3h-1V3h-1V2zM17 2h2v1h-2zM14 2h2v1h-2zM11 2h2v1h-2zM8 2h2v1H8zM5 2h2v1H5zM3 3h1V2H2v3h1zM2 6h1v2H2zM4 11H3V9H2v3h2zM20 12h2V9h-1v2h-1zM5 11h2v1H5zM8 11h2v1H8zM11 11h2v1h-2zM14 11h2v1h-2zM17 11h2v1h-2zM21 6h1v2h-1zM1 18h8v2H1z"/></svg><svg viewBox="0 0 24 24" id="share" xmlns="http://www.w3.org/2000/svg"><path d="M15 12c2.21 0 4-1.79 4-4s-1.79-4-4-4-4 1.79-4 4 1.79 4 4 4zm-9-2V7H4v3H1v2h3v3h2v-3h3v-2H6zm9 4c-2.67 0-8 1.34-8 4v2h16v-2c0-2.66-5.33-4-8-4z"/></svg><svg viewBox="0 0 24 24" id="small-add" xmlns="http://www.w3.org/2000/svg"><path d="M13.5 6h-3v4.5H6v3h4.5V18h3v-4.5H18v-3h-4.5z"/></svg><svg viewBox="0 0 24 24" id="small-delete" xmlns="http://www.w3.org/2000/svg"><path d="M8 16.7c0 .7.6 1.3 1.3 1.3h5.3c.7 0 1.3-.6 1.3-1.3v-8H8v8zm8.7-10h-2.3l-.7-.7h-3.3l-.7.7H7.3V8h9.3V6.7z"/></svg><svg viewBox="0 0 24 24" id="small-done" xmlns="http://www.w3.org/2000/svg"><path d="M10 15l-2.9-2.9-1 1 3.8 3.8 8.2-8.2-1-1L10 15z"/></svg><svg viewBox="0 0 24 24" id="small-download" xmlns="http://www.w3.org/2000/svg"><path d="M19 9.5h-4v-6H9v6H5l7 7 7-7zm-14 9v2h14v-2H5z"/></svg><svg viewBox="0 0 11 24" id="small-drag" xmlns="http://www.w3.org/2000/svg"><circle cx="2.5" cy="5.5" r="1.5"/><circle cx="2.5" cy="11.5" r="1.5"/><circle cx="2.5" cy="17.5" r="1.5"/><circle cx="8.5" cy="5.5" r="1.5"/><circle cx="8.5" cy="11.5" r="1.5"/><circle cx="8.5" cy="17.5" r="1.5"/></svg><svg viewBox="0 0 24 24" id="small-edit" xmlns="http://www.w3.org/2000/svg"><path d="M6 15.5V18h2.5l7.4-7.4-2.5-2.5L6 15.5zm11.8-6.8c.3-.3.3-.7 0-.9l-1.6-1.6c-.3-.3-.7-.3-.9 0l-1.2 1.2 2.5 2.5 1.2-1.2z"/></svg><svg viewBox="0 0 24 24" id="streetview" xmlns="http://www.w3.org/2000/svg"><path fill="none" d="M0 0h24v24H0z"/><path d="M12.56 14.33c-.34.27-.56.7-.56 1.17V21h7c1.1 0 2-.9 2-2v-5.98c-.94-.33-1.95-.52-3-.52-2.03 0-3.93.7-5.44 1.83z"/><circle cx="18" cy="6" r="5"/><path d="M11.5 6c0-1.08.27-2.1.74-3H5c-1.1 0-2 .9-2 2v14c0 .55.23 1.05.59 1.41l9.82-9.82A6.435 6.435 0 0111.5 6z"/></svg><svg viewBox="0 0 24 24" id="swap_vert" xmlns="http://www.w3.org/2000/svg"><path d="M0 0h24v24H0z" fill="none"/><path d="M16 17.01V10h-2v7.01h-3L15 21l4-3.99h-3zM9 3L5 6.99h3V14h2V6.99h3L9 3z"/></svg><svg viewBox="0 0 24 24" id="table_chart" xmlns="http://www.w3.org/2000/svg"><path d="M0 0h24v24H0V0z" fill="none"/><path d="M10 10.02h5V21h-5zM17 21h3c1.1 0 2-.9 2-2v-9h-5v11zm3-18H5c-1.1 0-2 .9-2 2v3h19V5c0-1.1-.9-2-2-2zM3 19c0 1.1.9 2 2 2h3V10H3v9z"/></svg><svg viewBox="0 0 24 24" id="total" xmlns="http://www.w3.org/2000/svg"><path d="M18 6V4H7v2l6 6-6 6v2h11v-2h-8l6-6-6-6z"/></svg><svg viewBox="0 0 24 24" id="tracking-location" xmlns="http://www.w3.org/2000/svg"><path d="M12 0C5.4 0 0 5.4 0 12s5.4 12 12 12 12-5.4 12-12S18.6 0 12 0zm1 21.9V21c0-.6-.4-1-1-1s-1 .4-1 1v.9c-4.7-.5-8.5-4.2-8.9-8.9H3c.6 0 1-.4 1-1s-.4-1-1-1h-.9c.4-4.7 4.2-8.5 8.9-8.9V3c0 .6.4 1 1 1s1-.4 1-1v-.9c4.7.5 8.5 4.2 8.9 8.9H21c-.6 0-1 .4-1 1s.4 1 1 1h.9c-.4 4.7-4.2 8.5-8.9 8.9z"/><path d="M9.9 14.1l1.4 4.2L17 7 5.6 12.7l4.3 1.4z"/></svg><svg viewBox="0 0 24 24" id="ui-settings" xmlns="http://www.w3.org/2000/svg"><path d="M19.43 12.98c.04-.32.07-.64.07-.98s-.03-.66-.07-.98l2.11-1.65c.19-.15.24-.42.12-.64l-2-3.46c-.12-.22-.39-.3-.61-.22l-2.49 1c-.52-.4-1.08-.73-1.69-.98l-.38-2.65A.488.488 0 0014 2h-4c-.25 0-.46.18-.49.42l-.38 2.65c-.61.25-1.17.59-1.69.98l-2.49-1c-.23-.09-.49 0-.61.22l-2 3.46c-.13.22-.07.49.12.64l2.11 1.65c-.04.32-.07.65-.07.98s.03.66.07.98l-2.11 1.65c-.19.15-.24.42-.12.64l2 3.46c.12.22.39.3.61.22l2.49-1c.52.4 1.08.73 1.69.98l.38 2.65c.03.24.24.42.49.42h4c.25 0 .46-.18.49-.42l.38-2.65c.61-.25 1.17-.59 1.69-.98l2.49 1c.23.09.49 0 .61-.22l2-3.46c.12-.22.07-.49-.12-.64l-2.11-1.65zM12 15.5c-1.93 0-3.5-1.57-3.5-3.5s1.57-3.5 3.5-3.5 3.5 1.57 3.5 3.5-1.57 3.5-3.5 3.5z" class="style-scope iron-icon"/></svg><svg viewBox="0 0 24 24" id="union" xmlns="http://www.w3.org/2000/svg"><g class="svg-icon__stroke svg-icon__fill"><circle cx="12" cy="9" r="6"/><circle cx="9" cy="15" r="6"/><circle cx="15" cy="15" r="6"/></g><g fill="transparent" class="svg-icon__stroke-white"><circle cx="12" cy="9" r="6"/><circle cx="9" cy="15" r="6"/><circle cx="15" cy="15" r="6"/></g></svg><svg viewBox="0 0 24 24" id="unlock" xmlns="http://www.w3.org/2000/svg"><path d="M22 8.9V12c0 .2-.1.4-.2.5-.2.2-.3.2-.5.2h-.8c-.2 0-.4-.1-.5-.2-.2-.2-.2-.3-.2-.5V8.9c0-.8-.3-1.6-.9-2.2-.6-.6-1.3-.9-2.2-.9-.8 0-1.6.3-2.2.9s-.9 1.3-.9 2.2v2.3h1.2c.3 0 .6.1.8.3.2.2.3.5.3.8v6.9c0 .3-.1.6-.3.8s-.5.3-.8.3H3.2c-.3 0-.6-.1-.8-.3s-.4-.4-.4-.7v-6.9c0-.3.1-.6.3-.8.2-.2.5-.3.8-.3h8.1V8.9c0-1.5.5-2.8 1.6-3.8s2.3-1.6 3.8-1.6 2.8.5 3.8 1.6S22 7.4 22 8.9z"/></svg><svg viewBox="0 0 24 24" id="view" xmlns="http://www.w3.org/2000/svg"><path d="M20.6 12c-1.1-1.8-2.5-3.1-4.3-3.9.5.8.7 1.6.7 2.5 0 1.4-.5 2.6-1.5 3.5s-2.2 1.5-3.5 1.5-2.6-.5-3.5-1.5S7 11.9 7 10.6c0-.9.2-1.7.7-2.5-1.7.8-3.1 2.1-4.3 3.9 1 1.5 2.2 2.7 3.7 3.6 1.5.9 3.2 1.4 4.9 1.4s3.4-.5 4.8-1.4c1.5-.9 2.8-2.1 3.8-3.6zm-8.1-4.3c0-.1-.1-.3-.2-.4-.1-.1-.2-.2-.4-.2-.9 0-1.7.3-2.4 1s-1 1.5-1 2.4c0 .1.1.3.2.4.1.1.2.2.4.2s.3-.1.4-.2c.1-.1.2-.2.2-.4 0-.6.2-1.2.7-1.6.5-.5 1-.7 1.6-.7.1 0 .3-.1.4-.2.1 0 .1-.1.1-.3zM22 12c0 .3-.1.5-.2.8-1 1.7-2.4 3.1-4.2 4.1S14 18.4 12 18.4s-3.8-.5-5.6-1.6-3.2-2.4-4.2-4.1c-.1-.2-.2-.4-.2-.7s.1-.5.2-.8c1-1.7 2.4-3.1 4.2-4.1S10 5.6 12 5.6s3.8.5 5.6 1.6 3.2 2.4 4.2 4.1c.1.2.2.4.2.7z"/></svg><svg viewBox="0 0 24 24" id="visibility" xmlns="http://www.w3.org/2000/svg"><path d="M0 0h24v24H0z" fill="none"/><path d="M12 4.5C7 4.5 2.73 7.61 1 12c1.73 4.39 6 7.5 11 7.5s9.27-3.11 11-7.5c-1.73-4.39-6-7.5-11-7.5zM12 17c-2.76 0-5-2.24-5-5s2.24-5 5-5 5 2.24 5 5-2.24 5-5 5zm0-8c-1.66 0-3 1.34-3 3s1.34 3 3 3 3-1.34 3-3-1.34-3-3-3z"/></svg><svg viewBox="0 0 24 24" id="visibility_off" xmlns="http://www.w3.org/2000/svg"><path d="M0 0h24v24H0zm0 0h24v24H0zm0 0h24v24H0zm0 0h24v24H0z" fill="none"/><path d="M12 7c2.76 0 5 2.24 5 5 0 .65-.13 1.26-.36 1.83l2.92 2.92c1.51-1.26 2.7-2.89 3.43-4.75-1.73-4.39-6-7.5-11-7.5-1.4 0-2.74.25-3.98.7l2.16 2.16C10.74 7.13 11.35 7 12 7zM2 4.27l2.28 2.28.46.46A11.804 11.804 0 001 12c1.73 4.39 6 7.5 11 7.5 1.55 0 3.03-.3 4.38-.84l.42.42L19.73 22 21 20.73 3.27 3 2 4.27zM7.53 9.8l1.55 1.55c-.05.21-.08.43-.08.65 0 1.66 1.34 3 3 3 .22 0 .44-.03.65-.08l1.55 1.55c-.67.33-1.41.53-2.2.53-2.76 0-5-2.24-5-5 0-.79.2-1.53.53-2.2zm4.31-.78l3.15 3.15.02-.16c0-1.66-1.34-3-3-3l-.17.01z"/></svg><svg viewBox="0 0 24 24" id="warning" xmlns="http://www.w3.org/2000/svg"><path d="M10.7 3.5c.7-1.2 1.9-1.2 2.7 0l9.2 14.9c1 1.6.3 2.9-1.6 2.9H3.1c-1.9 0-2.6-1.3-1.6-2.9l9.2-14.9zM12 7.3c-.6 0-1.1.4-1.1 1V14c0 .5.5 1 1.1 1 .6 0 1.1-.4 1.1-1V8.2c0-.5-.5-.9-1.1-.9zM12 19c.6 0 1.1-.5 1.1-1.1 0-.6-.5-1.1-1.1-1.1s-1.1.5-1.1 1.1c0 .6.5 1.1 1.1 1.1z"/></svg><svg viewBox="0 0 24 24" id="workspace" xmlns="http://www.w3.org/2000/svg"><path d="M4.9 17.4v2.1c0 .1 0 .2-.1.3s-.2.1-.3.1H2.4c-.1 0-.2 0-.3-.1s-.1-.2-.1-.3v-2.1c0-.1 0-.2.1-.3.1-.1.2-.1.3-.1h2.1c.1 0 .2 0 .3.1 0 .1.1.2.1.3zm0-4.3v2.1c0 .1 0 .2-.1.3-.1.1-.2.1-.3.1H2.4c-.1 0-.2 0-.3-.1-.1-.1-.1-.2-.1-.3v-2.1c0-.1 0-.2.1-.3s.2-.1.3-.1h2.1c.1 0 .2 0 .3.1s.1.2.1.3zm0-4.3v2.1c0 .1 0 .2-.1.3s-.2.1-.3.1H2.4c-.1 0-.2 0-.3-.1S2 11 2 10.9V8.8c0-.1 0-.2.1-.3s.2-.1.3-.1h2.1c.1 0 .2 0 .3.1s.1.2.1.3zM22 17.4v2.1c0 .1 0 .2-.1.3-.1.1-.2.1-.3.1h-15c-.1 0-.2 0-.3-.1-.1-.1-.1-.2-.1-.3v-2.1c0-.1 0-.2.1-.3.2-.1.2-.1.3-.1h15c.1 0 .2 0 .3.1.1.1.1.2.1.3zM4.9 4.5v2.1c0 .1 0 .2-.1.3-.1.1-.2.1-.3.1H2.4c-.1 0-.2 0-.3-.1-.1-.1-.1-.2-.1-.3V4.5c0-.1 0-.2.1-.3.1-.1.2-.1.3-.1h2.1c.1 0 .2 0 .3.1 0 .1.1.2.1.3zM22 13.1v2.1c0 .1 0 .2-.1.3-.1.1-.2.1-.3.1h-15c-.1 0-.2 0-.3-.1-.1-.1-.1-.2-.1-.3v-2.1c0-.1 0-.2.1-.3.1-.1.2-.1.3-.1h15c.1 0 .2 0 .3.1.1.1.1.2.1.3zm0-4.3v2.1c0 .1 0 .2-.1.3-.1.1-.2.1-.3.1h-15c-.1 0-.2 0-.3-.1-.1-.1-.1-.2-.1-.3V8.8c0-.1 0-.2.1-.3.1-.1.2-.1.3-.1h15c.1 0 .2 0 .3.1.1.1.1.2.1.3zm0-4.3v2.1c0 .1 0 .2-.1.3-.1.1-.2.1-.3.1h-15c-.1 0-.1 0-.2-.1s-.1-.2-.1-.3V4.5c0-.1 0-.2.1-.3.1-.1.2-.1.3-.1h15c.1 0 .2 0 .3.1v.3z"/></svg><svg viewBox="0 0 24 24" id="zoomin"><path d="M15.5 14h-.79l-.28-.27A6.471 6.471 0 0016 9.5 6.5 6.5 0 109.5 16c1.61 0 3.09-.59 4.23-1.57l.27.28v.79l5 4.99L20.49 19l-4.99-5zm-6 0C7.01 14 5 11.99 5 9.5S7.01 5 9.5 5 14 7.01 14 9.5 11.99 14 9.5 14zm2.5-4h-2v2H9v-2H7V9h2V7h1v2h2v1z"/></svg><svg viewBox="0 0 24 24" id="zoomout"><path d="M15.5 14h-.79l-.28-.27A6.471 6.471 0 0016 9.5 6.5 6.5 0 109.5 16c1.61 0 3.09-.59 4.23-1.57l.27.28v.79l5 4.99L20.49 19l-4.99-5zm-6 0C7.01 14 5 11.99 5 9.5S7.01 5 9.5 5 14 7.01 14 9.5 11.99 14 9.5 14zM7 9h5v1H7z"/></svg></defs></svg>