<?xml version="1.0" encoding="utf-8"?><svg xmlns="http://www.w3.org/2000/svg" xmlns:xlink="http://www.w3.org/1999/xlink"><defs><svg viewBox="0 0 1000 1000" id="reset-password" xmlns="http://www.w3.org/2000/svg"><path d="M618.9 438.7c35.8 0 64.8 31.6 64.8 70.7v164.9c0 39-29 70.7-64.8 70.7H381.3c-35.8 0-64.8-31.6-64.8-70.7V509.4c0-39 29-70.7 64.8-70.7h237.6zm-119.4 61.5c-33.8 0-61.3 26.2-61.3 58.6 0 21.6 16.8 38.2 35 48.3v76.1h52.5v-76.1c18.3-10.2 35-26.7 35-48.3.1-32.4-27.3-58.6-61.2-58.6zm.5-183.9c-57.6 0-61.1 48.4-61.3 61.3v61.1h-61.6v-55.2s0-128.6 122.7-128.6 122.7 128.6 122.7 128.6v55.2h-61.2v-61.1c-.2-12.6-3.7-61.3-61.3-61.3zm0 673.8c-270.6 0-490-219.4-490-490s219.4-490 490-490c87.2 0 169 22.9 240 62.9l45.6-63.1 81.6 214.5-214-31.4 50.5-69.9C643.1 90.3 573.8 71.4 500 71.4c-236.8 0-428.8 192-428.8 428.8s192 428.7 428.8 428.7 428.8-192 428.8-428.7c0-57.8-11.6-112.9-32.3-163.2l56.6-23.3c23.7 57.5 37 120.4 37 186.5C990 770.7 770.6 990.1 500 990.1z"/></svg></defs></svg>