<?xml version="1.0" encoding="utf-8"?>
<!-- Generator: Adobe Illustrator 21.1.0, SVG Export Plug-In . SVG Version: 6.00 Build 0)  -->
<svg version="1.1" id="Layer_1" xmlns="http://www.w3.org/2000/svg" xmlns:xlink="http://www.w3.org/1999/xlink" x="0px" y="0px"
	 viewBox="0 0 434.8 113.9" style="enable-background:new 0 0 434.8 113.9;" xml:space="preserve">
<style type="text/css">
	.st0{fill:#FFFFFF;}
</style>
<g>
	<polygon class="st0" points="153.2,80.3 131.6,46.5 131.6,80.3 122.3,80.3 122.3,32.7 133.8,32.7 153.7,64.2 153.7,32.7 
		162.9,32.7 162.9,80.3 	"/>
	<path class="st0" d="M194.3,60c0-0.8-0.2-1.6-0.5-2.4c-0.3-0.8-0.7-1.5-1.3-2.1s-1.4-1.1-2.3-1.5c-0.9-0.4-2-0.6-3.3-0.6
		c-1.2,0-2.2,0.2-3.1,0.6c-0.9,0.4-1.7,0.9-2.3,1.5s-1.1,1.3-1.4,2.1c-0.3,0.8-0.5,1.5-0.6,2.3h14.8V60z M202.6,70.9
		c-0.4,1.4-1,2.8-1.9,4.1c-0.9,1.3-1.9,2.4-3.2,3.3s-2.7,1.7-4.4,2.3c-1.7,0.6-3.5,0.8-5.5,0.8c-2.3,0-4.5-0.4-6.5-1.2
		c-2.1-0.8-3.9-1.9-5.4-3.5c-1.6-1.5-2.8-3.4-3.7-5.6s-1.4-4.7-1.4-7.5c0-2.6,0.4-5,1.3-7.2c0.9-2.1,2.1-4,3.6-5.5s3.2-2.7,5.2-3.5
		s4-1.2,6.1-1.2c5.2,0,9.2,1.5,12,4.6c2.9,3,4.3,7.2,4.3,12.6c0,0.6,0,1.2-0.1,1.8c0,0.6-0.1,0.9-0.1,1h-23.7c0,1.1,0.3,2.1,0.8,3
		s1.1,1.7,1.8,2.4c0.7,0.7,1.6,1.2,2.6,1.6s2,0.6,3.2,0.6c2.1,0,3.8-0.5,4.9-1.4c1.2-0.9,2-2.1,2.6-3.6L202.6,70.9z"/>
	<polygon class="st0" points="237.8,47.3 244.9,68.6 251,47.3 259.9,47.3 249.5,80.3 240.6,80.3 232.8,57.8 225.3,80.3 216.2,80.3 
		205.6,47.3 215,47.3 221.2,68.5 228.3,47.3 	"/>
	<path class="st0" d="M279.2,71.2c2.3,0,4.2-0.8,5.6-2.3c1.5-1.5,2.2-3.6,2.2-6.1c0-2.6-0.8-4.6-2.3-6.1s-3.4-2.3-5.5-2.3
		c-1.1,0-2.2,0.2-3.1,0.6c-1,0.4-1.8,0.9-2.5,1.7c-0.7,0.7-1.3,1.6-1.7,2.7c-0.4,1-0.6,2.2-0.6,3.4c0,2.6,0.7,4.6,2.2,6.2
		C274.9,70.4,276.8,71.2,279.2,71.2 M270.3,80c0.3,1.8,1.1,3.3,2.5,4.5c1.3,1.2,3.1,1.7,5.2,1.7c2.8,0,5-0.7,6.5-2.2s2.3-3.8,2.3-7
		v-2.4c-0.7,1.1-1.8,2-3.3,2.9s-3.5,1.3-5.9,1.3c-2.2,0-4.2-0.4-6.1-1.2c-1.9-0.8-3.5-1.9-4.9-3.4c-1.4-1.4-2.4-3.1-3.2-5.1
		c-0.8-1.9-1.2-4.1-1.2-6.4c0-2.2,0.4-4.3,1.1-6.2c0.8-1.9,1.8-3.7,3.2-5.1c1.3-1.5,3-2.6,4.8-3.5c1.9-0.9,4-1.3,6.3-1.3
		c2.6,0,4.7,0.5,6.3,1.4c1.5,0.9,2.6,2,3.2,3.1v-3.9h8.6v29.5c0,2.3-0.3,4.5-1,6.6s-1.7,3.9-3.1,5.5s-3.2,2.9-5.4,3.8
		c-2.2,1-4.8,1.4-7.9,1.4c-2.3,0-4.4-0.3-6.2-1c-1.9-0.7-3.5-1.5-4.9-2.6s-2.5-2.4-3.4-3.8c-0.9-1.5-1.4-3-1.6-4.5L270.3,80z"/>
	<path class="st0" d="M324.9,56.1c-0.9-0.2-1.8-0.3-2.7-0.3c-1.2,0-2.3,0.2-3.3,0.5s-1.9,0.8-2.7,1.5c-0.8,0.7-1.4,1.7-1.9,2.9
		s-0.7,2.7-0.7,4.5v15.1h-8.9v-33h8.7v4.9c0.5-1.1,1.1-2,1.9-2.7s1.6-1.2,2.5-1.6c0.9-0.4,1.7-0.6,2.6-0.7c0.9-0.1,1.7-0.2,2.4-0.2
		c0.4,0,0.7,0,1,0s0.7,0.1,1,0.1v9H324.9z"/>
	<path class="st0" d="M345.7,73.2c1.1,0,2.1-0.2,3.2-0.6c1-0.4,1.9-1,2.7-1.8c0.8-0.8,1.4-1.8,1.8-2.9c0.5-1.2,0.7-2.5,0.7-4.1
		s-0.2-2.9-0.7-4.1c-0.5-1.2-1.1-2.1-1.8-2.9c-0.8-0.8-1.7-1.4-2.7-1.8c-1-0.4-2.1-0.6-3.2-0.6s-2.1,0.2-3.2,0.6
		c-1,0.4-1.9,1-2.7,1.8s-1.4,1.8-1.9,2.9c-0.5,1.2-0.7,2.5-0.7,4.1s0.2,2.9,0.7,4.1s1.1,2.1,1.9,2.9s1.7,1.4,2.7,1.8
		C343.6,73,344.6,73.2,345.7,73.2 M345.7,46.3c2.5,0,4.8,0.4,6.9,1.3c2.1,0.9,4,2.1,5.5,3.6s2.8,3.4,3.6,5.5
		c0.9,2.1,1.3,4.5,1.3,7.1s-0.4,4.9-1.3,7s-2.1,4-3.6,5.5c-1.5,1.6-3.4,2.8-5.5,3.7c-2.1,0.9-4.4,1.3-6.9,1.3s-4.8-0.4-6.9-1.3
		s-4-2.1-5.5-3.7s-2.8-3.4-3.6-5.5c-0.9-2.1-1.3-4.5-1.3-7s0.4-4.9,1.3-7.1c0.9-2.2,2.1-4,3.6-5.5s3.4-2.8,5.5-3.6
		C340.9,46.7,343.2,46.3,345.7,46.3"/>
	<polygon class="st0" points="387.4,80.3 378.5,80.3 365,47.3 374.8,47.3 383,69.5 390.9,47.3 400.3,47.3 	"/>
	<path class="st0" d="M426,60c0-0.8-0.2-1.6-0.5-2.4c-0.3-0.8-0.7-1.5-1.3-2.1c-0.6-0.6-1.4-1.1-2.3-1.5s-2-0.6-3.3-0.6
		c-1.2,0-2.2,0.2-3.1,0.6c-0.9,0.4-1.7,0.9-2.3,1.5c-0.6,0.6-1.1,1.3-1.4,2.1s-0.5,1.5-0.6,2.3H426V60z M434.4,70.9
		c-0.4,1.4-1,2.8-1.9,4.1c-0.9,1.3-1.9,2.4-3.2,3.3c-1.3,0.9-2.7,1.7-4.4,2.3c-1.7,0.6-3.5,0.8-5.5,0.8c-2.3,0-4.5-0.4-6.5-1.2
		c-2.1-0.8-3.9-1.9-5.4-3.5c-1.6-1.5-2.8-3.4-3.7-5.6c-0.9-2.2-1.4-4.7-1.4-7.5c0-2.6,0.4-5,1.3-7.2c0.9-2.1,2.1-4,3.6-5.5
		s3.2-2.7,5.2-3.5s4-1.2,6.1-1.2c5.2,0,9.2,1.5,12,4.6c2.9,3,4.3,7.2,4.3,12.6c0,0.6,0,1.2-0.1,1.8c0,0.6-0.1,0.9-0.1,1H411
		c0,1.1,0.3,2.1,0.8,3s1.1,1.7,1.8,2.4c0.7,0.7,1.6,1.2,2.6,1.6s2,0.6,3.2,0.6c2.1,0,3.8-0.5,4.9-1.4c1.2-0.9,2-2.1,2.6-3.6
		L434.4,70.9z"/>
	<path class="st0" d="M47.2,0C21.2,0,0,21.2,0,47.2C0,60,5.1,72,14.3,81l0,0l32.9,32.9l8.3-8.3l-32.9-33h-0.1
		c-6.9-6.7-10.7-15.7-10.7-25.4c0-19.5,15.9-35.4,35.4-35.4s35.4,15.9,35.4,35.4c0,8.9-3.3,17.3-9.2,23.8l-9.8,9.8L37.1,55
		c-1.9-2.3-2.9-5.2-2.9-8.2c0-7.2,5.8-13,13-13s13,5.8,13,13c0,3.5-1.3,6.7-3.8,9.2l8.3,8.3c4.7-4.7,7.3-10.9,7.3-17.5
		C72,33.1,60.8,22,47.2,22S22.4,33.1,22.4,46.8c0,5.9,2.1,11.6,5.9,16l35.3,34.6l12.7-12.7l0,0l4.2-4.2c8.9-8.9,13.8-20.8,13.8-33.4
		C94.4,21.2,73.2,0,47.2,0"/>
</g>
</svg>
